<svg width="125" height="124" viewBox="0 0 125 124" fill="none" xmlns="http://www.w3.org/2000/svg">
<path d="M76.8372 23.7774L61.5089 41.9469C58.5099 45.4749 55.7553 50.4755 55.0136 57.2329C54.4844 62.0546 55.5812 69.5624 64.2929 75.4195C70.4081 78.3007 79.7576 80.2474 89.9016 71.8935C98.564 64.7597 99.9418 52.7518 91.2299 41.9469" stroke="#BBBBBB" stroke-width="9"/>
<path d="M37.6786 35.4358L62.9023 8.07758C69.782 15.2513 83.995 31.6377 86.7484 35.4358C89.3821 39.0689 94.1992 45.3587 95.4928 47.7107C101.957 59.4643 96.2356 75.2808 90.9503 81.1082C84.0706 88.6935 79.4842 93.1036 65.1956 94.5148C54.6439 95.5569 42.8512 89.5755 39.088 85.8711C25.6814 76.5217 26.0659 60.0701 27.7575 52.9909C29.2096 47.0625 33.8232 39.5894 37.6786 35.4358Z" stroke="#BBBBBB" stroke-width="10"/>
<path d="M6.52222 119.245L7.46948 119.484C7.27091 120.262 6.91284 120.856 6.39526 121.266C5.88094 121.673 5.25106 121.877 4.50562 121.877C3.73413 121.877 3.10588 121.72 2.62085 121.408C2.13908 121.092 1.77124 120.636 1.51733 120.041C1.26668 119.445 1.14136 118.805 1.14136 118.122C1.14136 117.376 1.28296 116.727 1.56616 116.173C1.85262 115.617 2.25789 115.195 2.78198 114.909C3.30933 114.619 3.88875 114.474 4.52026 114.474C5.23641 114.474 5.83862 114.657 6.3269 115.021C6.81519 115.386 7.15535 115.898 7.34741 116.559L6.41479 116.779C6.24878 116.258 6.00789 115.879 5.69214 115.641C5.37638 115.404 4.97925 115.285 4.50073 115.285C3.9506 115.285 3.48999 115.417 3.1189 115.68C2.75106 115.944 2.49227 116.299 2.34253 116.745C2.19279 117.187 2.11792 117.645 2.11792 118.117C2.11792 118.726 2.20581 119.258 2.38159 119.714C2.56063 120.166 2.83732 120.505 3.21167 120.729C3.58602 120.954 3.99129 121.066 4.42749 121.066C4.95809 121.066 5.40731 120.913 5.77515 120.607C6.14299 120.301 6.39201 119.847 6.52222 119.245ZM12.056 121.755V114.596H15.2298C15.8679 114.596 16.3529 114.661 16.6849 114.792C17.0169 114.919 17.2822 115.145 17.4808 115.47C17.6794 115.796 17.7787 116.156 17.7787 116.549C17.7787 117.057 17.6143 117.485 17.2855 117.834C16.9567 118.182 16.4489 118.403 15.7621 118.498C16.0127 118.618 16.2031 118.737 16.3333 118.854C16.61 119.108 16.8721 119.425 17.1195 119.806L18.3646 121.755H17.1732L16.2259 120.265C15.9492 119.836 15.7214 119.507 15.5423 119.279C15.3633 119.051 15.2022 118.892 15.0589 118.8C14.919 118.709 14.7757 118.646 14.6292 118.61C14.5218 118.587 14.346 118.576 14.1019 118.576H13.0033V121.755H12.056ZM13.0033 117.755H15.0394C15.4723 117.755 15.8109 117.712 16.055 117.624C16.2992 117.533 16.4847 117.389 16.6117 117.194C16.7386 116.995 16.8021 116.781 16.8021 116.549C16.8021 116.211 16.6784 115.933 16.431 115.714C16.1869 115.496 15.7995 115.387 15.2689 115.387H13.0033V117.755ZM24.499 121.755V118.722L21.7402 114.596H22.8925L24.3037 116.755C24.5641 117.158 24.8066 117.562 25.0312 117.965C25.246 117.591 25.5065 117.17 25.8125 116.701L27.1992 114.596H28.3027L25.4462 118.722V121.755H24.499ZM32.23 119.455L33.1236 119.377C33.1659 119.735 33.2636 120.029 33.4166 120.26C33.5728 120.488 33.8137 120.674 34.1392 120.817C34.4647 120.957 34.8309 121.027 35.2378 121.027C35.5992 121.027 35.9182 120.973 36.1949 120.866C36.4716 120.758 36.6766 120.612 36.8101 120.426C36.9468 120.238 37.0152 120.033 37.0152 119.811C37.0152 119.587 36.9501 119.391 36.8199 119.225C36.6897 119.056 36.4748 118.914 36.1753 118.8C35.9833 118.726 35.5585 118.61 34.9009 118.454C34.2434 118.294 33.7828 118.144 33.5191 118.005C33.1773 117.825 32.9218 117.604 32.7525 117.34C32.5865 117.074 32.5035 116.776 32.5035 116.447C32.5035 116.086 32.606 115.749 32.8111 115.436C33.0162 115.12 33.3156 114.881 33.7095 114.718C34.1034 114.556 34.5412 114.474 35.023 114.474C35.5536 114.474 36.0207 114.561 36.4244 114.733C36.8313 114.902 37.1438 115.153 37.3619 115.485C37.58 115.817 37.6972 116.193 37.7134 116.613L36.8052 116.681C36.7564 116.229 36.5904 115.887 36.3072 115.656C36.0272 115.425 35.6122 115.309 35.0621 115.309C34.4891 115.309 34.0709 115.415 33.8072 115.627C33.5468 115.835 33.4166 116.087 33.4166 116.383C33.4166 116.641 33.5093 116.852 33.6949 117.018C33.8772 117.184 34.3524 117.355 35.1207 117.531C35.8921 117.703 36.4211 117.855 36.7076 117.985C37.1242 118.177 37.4319 118.421 37.6304 118.717C37.829 119.01 37.9283 119.349 37.9283 119.733C37.9283 120.114 37.8192 120.474 37.6011 120.812C37.383 121.147 37.0689 121.409 36.6587 121.598C36.2518 121.784 35.7929 121.877 35.2818 121.877C34.634 121.877 34.0904 121.782 33.6509 121.593C33.2147 121.405 32.8713 121.121 32.6207 120.744C32.3733 120.363 32.2431 119.933 32.23 119.455ZM44.4435 121.755V115.441H42.0851V114.596H47.7589V115.441H45.3908V121.755H44.4435ZM50.6072 121.755L53.3562 114.596H54.3767L57.3064 121.755H56.2273L55.3923 119.587H52.3992L51.613 121.755H50.6072ZM52.6726 118.815H55.0994L54.3523 116.833C54.1244 116.23 53.9552 115.736 53.8445 115.348C53.7533 115.807 53.6248 116.263 53.4587 116.715L52.6726 118.815ZM61.4242 121.755V114.596H62.3714V120.91H65.8968V121.755H61.4242ZM77.4917 121.755L75.5923 114.596H76.564L77.6529 119.289C77.7701 119.78 77.871 120.269 77.9556 120.754C78.1379 119.989 78.2453 119.547 78.2779 119.43L79.6402 114.596H80.7828L81.8082 118.219C82.0653 119.118 82.2509 119.963 82.3648 120.754C82.4559 120.301 82.5748 119.782 82.7212 119.196L83.8443 114.596H84.7964L82.8335 121.755H81.9205L80.4117 116.3C80.2847 115.845 80.2098 115.565 80.1871 115.461C80.1122 115.789 80.0422 116.069 79.9771 116.3L78.4585 121.755H77.4917ZM87.9279 121.755L90.6769 114.596H91.6974L94.6271 121.755H93.548L92.713 119.587H89.7199L88.9337 121.755H87.9279ZM89.9933 118.815H92.4201L91.673 116.833C91.4451 116.23 91.2759 115.736 91.1652 115.348C91.074 115.807 90.9455 116.263 90.7794 116.715L89.9933 118.815ZM99.863 121.755V115.441H97.5046V114.596H103.178V115.441H100.81V121.755H99.863ZM107.575 121.755V114.596H112.75V115.441H108.522V117.633H112.482V118.473H108.522V120.91H112.916V121.755H107.575ZM117.64 121.755V114.596H120.813C121.451 114.596 121.936 114.661 122.269 114.792C122.601 114.919 122.866 115.145 123.064 115.47C123.263 115.796 123.362 116.156 123.362 116.549C123.362 117.057 123.198 117.485 122.869 117.834C122.54 118.182 122.033 118.403 121.346 118.498C121.596 118.618 121.787 118.737 121.917 118.854C122.194 119.108 122.456 119.425 122.703 119.806L123.948 121.755H122.757L121.81 120.265C121.533 119.836 121.305 119.507 121.126 119.279C120.947 119.051 120.786 118.892 120.643 118.8C120.503 118.709 120.359 118.646 120.213 118.61C120.105 118.587 119.93 118.576 119.686 118.576H118.587V121.755H117.64ZM118.587 117.755H120.623C121.056 117.755 121.394 117.712 121.639 117.624C121.883 117.533 122.068 117.389 122.195 117.194C122.322 116.995 122.386 116.781 122.386 116.549C122.386 116.211 122.262 115.933 122.015 115.714C121.77 115.496 121.383 115.387 120.852 115.387H118.587V117.755Z" fill="#BBBBBB"/>
</svg>
