<svg width="243" height="62" viewBox="0 0 243 62" fill="none" xmlns="http://www.w3.org/2000/svg">
<path d="M6.43335 1.32196L9.04858 1.27118C12.3578 1.27118 14.8588 2.07522 16.5515 3.68329C18.2442 5.29136 19.0906 7.31838 19.0906 9.76434C19.0906 11.4994 18.6843 13.0101 17.8718 14.2966C17.0593 15.5746 16.0437 16.5394 14.825 17.1911C13.6062 17.8428 11.9812 18.1686 9.94995 18.1686C9.49292 18.1686 8.91317 18.1432 8.21069 18.0925C6.95809 17.9909 6.25562 17.9401 6.10327 17.9401C3.32723 17.9401 1.69377 17.9697 1.20288 18.029C0.923584 18.029 0.783936 17.9571 0.783936 17.8132C0.783936 17.7116 0.834717 17.6439 0.936279 17.61C1.03784 17.5762 1.35099 17.5254 1.87573 17.4577C2.55282 17.3646 3.02677 17.0938 3.29761 16.6452C3.5769 16.1966 3.75041 14.8002 3.81812 12.4557L4.02124 5.73993C4.02124 4.96128 3.96623 4.21226 3.8562 3.49286C3.75464 2.76499 3.5896 2.2995 3.36108 2.09637C3.14103 1.88479 2.78556 1.74091 2.29468 1.66473C1.93921 1.61395 1.76147 1.51662 1.76147 1.37274C1.76147 1.19501 1.85034 1.10614 2.02808 1.10614C2.19735 1.10614 2.71362 1.14423 3.5769 1.2204C4.44865 1.28811 5.4008 1.32196 6.43335 1.32196ZM5.98901 13.5856C5.98901 14.7028 6.06095 15.5026 6.20483 15.985C6.35718 16.459 6.67456 16.8526 7.15698 17.1657C7.64787 17.4704 8.43075 17.6227 9.50562 17.6227C11.046 17.6227 12.2944 17.2588 13.2507 16.5309C14.2071 15.8031 14.9519 14.834 15.4851 13.6237C16.0268 12.4134 16.2976 11.127 16.2976 9.76434C16.2976 7.75002 15.684 5.92613 14.4568 4.29266C13.2296 2.6592 11.321 1.84247 8.7312 1.84247C7.58016 1.84247 6.90731 1.88055 6.71265 1.95673C6.52645 2.0329 6.43335 2.25718 6.43335 2.62958C6.43335 2.95966 6.40373 3.54787 6.34448 4.39423C6.25985 5.6299 6.20483 6.59475 6.17944 7.28876L6.06519 10.78C6.0144 12.4134 5.98901 13.3487 5.98901 13.5856ZM21.3503 9.51044C21.3503 8.36786 21.6973 7.11525 22.3914 5.75262C23.0854 4.38153 24.0968 3.25165 25.4255 2.36298C26.7628 1.4743 28.2693 1.02997 29.9451 1.02997C32.2895 1.02997 34.2234 1.86786 35.7468 3.54364C37.2787 5.21942 38.0447 7.13218 38.0447 9.28192C38.0447 11.5671 37.1983 13.6195 35.5056 15.4391C33.8129 17.2503 31.7774 18.1559 29.3992 18.1559C27.1225 18.1559 25.2097 17.3604 23.6609 15.7692C22.1205 14.1781 21.3503 12.0918 21.3503 9.51044ZM24.1814 9.10419C24.1814 10.4837 24.393 11.9014 24.8162 13.3571C25.2393 14.8044 25.9037 15.8581 26.8093 16.5182C27.7149 17.1699 28.684 17.4958 29.7166 17.4958C31.3839 17.4958 32.7169 16.6875 33.7156 15.071C34.7227 13.446 35.2263 11.5671 35.2263 9.43427C35.2263 7.36916 34.7143 5.55796 33.6902 4.00067C32.6661 2.43492 31.3289 1.65204 29.6785 1.65204C28.4343 1.65204 27.3975 2.07098 26.5681 2.90887C25.7387 3.7383 25.1335 4.73277 24.7527 5.89227C24.3718 7.05178 24.1814 8.12242 24.1814 9.10419ZM53.6853 1.46161C53.9307 2.40953 54.172 3.7383 54.4089 5.44794C54.3666 5.51565 54.3201 5.5495 54.2693 5.5495C54.21 5.5495 54.1466 5.51565 54.0789 5.44794C53.4949 4.50848 52.9363 3.79331 52.4031 3.30243C51.8699 2.81154 51.3324 2.46454 50.7908 2.26141C50.2576 2.04983 49.335 1.94403 48.0232 1.94403C46.7875 1.94403 45.81 2.01597 45.0906 2.15985C45.0229 2.24449 44.989 2.40106 44.989 2.62958C44.989 2.68882 44.9806 2.79462 44.9636 2.94696C44.879 3.62404 44.8367 5.46063 44.8367 8.45673C44.8367 8.58368 44.8451 8.76141 44.8621 8.98993C45.5053 9.01532 45.9454 9.02802 46.1824 9.02802C47.2488 9.02802 48.019 8.87144 48.4929 8.55829C48.9753 8.23667 49.3943 7.55113 49.7498 6.50165C49.809 6.32391 49.8936 6.23505 50.0037 6.23505C50.1645 6.23505 50.2449 6.35777 50.2449 6.60321L50.1941 7.11102C50.1264 7.77964 50.0925 8.46942 50.0925 9.18036C50.0925 10.3314 50.1137 11.3682 50.156 12.2907C50.156 12.5785 50.0756 12.7224 49.9148 12.7224C49.7963 12.7224 49.7159 12.6208 49.6736 12.4177C49.4958 11.419 49.1235 10.6996 48.5564 10.2595C47.9893 9.81936 46.7579 9.5993 44.8621 9.5993C44.8367 10.2171 44.824 11.2158 44.824 12.5954C44.824 14.3812 44.8875 15.5153 45.0144 15.9977C45.1414 16.4802 45.446 16.8653 45.9285 17.153C46.4109 17.4323 47.2276 17.572 48.3787 17.572C51.671 17.572 53.7953 16.4378 54.7517 14.1696C54.8702 13.8903 54.9929 13.7507 55.1199 13.7507C55.2553 13.7507 55.323 13.8438 55.323 14.03C55.323 14.1315 55.3018 14.2416 55.2595 14.36C55.2087 14.5209 55.086 15.1218 54.8914 16.1628C54.849 16.3828 54.6882 17.043 54.4089 18.1432L49.0896 18.1306C48.3279 18.1306 47.2065 18.0967 45.7253 18.029C44.2527 17.9697 42.9451 17.9359 41.8025 17.9274C40.6684 17.9274 40.0759 17.9063 40.0251 17.864C39.9744 17.8216 39.949 17.7751 39.949 17.7243C39.949 17.555 40.0886 17.4704 40.3679 17.4704C41.3074 17.4704 41.9252 17.2207 42.2214 16.7214C42.5177 16.222 42.6658 15.0075 42.6658 13.0778L42.6531 10.4753L42.6912 8.03778C42.6912 7.5469 42.6615 6.62014 42.6023 5.25751C42.5515 3.88641 42.5007 3.10354 42.45 2.90887C42.4076 2.71421 42.2764 2.52378 42.0564 2.33759C41.8448 2.14292 41.3708 1.94826 40.6345 1.7536C40.4145 1.69436 40.3044 1.60126 40.3044 1.4743C40.3044 1.32196 40.4526 1.24579 40.7488 1.24579L43.3386 1.38544C44.2527 1.42775 46.4998 1.44891 50.0798 1.44891C52.4327 1.44891 53.6345 1.45315 53.6853 1.46161ZM66.0886 9.24384C66.5626 8.7191 67.282 7.77118 68.2468 6.40009C69.2201 5.02899 69.7914 4.17841 69.9607 3.84833C70.1384 3.50979 70.2273 3.24318 70.2273 3.04852C70.2273 2.70152 70.0496 2.42645 69.6941 2.22333C69.3471 2.01174 68.9916 1.90594 68.6277 1.90594C68.3399 1.90594 68.196 1.82977 68.196 1.67743C68.196 1.51662 68.4373 1.43622 68.9197 1.43622H73.7058C74.1459 1.43622 74.366 1.52509 74.366 1.70282C74.366 1.8467 74.2686 1.91864 74.074 1.91864C73.5746 1.91864 73.0922 2.0329 72.6267 2.26141C72.1697 2.48993 71.6111 3.00197 70.9509 3.79755L68.7419 6.78094C67.5824 8.33824 66.9561 9.2523 66.863 9.52313C66.7276 9.92092 66.6599 10.9746 66.6599 12.6843C66.6599 14.9525 66.753 16.2982 66.9392 16.7214C67.1339 17.1446 67.7517 17.4027 68.7927 17.4958C69.0636 17.5212 69.199 17.6058 69.199 17.7497C69.199 17.919 69.0509 18.0036 68.7546 18.0036L65.3396 17.9274C64.5186 17.9274 63.8458 17.9444 63.321 17.9782C62.8979 18.0121 62.627 18.029 62.5085 18.029C62.1869 18.029 62.0261 17.9444 62.0261 17.7751C62.0261 17.6397 62.1446 17.5677 62.3816 17.5593C63.1941 17.5254 63.7358 17.2207 64.0066 16.6452C64.2774 16.0697 64.4128 15.2191 64.4128 14.0934C64.4128 12.8578 64.3367 11.8591 64.1843 11.0974C64.1505 10.9027 63.7865 10.2129 63.0925 9.02802C62.3985 7.83466 61.5479 6.51858 60.5408 5.07977C59.5421 3.63251 58.8269 2.7523 58.3953 2.43915C57.9636 2.126 57.5447 1.95249 57.1384 1.91864C56.8337 1.89325 56.6814 1.80861 56.6814 1.66473C56.6814 1.57163 56.7195 1.51239 56.7957 1.487C56.8803 1.45315 57.1215 1.43622 57.5193 1.43622H63.0671C63.448 1.43622 63.6765 1.44891 63.7527 1.4743C63.8289 1.49969 63.8669 1.5674 63.8669 1.67743C63.8669 1.81285 63.7611 1.88902 63.5496 1.90594C62.4832 1.99058 61.95 2.31219 61.95 2.87079C61.95 3.15855 62.1446 3.61135 62.5339 4.22919C62.9233 4.84703 64.1082 6.51858 66.0886 9.24384ZM75.2546 9.51044C75.2546 8.36786 75.6016 7.11525 76.2957 5.75262C76.9897 4.38153 78.0011 3.25165 79.3298 2.36298C80.6671 1.4743 82.1736 1.02997 83.8494 1.02997C86.1938 1.02997 88.1277 1.86786 89.6511 3.54364C91.183 5.21942 91.949 7.13218 91.949 9.28192C91.949 11.5671 91.1026 13.6195 89.4099 15.4391C87.7172 17.2503 85.6817 18.1559 83.3035 18.1559C81.0268 18.1559 79.114 17.3604 77.5652 15.7692C76.0248 14.1781 75.2546 12.0918 75.2546 9.51044ZM78.0857 9.10419C78.0857 10.4837 78.2973 11.9014 78.7205 13.3571C79.1436 14.8044 79.808 15.8581 80.7136 16.5182C81.6192 17.1699 82.5883 17.4958 83.6208 17.4958C85.2882 17.4958 86.6212 16.6875 87.6199 15.071C88.627 13.446 89.1306 11.5671 89.1306 9.43427C89.1306 7.36916 88.6186 5.55796 87.5945 4.00067C86.5704 2.43492 85.2332 1.65204 83.5828 1.65204C82.3386 1.65204 81.3018 2.07098 80.4724 2.90887C79.643 3.7383 79.0378 4.73277 78.657 5.89227C78.2761 7.05178 78.0857 8.12242 78.0857 9.10419ZM107.59 1.46161C107.835 2.40953 108.076 3.7383 108.313 5.44794C108.271 5.51565 108.224 5.5495 108.174 5.5495C108.114 5.5495 108.051 5.51565 107.983 5.44794C107.399 4.50848 106.841 3.79331 106.307 3.30243C105.774 2.81154 105.237 2.46454 104.695 2.26141C104.162 2.04983 103.239 1.94403 101.927 1.94403C100.692 1.94403 99.7143 2.01597 98.9949 2.15985C98.9272 2.24449 98.8933 2.40106 98.8933 2.62958C98.8933 2.68882 98.8848 2.79462 98.8679 2.94696C98.7833 3.62404 98.741 5.46063 98.741 8.45673C98.741 8.58368 98.7494 8.76141 98.7664 8.98993C99.4096 9.01532 99.8497 9.02802 100.087 9.02802C101.153 9.02802 101.923 8.87144 102.397 8.55829C102.88 8.23667 103.299 7.55113 103.654 6.50165C103.713 6.32391 103.798 6.23505 103.908 6.23505C104.069 6.23505 104.149 6.35777 104.149 6.60321L104.098 7.11102C104.031 7.77964 103.997 8.46942 103.997 9.18036C103.997 10.3314 104.018 11.3682 104.06 12.2907C104.06 12.5785 103.98 12.7224 103.819 12.7224C103.701 12.7224 103.62 12.6208 103.578 12.4177C103.4 11.419 103.028 10.6996 102.461 10.2595C101.894 9.81936 100.662 9.5993 98.7664 9.5993C98.741 10.2171 98.7283 11.2158 98.7283 12.5954C98.7283 14.3812 98.7917 15.5153 98.9187 15.9977C99.0457 16.4802 99.3503 16.8653 99.8328 17.153C100.315 17.4323 101.132 17.572 102.283 17.572C105.575 17.572 107.7 16.4378 108.656 14.1696C108.774 13.8903 108.897 13.7507 109.024 13.7507C109.16 13.7507 109.227 13.8438 109.227 14.03C109.227 14.1315 109.206 14.2416 109.164 14.36C109.113 14.5209 108.99 15.1218 108.796 16.1628C108.753 16.3828 108.593 17.043 108.313 18.1432L102.994 18.1306C102.232 18.1306 101.111 18.0967 99.6296 18.029C98.157 17.9697 96.8494 17.9359 95.7068 17.9274C94.5727 17.9274 93.9802 17.9063 93.9294 17.864C93.8787 17.8216 93.8533 17.7751 93.8533 17.7243C93.8533 17.555 93.9929 17.4704 94.2722 17.4704C95.2117 17.4704 95.8295 17.2207 96.1257 16.7214C96.422 16.222 96.5701 15.0075 96.5701 13.0778L96.5574 10.4753L96.5955 8.03778C96.5955 7.5469 96.5658 6.62014 96.5066 5.25751C96.4558 3.88641 96.405 3.10354 96.3542 2.90887C96.3119 2.71421 96.1807 2.52378 95.9607 2.33759C95.7491 2.14292 95.2751 1.94826 94.5388 1.7536C94.3188 1.69436 94.2087 1.60126 94.2087 1.4743C94.2087 1.32196 94.3569 1.24579 94.6531 1.24579L97.2429 1.38544C98.157 1.42775 100.404 1.44891 103.984 1.44891C106.337 1.44891 107.539 1.45315 107.59 1.46161ZM119.993 9.24384C120.467 8.7191 121.186 7.77118 122.151 6.40009C123.124 5.02899 123.696 4.17841 123.865 3.84833C124.043 3.50979 124.132 3.24318 124.132 3.04852C124.132 2.70152 123.954 2.42645 123.598 2.22333C123.251 2.01174 122.896 1.90594 122.532 1.90594C122.244 1.90594 122.1 1.82977 122.1 1.67743C122.1 1.51662 122.342 1.43622 122.824 1.43622H127.61C128.05 1.43622 128.27 1.52509 128.27 1.70282C128.27 1.8467 128.173 1.91864 127.978 1.91864C127.479 1.91864 126.997 2.0329 126.531 2.26141C126.074 2.48993 125.515 3.00197 124.855 3.79755L122.646 6.78094C121.487 8.33824 120.86 9.2523 120.767 9.52313C120.632 9.92092 120.564 10.9746 120.564 12.6843C120.564 14.9525 120.657 16.2982 120.844 16.7214C121.038 17.1446 121.656 17.4027 122.697 17.4958C122.968 17.5212 123.103 17.6058 123.103 17.7497C123.103 17.919 122.955 18.0036 122.659 18.0036L119.244 17.9274C118.423 17.9274 117.75 17.9444 117.225 17.9782C116.802 18.0121 116.531 18.029 116.413 18.029C116.091 18.029 115.93 17.9444 115.93 17.7751C115.93 17.6397 116.049 17.5677 116.286 17.5593C117.098 17.5254 117.64 17.2207 117.911 16.6452C118.182 16.0697 118.317 15.2191 118.317 14.0934C118.317 12.8578 118.241 11.8591 118.089 11.0974C118.055 10.9027 117.691 10.2129 116.997 9.02802C116.303 7.83466 115.452 6.51858 114.445 5.07977C113.446 3.63251 112.731 2.7523 112.3 2.43915C111.868 2.126 111.449 1.95249 111.043 1.91864C110.738 1.89325 110.586 1.80861 110.586 1.66473C110.586 1.57163 110.624 1.51239 110.7 1.487C110.785 1.45315 111.026 1.43622 111.424 1.43622H116.971C117.352 1.43622 117.581 1.44891 117.657 1.4743C117.733 1.49969 117.771 1.5674 117.771 1.67743C117.771 1.81285 117.665 1.88902 117.454 1.90594C116.387 1.99058 115.854 2.31219 115.854 2.87079C115.854 3.15855 116.049 3.61135 116.438 4.22919C116.828 4.84703 118.012 6.51858 119.993 9.24384ZM134.885 0.979187H135.469C136.416 2.91734 137.724 6.23081 139.391 10.9196C140.466 13.9242 141.203 15.7692 141.6 16.4548C141.998 17.1319 142.637 17.5085 143.517 17.5847C143.797 17.61 143.936 17.7031 143.936 17.864C143.936 17.9824 143.864 18.0417 143.72 18.0417L143.543 18.029C142.764 17.9613 141.774 17.9274 140.572 17.9274C138.727 17.9274 137.542 17.9571 137.017 18.0163C136.755 18.0163 136.624 17.9401 136.624 17.7878C136.624 17.6778 136.721 17.61 136.916 17.5847C137.635 17.5169 138.13 17.3942 138.401 17.2165C138.68 17.0388 138.82 16.7595 138.82 16.3786C138.82 16.0147 138.562 15.1048 138.046 13.6491L137.297 11.4655C136.857 11.4655 134.889 11.4909 131.393 11.5417C130.513 13.8861 130.073 15.363 130.073 15.9724C130.073 16.4886 130.289 16.8737 130.72 17.1276C131.161 17.3731 131.592 17.5085 132.015 17.5339C132.329 17.5593 132.485 17.6566 132.485 17.8259C132.485 17.8936 132.434 17.9571 132.333 18.0163C130.979 17.9571 130.162 17.9274 129.883 17.9274C128.461 17.9274 127.504 17.9444 127.013 17.9782C126.743 17.9782 126.607 17.902 126.607 17.7497C126.607 17.6143 126.726 17.5296 126.963 17.4958C127.936 17.3688 128.681 16.7087 129.197 15.5153C129.713 14.322 130.517 12.1765 131.609 9.0788C132.608 6.26044 133.7 3.56057 134.885 0.979187ZM134.377 3.74677C133.59 5.35484 132.671 7.69078 131.622 10.7546C132.494 10.7123 133.12 10.6911 133.501 10.6911L137.068 10.7546C136.755 9.87437 136.315 8.7064 135.748 7.25067C135.054 5.51565 134.597 4.34768 134.377 3.74677ZM154.956 9.42157C156.124 9.92938 156.936 10.4626 157.393 11.0212C157.85 11.5713 158.189 12.4261 158.409 13.5856C158.697 15.1091 159.094 16.1332 159.602 16.6579C160.11 17.1742 160.774 17.4492 161.595 17.4831C161.824 17.5 161.938 17.5847 161.938 17.737C161.938 17.8893 161.807 17.9655 161.545 17.9655C159.175 17.9655 157.736 17.8893 157.228 17.737C156.729 17.5762 156.357 16.7087 156.111 15.1345C155.883 13.6026 155.641 12.4854 155.387 11.7829C155.142 11.072 154.744 10.5303 154.194 10.1579C153.652 9.77704 152.802 9.58661 151.642 9.58661C151.202 9.58661 150.703 9.63316 150.144 9.72626C150.102 10.2595 150.081 10.8138 150.081 11.3893C150.081 13.5645 150.11 14.9737 150.17 15.6169C150.229 16.2516 150.407 16.7171 150.703 17.0134C151.008 17.3011 151.511 17.4535 152.214 17.4704C152.518 17.4789 152.671 17.5508 152.671 17.6862C152.671 17.847 152.484 17.9274 152.112 17.9274H145.828C145.464 17.9274 145.282 17.847 145.282 17.6862C145.282 17.5423 145.426 17.4704 145.714 17.4704C146.357 17.4704 146.801 17.3731 147.047 17.1784C147.301 16.9837 147.499 16.6833 147.643 16.277C147.787 15.8623 147.859 15.1175 147.859 14.0427L147.834 11.4528L147.846 7.50458C147.846 5.49025 147.8 4.15725 147.707 3.50555C147.622 2.85386 147.466 2.41799 147.237 2.19794C147.009 1.96942 146.48 1.79169 145.65 1.66473C145.472 1.63934 145.384 1.5674 145.384 1.44891C145.384 1.3135 145.561 1.24579 145.917 1.24579L153.432 1.08075C155.506 1.08075 157.008 1.47854 157.939 2.27411C158.879 3.06968 159.348 4.04299 159.348 5.19403C159.348 5.9219 159.158 6.58628 158.777 7.18719C158.405 7.78811 157.96 8.22398 157.444 8.49481C156.928 8.76565 156.098 9.07456 154.956 9.42157ZM150.144 9.09149C151.769 9.05764 152.988 8.94338 153.801 8.74872C154.613 8.55406 155.303 8.12665 155.87 7.46649C156.445 6.80634 156.733 6.02346 156.733 5.11786C156.733 4.16148 156.416 3.32782 155.781 2.61688C155.146 1.90594 154.131 1.55048 152.734 1.55048C151.972 1.55048 151.13 1.65204 150.208 1.85516C150.106 4.18264 150.055 6.03615 150.055 7.41571C150.055 7.88967 150.085 8.44826 150.144 9.09149ZM174.595 1.30927C175.45 3.16278 176.246 4.80048 176.982 6.22235C177.871 7.92352 178.561 9.33693 179.052 10.4626C179.551 11.5882 180.131 12.7012 180.791 13.8015C182.543 10.8985 184.574 6.7344 186.885 1.30927L191.937 1.32196C192.115 1.34735 192.204 1.42352 192.204 1.55048C192.204 1.67743 192.102 1.74937 191.899 1.7663C191.002 1.84247 190.401 2.02443 190.096 2.31219C189.8 2.59149 189.614 3.06545 189.538 3.73407C189.47 4.40269 189.402 5.64683 189.335 7.46649C189.267 9.28615 189.233 10.8011 189.233 12.0114C189.233 14.3389 189.25 15.6973 189.284 16.0866C189.318 16.4675 189.462 16.7722 189.716 17.0007C189.969 17.2292 190.465 17.3942 191.201 17.4958C191.413 17.5296 191.518 17.61 191.518 17.737C191.518 17.864 191.387 17.9274 191.125 17.9274L186.186 17.9147H184.891C184.604 17.9147 184.46 17.847 184.46 17.7116C184.46 17.5931 184.557 17.5212 184.752 17.4958C185.463 17.4027 185.932 17.2715 186.161 17.1022C186.398 16.933 186.571 16.6325 186.681 16.2009C186.8 15.7608 186.859 14.6732 186.859 12.9382L187.1 6.84442L187.227 3.83563C187.227 3.60712 187.193 3.49286 187.126 3.49286C187.024 3.49286 186.94 3.56057 186.872 3.69598L184.358 8.65985C182.75 11.8337 181.764 13.8649 181.4 14.7536L180.613 16.6706C180.368 17.2546 180.219 17.5762 180.169 17.6354C180.118 17.6862 180.059 17.7116 179.991 17.7116C179.889 17.7116 179.805 17.6016 179.737 17.3815C179.585 16.8568 178.802 15.1895 177.388 12.3796C176.652 10.7969 175.768 8.98993 174.735 6.95868C173.711 4.92743 173.157 3.86949 173.072 3.78485C172.987 3.69175 172.924 3.6452 172.882 3.6452C172.797 3.6452 172.755 3.751 172.755 3.96259L172.615 11.6559L172.577 14.195C172.577 15.5407 172.759 16.4209 173.123 16.8356C173.495 17.2503 174.024 17.4577 174.71 17.4577C175.15 17.4577 175.37 17.5508 175.37 17.737C175.37 17.8724 175.264 17.9401 175.052 17.9401L174.786 17.9274L173.961 17.9401L172.171 17.9274C171.392 17.9274 170.389 17.9697 169.162 18.0544C169.06 17.9867 169.01 17.919 169.01 17.8513C169.01 17.682 169.158 17.5931 169.454 17.5847C170.3 17.5593 170.922 17.28 171.32 16.7468C171.718 16.2136 171.917 15.0202 171.917 13.1667L171.891 10.9323L172.069 5.2702C172.069 3.94989 171.874 3.04852 171.485 2.5661C171.096 2.07522 170.524 1.78322 169.771 1.69012C169.45 1.64781 169.289 1.55894 169.289 1.42352C169.289 1.27118 169.407 1.19501 169.644 1.19501C169.771 1.19501 169.924 1.19924 170.101 1.2077L174.595 1.30927ZM202.487 9.24384C202.961 8.7191 203.68 7.77118 204.645 6.40009C205.619 5.02899 206.19 4.17841 206.359 3.84833C206.537 3.50979 206.626 3.24318 206.626 3.04852C206.626 2.70152 206.448 2.42645 206.093 2.22333C205.746 2.01174 205.39 1.90594 205.026 1.90594C204.738 1.90594 204.594 1.82977 204.594 1.67743C204.594 1.51662 204.836 1.43622 205.318 1.43622H210.104C210.544 1.43622 210.764 1.52509 210.764 1.70282C210.764 1.8467 210.667 1.91864 210.472 1.91864C209.973 1.91864 209.491 2.0329 209.025 2.26141C208.568 2.48993 208.01 3.00197 207.349 3.79755L205.14 6.78094C203.981 8.33824 203.355 9.2523 203.261 9.52313C203.126 9.92092 203.058 10.9746 203.058 12.6843C203.058 14.9525 203.151 16.2982 203.338 16.7214C203.532 17.1446 204.15 17.4027 205.191 17.4958C205.462 17.5212 205.597 17.6058 205.597 17.7497C205.597 17.919 205.449 18.0036 205.153 18.0036L201.738 17.9274C200.917 17.9274 200.244 17.9444 199.719 17.9782C199.296 18.0121 199.025 18.029 198.907 18.029C198.585 18.029 198.425 17.9444 198.425 17.7751C198.425 17.6397 198.543 17.5677 198.78 17.5593C199.593 17.5254 200.134 17.2207 200.405 16.6452C200.676 16.0697 200.811 15.2191 200.811 14.0934C200.811 12.8578 200.735 11.8591 200.583 11.0974C200.549 10.9027 200.185 10.2129 199.491 9.02802C198.797 7.83466 197.946 6.51858 196.939 5.07977C195.941 3.63251 195.225 2.7523 194.794 2.43915C194.362 2.126 193.943 1.95249 193.537 1.91864C193.232 1.89325 193.08 1.80861 193.08 1.66473C193.08 1.57163 193.118 1.51239 193.194 1.487C193.279 1.45315 193.52 1.43622 193.918 1.43622H199.466C199.846 1.43622 200.075 1.44891 200.151 1.4743C200.227 1.49969 200.265 1.5674 200.265 1.67743C200.265 1.81285 200.16 1.88902 199.948 1.90594C198.882 1.99058 198.348 2.31219 198.348 2.87079C198.348 3.15855 198.543 3.61135 198.932 4.22919C199.322 4.84703 200.507 6.51858 202.487 9.24384ZM217.379 0.979187H217.963C218.911 2.91734 220.218 6.23081 221.885 10.9196C222.96 13.9242 223.697 15.7692 224.094 16.4548C224.492 17.1319 225.131 17.5085 226.011 17.5847C226.291 17.61 226.43 17.7031 226.43 17.864C226.43 17.9824 226.358 18.0417 226.215 18.0417L226.037 18.029C225.258 17.9613 224.268 17.9274 223.066 17.9274C221.221 17.9274 220.036 17.9571 219.511 18.0163C219.249 18.0163 219.118 17.9401 219.118 17.7878C219.118 17.6778 219.215 17.61 219.41 17.5847C220.129 17.5169 220.624 17.3942 220.895 17.2165C221.175 17.0388 221.314 16.7595 221.314 16.3786C221.314 16.0147 221.056 15.1048 220.54 13.6491L219.791 11.4655C219.351 11.4655 217.383 11.4909 213.887 11.5417C213.007 13.8861 212.567 15.363 212.567 15.9724C212.567 16.4886 212.783 16.8737 213.215 17.1276C213.655 17.3731 214.086 17.5085 214.51 17.5339C214.823 17.5593 214.979 17.6566 214.979 17.8259C214.979 17.8936 214.928 17.9571 214.827 18.0163C213.473 17.9571 212.656 17.9274 212.377 17.9274C210.955 17.9274 209.998 17.9444 209.508 17.9782C209.237 17.9782 209.101 17.902 209.101 17.7497C209.101 17.6143 209.22 17.5296 209.457 17.4958C210.43 17.3688 211.175 16.7087 211.691 15.5153C212.207 14.322 213.011 12.1765 214.103 9.0788C215.102 6.26044 216.194 3.56057 217.379 0.979187ZM216.871 3.74677C216.084 5.35484 215.165 7.69078 214.116 10.7546C214.988 10.7123 215.614 10.6911 215.995 10.6911L219.562 10.7546C219.249 9.87437 218.809 8.7064 218.242 7.25067C217.548 5.51565 217.091 4.34768 216.871 3.74677ZM234.251 9.24384C234.725 8.7191 235.444 7.77118 236.409 6.40009C237.382 5.02899 237.954 4.17841 238.123 3.84833C238.301 3.50979 238.389 3.24318 238.389 3.04852C238.389 2.70152 238.212 2.42645 237.856 2.22333C237.509 2.01174 237.154 1.90594 236.79 1.90594C236.502 1.90594 236.358 1.82977 236.358 1.67743C236.358 1.51662 236.599 1.43622 237.082 1.43622H241.868C242.308 1.43622 242.528 1.52509 242.528 1.70282C242.528 1.8467 242.431 1.91864 242.236 1.91864C241.737 1.91864 241.254 2.0329 240.789 2.26141C240.332 2.48993 239.773 3.00197 239.113 3.79755L236.904 6.78094C235.745 8.33824 235.118 9.2523 235.025 9.52313C234.89 9.92092 234.822 10.9746 234.822 12.6843C234.822 14.9525 234.915 16.2982 235.101 16.7214C235.296 17.1446 235.914 17.4027 236.955 17.4958C237.226 17.5212 237.361 17.6058 237.361 17.7497C237.361 17.919 237.213 18.0036 236.917 18.0036L233.502 17.9274C232.681 17.9274 232.008 17.9444 231.483 17.9782C231.06 18.0121 230.789 18.029 230.671 18.029C230.349 18.029 230.188 17.9444 230.188 17.7751C230.188 17.6397 230.307 17.5677 230.544 17.5593C231.356 17.5254 231.898 17.2207 232.169 16.6452C232.44 16.0697 232.575 15.2191 232.575 14.0934C232.575 12.8578 232.499 11.8591 232.346 11.0974C232.313 10.9027 231.949 10.2129 231.255 9.02802C230.561 7.83466 229.71 6.51858 228.703 5.07977C227.704 3.63251 226.989 2.7523 226.557 2.43915C226.126 2.126 225.707 1.95249 225.301 1.91864C224.996 1.89325 224.844 1.80861 224.844 1.66473C224.844 1.57163 224.882 1.51239 224.958 1.487C225.042 1.45315 225.284 1.43622 225.681 1.43622H231.229C231.61 1.43622 231.839 1.44891 231.915 1.4743C231.991 1.49969 232.029 1.5674 232.029 1.67743C232.029 1.81285 231.923 1.88902 231.712 1.90594C230.645 1.99058 230.112 2.31219 230.112 2.87079C230.112 3.15855 230.307 3.61135 230.696 4.22919C231.085 4.84703 232.27 6.51858 234.251 9.24384ZM93.363 52.7048C93.878 52.4587 94.2813 52.0895 94.573 51.5974C94.8647 51.1052 95.0105 50.5287 95.0105 49.8679C95.0105 49.6537 94.9854 49.4554 94.9353 49.2731C94.8897 49.0908 94.8191 48.9336 94.7234 48.8015C94.6277 48.6693 94.5092 48.5668 94.3679 48.4938C94.2266 48.4164 94.0649 48.3776 93.8826 48.3776C93.5909 48.3776 93.2992 48.4391 93.0076 48.5622C92.7159 48.6852 92.4288 48.8561 92.1462 49.0749C91.8637 49.2936 91.5903 49.5534 91.3259 49.8542C91.0662 50.1504 90.8201 50.474 90.5876 50.8249C90.3598 51.1758 90.1501 51.5449 89.9587 51.9323C89.7673 52.3197 89.6033 52.7116 89.4666 53.1081C89.3298 53.5046 89.2227 53.8965 89.1453 54.2839C89.0723 54.6712 89.0359 55.0427 89.0359 55.3981C89.0359 55.7901 89.0769 56.125 89.1589 56.403C89.241 56.681 89.3549 56.9112 89.5007 57.0934C89.6466 57.2757 89.8197 57.4102 90.0203 57.4968C90.2208 57.5788 90.4418 57.6198 90.6833 57.6198C90.7289 57.6198 90.8223 57.6153 90.9636 57.6061C91.1095 57.5925 91.2849 57.5537 91.49 57.4899C91.6996 57.4261 91.932 57.3281 92.1873 57.196C92.4425 57.0638 92.7045 56.8747 92.9734 56.6286L93.1443 56.8747C92.8526 57.1572 92.561 57.3783 92.2693 57.5378C91.9822 57.6973 91.7156 57.8158 91.4695 57.8932C91.2279 57.9662 91.016 58.0095 90.8337 58.0231C90.656 58.0414 90.533 58.0505 90.4646 58.0505C90.2139 58.0505 89.9473 58.0095 89.6648 57.9274C89.3868 57.8454 89.1293 57.7064 88.8923 57.5104C88.6554 57.3099 88.4571 57.0433 88.2976 56.7106C88.1427 56.3734 88.0652 55.9518 88.0652 55.446C88.0652 54.9675 88.1153 54.4958 88.2156 54.0309C88.3204 53.5661 88.4639 53.1172 88.6462 52.6843C88.8331 52.2513 89.0496 51.8389 89.2957 51.447C89.5463 51.0505 89.8152 50.6836 90.1023 50.3464C90.394 50.0091 90.6993 49.7038 91.0183 49.4304C91.3373 49.1569 91.6563 48.9245 91.9753 48.7331C92.2944 48.5371 92.6088 48.3867 92.9187 48.2819C93.2286 48.1771 93.5203 48.1247 93.7937 48.1247C94.0854 48.1247 94.352 48.168 94.5935 48.2546C94.835 48.3412 95.0424 48.4642 95.2156 48.6237C95.3933 48.7832 95.53 48.9746 95.6257 49.1979C95.726 49.4167 95.7761 49.6605 95.7761 49.9294C95.7761 50.2302 95.7146 50.5355 95.5916 50.8454C95.4685 51.1507 95.3022 51.4378 95.0925 51.7067C94.8829 51.971 94.6391 52.208 94.3611 52.4177C94.0876 52.6273 93.8005 52.7845 93.4998 52.8893L93.363 52.7048ZM95.5574 56.7653C95.5391 56.8109 95.5232 56.8565 95.5095 56.902C95.4958 56.9431 95.489 56.9795 95.489 57.0114C95.489 57.0661 95.5004 57.1026 95.5232 57.1208C95.5505 57.139 95.5847 57.1481 95.6257 57.1481C95.6895 57.1481 95.767 57.1162 95.8582 57.0524C95.9493 56.9886 96.045 56.8952 96.1453 56.7722L97.3962 55.2272L97.5671 55.364L96.0564 57.2302C95.947 57.3669 95.8468 57.4808 95.7556 57.572C95.669 57.6631 95.5847 57.736 95.5027 57.7907C95.4252 57.8408 95.3455 57.8773 95.2634 57.9001C95.186 57.9229 95.1039 57.9343 95.0173 57.9343C94.8806 57.9343 94.7667 57.8955 94.6755 57.8181C94.5844 57.736 94.5388 57.6335 94.5388 57.5104C94.5388 57.3965 94.5684 57.2621 94.6277 57.1071C94.6824 56.9522 94.7553 56.763 94.8464 56.5397L96.1384 53.4567C96.0655 53.5707 95.9812 53.6983 95.8855 53.8395C95.7898 53.9808 95.6736 54.1403 95.5369 54.3181C95.4047 54.4958 95.2543 54.6963 95.0857 54.9196C94.9125 55.1384 94.7143 55.3845 94.491 55.6579L94.3201 55.5212C94.6345 55.1338 94.908 54.7875 95.1404 54.4821C95.3728 54.1722 95.5733 53.8942 95.7419 53.6481C95.9106 53.402 96.0541 53.181 96.1726 52.985C96.2911 52.7891 96.3959 52.6045 96.4871 52.4313C96.5782 52.2582 96.6602 52.0941 96.7332 51.9391C96.8106 51.7796 96.8927 51.6156 96.9792 51.447L97.7585 49.5944H98.5789L95.5574 56.7653ZM100.356 56.7653C100.338 56.8063 100.322 56.8496 100.308 56.8952C100.295 56.9408 100.288 56.9795 100.288 57.0114C100.288 57.0661 100.299 57.1026 100.322 57.1208C100.349 57.139 100.384 57.1481 100.425 57.1481C100.488 57.1481 100.566 57.1162 100.657 57.0524C100.748 56.9886 100.844 56.8952 100.944 56.7722L102.195 55.2272L102.366 55.364L100.855 57.2302C100.746 57.3669 100.643 57.4808 100.548 57.572C100.452 57.6631 100.361 57.736 100.274 57.7907C100.192 57.8408 100.108 57.8773 100.021 57.9001C99.9392 57.9229 99.8549 57.9343 99.7683 57.9343C99.6316 57.9343 99.5177 57.8955 99.4265 57.8181C99.3354 57.736 99.2898 57.6335 99.2898 57.5104C99.2898 57.3737 99.3149 57.2324 99.365 57.0866C99.4197 56.9408 99.4972 56.7585 99.5974 56.5397C99.6339 56.4623 99.6772 56.362 99.7273 56.239C99.782 56.1113 99.8389 55.9792 99.8982 55.8425C99.9574 55.7012 100.017 55.5599 100.076 55.4186C100.135 55.2774 100.188 55.1498 100.233 55.0358C100.279 54.9173 100.315 54.8194 100.343 54.7419C100.374 54.6644 100.39 54.6188 100.39 54.6052C100.39 54.5596 100.374 54.5368 100.343 54.5368C100.302 54.5368 100.258 54.571 100.213 54.6393C100.185 54.6758 100.131 54.7533 100.049 54.8718C99.9666 54.9903 99.8663 55.1315 99.7478 55.2956C99.6293 55.4597 99.5017 55.6374 99.365 55.8288C99.2283 56.0202 99.0916 56.2071 98.9548 56.3893C98.8181 56.5716 98.6882 56.738 98.5652 56.8884C98.4421 57.0388 98.3373 57.1572 98.2507 57.2438C98.032 57.4626 97.8383 57.6358 97.6697 57.7634C97.5011 57.8864 97.3347 57.9479 97.1707 57.9479C97.116 57.9479 97.0567 57.9365 96.9929 57.9138C96.9246 57.891 96.863 57.8522 96.8083 57.7975C96.7491 57.7383 96.7013 57.6585 96.6648 57.5583C96.6283 57.4535 96.6101 57.3213 96.6101 57.1618C96.6101 56.9248 96.6648 56.6628 96.7742 56.3757C96.879 56.0886 97.0248 55.7969 97.2117 55.5007C97.3985 55.1999 97.6195 54.9059 97.8748 54.6188C98.13 54.3317 98.4057 54.0742 98.7019 53.8464C99.0027 53.614 99.3171 53.4203 99.6453 53.2653C99.9734 53.1104 100.306 53.0169 100.643 52.985V53.1081C100.365 53.1901 100.099 53.3177 99.8435 53.4909C99.5883 53.6595 99.349 53.8555 99.1257 54.0788C98.9024 54.3021 98.6996 54.5414 98.5173 54.7966C98.335 55.0472 98.1778 55.2956 98.0457 55.5417C97.9135 55.7878 97.8132 56.0225 97.7449 56.2458C97.672 56.4645 97.6355 56.6491 97.6355 56.7995C97.6355 56.8815 97.6492 56.9499 97.6765 57.0046C97.6993 57.0593 97.7335 57.0866 97.7791 57.0866C97.8292 57.0866 97.9044 57.0456 98.0046 56.9636C98.1003 56.8815 98.212 56.7722 98.3396 56.6354C98.4672 56.4942 98.6062 56.3347 98.7566 56.1569C98.907 55.9746 99.0597 55.7855 99.2146 55.5895C99.3695 55.3936 99.5222 55.1953 99.6726 54.9948C99.8276 54.7943 99.9711 54.6052 100.103 54.4274C100.304 54.154 100.47 53.9284 100.602 53.7507C100.734 53.5729 100.848 53.4317 100.944 53.3268C101.04 53.2175 101.126 53.1423 101.204 53.1013C101.281 53.0602 101.366 53.0397 101.457 53.0397C101.552 53.0397 101.619 53.0648 101.655 53.1149C101.691 53.1651 101.71 53.2266 101.71 53.2995C101.71 53.3587 101.701 53.4203 101.682 53.4841C101.669 53.5479 101.65 53.6048 101.628 53.655C101.609 53.696 101.568 53.794 101.505 53.9489C101.445 54.0993 101.372 54.2816 101.286 54.4958C101.199 54.7054 101.106 54.931 101.006 55.1725C100.91 55.4141 100.816 55.6442 100.725 55.863C100.639 56.0772 100.561 56.2686 100.493 56.4372C100.425 56.6013 100.379 56.7106 100.356 56.7653ZM107.732 55.4323C107.504 55.7149 107.286 55.9724 107.076 56.2048C106.871 56.4372 106.666 56.6559 106.461 56.861C106.26 57.0615 106.055 57.2552 105.845 57.4421C105.636 57.6244 105.419 57.8089 105.196 57.9958L103.815 61.1882L102.783 61.4684C103.325 60.2608 103.815 59.1693 104.253 58.194C104.44 57.7793 104.622 57.3714 104.8 56.9704C104.982 56.5648 105.146 56.2002 105.292 55.8766C105.442 55.5485 105.565 55.2751 105.661 55.0563C105.757 54.8376 105.814 54.7077 105.832 54.6667C105.841 54.6439 105.845 54.6166 105.845 54.5847C105.85 54.5528 105.834 54.5368 105.798 54.5368C105.757 54.5368 105.713 54.571 105.668 54.6393C105.381 55.0768 105.13 55.4961 104.916 55.8972C104.702 56.2936 104.497 56.6446 104.301 56.9499C104.105 57.2507 103.906 57.4899 103.706 57.6677C103.51 57.8454 103.287 57.9343 103.036 57.9343C102.885 57.9343 102.758 57.8796 102.653 57.7702C102.544 57.6563 102.489 57.4968 102.489 57.2917C102.489 57.2097 102.498 57.1253 102.516 57.0388C102.53 56.9522 102.548 56.8724 102.571 56.7995C102.594 56.722 102.617 56.6537 102.639 56.5944C102.658 56.5352 102.674 56.4919 102.687 56.4645L103.713 54.0104C103.726 53.9785 103.733 53.9535 103.733 53.9352C103.733 53.9079 103.724 53.8897 103.706 53.8806C103.692 53.8669 103.674 53.86 103.651 53.86C103.606 53.86 103.565 53.8851 103.528 53.9352L102.175 55.61L102.004 55.4733L103.542 53.5729C103.66 53.4271 103.783 53.2995 103.911 53.1901C104.043 53.0762 104.18 53.0192 104.321 53.0192C104.453 53.0192 104.549 53.0557 104.608 53.1286C104.667 53.197 104.697 53.2744 104.697 53.361C104.697 53.4476 104.681 53.5456 104.649 53.655C104.617 53.7643 104.576 53.8783 104.526 53.9968L103.501 56.4304C103.451 56.5397 103.41 56.6537 103.378 56.7722C103.346 56.8861 103.33 56.9818 103.33 57.0593C103.33 57.1641 103.357 57.2302 103.412 57.2575C103.467 57.2803 103.526 57.2917 103.59 57.2917C103.658 57.2917 103.738 57.2438 103.829 57.1481C103.92 57.0479 104.018 56.918 104.123 56.7585C104.232 56.599 104.346 56.4144 104.465 56.2048C104.588 55.9951 104.711 55.7809 104.834 55.5622C104.957 55.3389 105.08 55.1179 105.203 54.8991C105.326 54.6758 105.447 54.4707 105.565 54.2839C105.725 54.0287 105.857 53.819 105.962 53.655C106.071 53.4863 106.171 53.3519 106.262 53.2516C106.354 53.1514 106.442 53.083 106.529 53.0466C106.62 53.0056 106.73 52.985 106.857 52.985C106.953 52.985 107.03 53.0101 107.09 53.0602C107.149 53.1104 107.178 53.1719 107.178 53.2448C107.178 53.3041 107.169 53.3656 107.151 53.4294C107.137 53.4932 107.119 53.5502 107.096 53.6003L105.401 57.5173C105.711 57.2575 106.044 56.9499 106.399 56.5944C106.759 56.2344 107.147 55.8015 107.561 55.2956L107.732 55.4323ZM110.87 57.9274L112.094 55.0085H111.711C111.606 55.0085 111.506 55.0085 111.41 55.0085C111.314 55.0039 111.228 55.0016 111.15 55.0016L111.54 54.3386C111.686 54.3477 111.827 54.3522 111.964 54.3522C112.1 54.3522 112.235 54.3522 112.367 54.3522L113.659 51.2897C113.869 50.793 114.117 50.3487 114.404 49.9567C114.691 49.5602 115.003 49.2253 115.341 48.9518C115.682 48.6784 116.04 48.471 116.414 48.3298C116.792 48.1839 117.175 48.111 117.562 48.111C117.799 48.111 118.041 48.1498 118.287 48.2272C118.533 48.3047 118.754 48.4232 118.95 48.5827C119.15 48.7422 119.312 48.9427 119.435 49.1843C119.563 49.4212 119.627 49.7038 119.627 50.0319C119.627 50.4147 119.549 50.7884 119.394 51.153C119.239 51.5176 119.023 51.8662 118.745 52.1989C118.471 52.5316 118.146 52.846 117.767 53.1423C117.389 53.4339 116.979 53.7028 116.537 53.9489C116.222 54.1266 115.908 54.277 115.594 54.4001C115.284 54.5186 114.978 54.6166 114.677 54.694C114.377 54.7715 114.085 54.833 113.802 54.8786C113.52 54.9242 113.249 54.9561 112.989 54.9743L111.752 57.9274H110.87ZM113.249 54.3386C113.622 54.3249 113.964 54.2998 114.274 54.2634C114.589 54.2224 114.876 54.1745 115.135 54.1198C115.4 54.0606 115.644 53.9899 115.867 53.9079C116.09 53.8259 116.3 53.7324 116.496 53.6276C116.856 53.4362 117.175 53.1947 117.453 52.903C117.731 52.6068 117.963 52.2901 118.15 51.9528C118.337 51.6156 118.478 51.2715 118.574 50.9206C118.67 50.5697 118.718 50.2393 118.718 49.9294C118.718 49.6377 118.679 49.3916 118.601 49.1911C118.528 48.9906 118.43 48.8288 118.307 48.7057C118.189 48.5827 118.052 48.4961 117.897 48.446C117.742 48.3913 117.585 48.364 117.426 48.364C117.248 48.364 117.04 48.4118 116.803 48.5075C116.566 48.6032 116.318 48.765 116.058 48.9929C115.799 49.2162 115.537 49.5147 115.272 49.8884C115.008 50.2621 114.76 50.7292 114.527 51.2897L113.249 54.3386ZM122.669 55.4528C122.523 55.6397 122.386 55.7969 122.259 55.9245C122.131 56.0521 122.006 56.1569 121.883 56.239C121.76 56.321 121.639 56.3825 121.52 56.4235C121.406 56.4645 121.29 56.4919 121.172 56.5056C121.035 56.7061 120.882 56.8952 120.714 57.0729C120.55 57.2461 120.374 57.3988 120.187 57.5309C120.005 57.6585 119.811 57.7611 119.606 57.8386C119.401 57.9115 119.194 57.9479 118.984 57.9479C118.816 57.9479 118.651 57.9206 118.492 57.8659C118.332 57.8067 118.191 57.7201 118.068 57.6061C117.941 57.4877 117.84 57.3418 117.767 57.1686C117.69 56.9909 117.651 56.7835 117.651 56.5466C117.651 56.1774 117.717 55.8128 117.849 55.4528C117.982 55.0882 118.166 54.7487 118.403 54.4343C118.64 54.1198 118.925 53.8373 119.258 53.5866C119.59 53.336 119.957 53.1354 120.358 52.985L120.42 53.0807C120.069 53.3861 119.766 53.7119 119.51 54.0583C119.26 54.4046 119.052 54.7533 118.888 55.1042C118.724 55.4505 118.604 55.7878 118.526 56.1159C118.444 56.444 118.403 56.7425 118.403 57.0114C118.403 57.098 118.412 57.1823 118.43 57.2643C118.449 57.3418 118.478 57.4125 118.519 57.4763C118.556 57.5355 118.601 57.5834 118.656 57.6198C118.711 57.6563 118.777 57.6745 118.854 57.6745C118.955 57.6745 119.064 57.6403 119.182 57.572C119.305 57.5036 119.431 57.4125 119.558 57.2985C119.686 57.18 119.814 57.041 119.941 56.8815C120.073 56.722 120.201 56.5511 120.324 56.3688C120.105 56.2503 119.948 56.0817 119.852 55.863C119.757 55.6397 119.709 55.3981 119.709 55.1384C119.709 54.8968 119.752 54.6621 119.839 54.4343C119.925 54.2018 120.037 53.9968 120.174 53.819C120.31 53.6413 120.461 53.5 120.625 53.3952C120.789 53.2858 120.948 53.2311 121.103 53.2311C121.185 53.2311 121.274 53.2494 121.37 53.2858C121.466 53.3223 121.554 53.3838 121.636 53.4704C121.719 53.557 121.787 53.6732 121.842 53.819C121.896 53.9649 121.924 54.1472 121.924 54.3659C121.924 54.6576 121.871 54.9675 121.766 55.2956C121.662 55.6192 121.518 55.9382 121.336 56.2526C121.418 56.2344 121.5 56.2048 121.582 56.1638C121.668 56.1227 121.757 56.0658 121.848 55.9929C121.944 55.9199 122.044 55.8288 122.149 55.7194C122.259 55.6055 122.377 55.4688 122.505 55.3093L122.669 55.4528ZM119.962 55.1179C119.962 55.364 120 55.5781 120.078 55.7604C120.16 55.9427 120.285 56.0794 120.454 56.1706C120.577 55.9746 120.691 55.7718 120.796 55.5622C120.9 55.3526 120.992 55.1475 121.069 54.947C121.147 54.7419 121.208 54.5482 121.254 54.3659C121.299 54.1791 121.322 54.0127 121.322 53.8669C121.322 53.794 121.311 53.7347 121.288 53.6891C121.265 53.6436 121.235 53.6094 121.199 53.5866C121.167 53.5593 121.131 53.541 121.09 53.5319C121.053 53.5228 121.021 53.5182 120.994 53.5182C120.907 53.5182 120.805 53.5638 120.686 53.655C120.568 53.7416 120.454 53.86 120.344 54.0104C120.24 54.1563 120.149 54.3272 120.071 54.5231C119.998 54.7145 119.962 54.9128 119.962 55.1179ZM125.8 51.4811H127.734L127.604 51.7614H125.683L123.571 56.7653C123.553 56.8109 123.535 56.8633 123.516 56.9225C123.498 56.9772 123.489 57.0296 123.489 57.0798C123.489 57.1345 123.505 57.18 123.537 57.2165C123.569 57.2484 123.614 57.2643 123.674 57.2643C123.778 57.2643 123.895 57.2142 124.022 57.114C124.15 57.0091 124.264 56.8952 124.364 56.7722L125.615 55.2272L125.786 55.364L124.344 57.1481C124.12 57.4216 123.908 57.6221 123.708 57.7497C123.507 57.8727 123.318 57.9343 123.14 57.9343C123.072 57.9343 123.004 57.9252 122.935 57.9069C122.867 57.8841 122.805 57.8545 122.751 57.8181C122.696 57.777 122.653 57.7269 122.621 57.6677C122.584 57.6039 122.566 57.5309 122.566 57.4489C122.566 57.335 122.594 57.2119 122.648 57.0798C122.698 56.9431 122.769 56.763 122.86 56.5397L124.152 53.4567C124.079 53.5707 123.995 53.6983 123.899 53.8395C123.803 53.9808 123.69 54.1403 123.557 54.3181C123.425 54.4958 123.273 54.6963 123.099 54.9196C122.926 55.1384 122.728 55.3845 122.505 55.6579L122.334 55.5212C122.758 55.0016 123.106 54.555 123.38 54.1813C123.653 53.8031 123.879 53.4727 124.056 53.1901C124.239 52.903 124.387 52.6478 124.501 52.4245C124.619 52.2012 124.731 51.9802 124.836 51.7614H123.175L123.304 51.4811H124.979L125.519 50.2028H126.34L125.8 51.4811ZM133.08 55.4391C132.765 55.8402 132.476 56.182 132.212 56.4645C131.952 56.7425 131.713 56.975 131.494 57.1618C131.28 57.3441 131.086 57.4877 130.913 57.5925C130.74 57.6927 130.585 57.7679 130.448 57.8181C130.311 57.8682 130.191 57.9001 130.086 57.9138C129.981 57.9229 129.89 57.9274 129.812 57.9274C129.78 57.9274 129.728 57.9252 129.655 57.9206C129.582 57.9115 129.498 57.8932 129.402 57.8659C129.306 57.8386 129.208 57.7998 129.108 57.7497C129.008 57.695 128.917 57.6221 128.835 57.5309C128.753 57.4398 128.684 57.3259 128.63 57.1891C128.575 57.0524 128.548 56.8861 128.548 56.6901C128.548 56.3255 128.614 55.9815 128.746 55.6579C128.878 55.3343 129.049 55.0358 129.259 54.7624C129.464 54.489 129.696 54.2451 129.956 54.0309C130.216 53.8122 130.475 53.6276 130.735 53.4772C130.995 53.3268 131.239 53.2129 131.467 53.1354C131.694 53.0534 131.884 53.0124 132.034 53.0124C132.116 53.0124 132.198 53.0261 132.28 53.0534C132.362 53.0762 132.435 53.1149 132.499 53.1696C132.567 53.2243 132.622 53.2949 132.663 53.3815C132.704 53.4681 132.724 53.5729 132.724 53.696C132.724 53.7735 132.718 53.8487 132.704 53.9216C132.686 54.0127 132.629 54.1061 132.533 54.2018C132.437 54.293 132.326 54.3773 132.198 54.4548C132.075 54.5277 131.947 54.5892 131.815 54.6393C131.688 54.6849 131.58 54.7077 131.494 54.7077C131.658 54.4935 131.788 54.2839 131.884 54.0788C131.984 53.8692 132.034 53.696 132.034 53.5593C132.034 53.4772 132.013 53.4112 131.972 53.361C131.936 53.3063 131.877 53.279 131.795 53.279C131.649 53.279 131.487 53.3451 131.309 53.4772C131.132 53.6048 130.952 53.7735 130.769 53.9831C130.592 54.1927 130.416 54.432 130.243 54.7009C130.07 54.9697 129.917 55.2432 129.785 55.5212C129.653 55.7992 129.546 56.0703 129.464 56.3347C129.382 56.599 129.341 56.8314 129.341 57.0319C129.341 57.1504 129.354 57.2507 129.382 57.3327C129.409 57.4102 129.45 57.474 129.505 57.5241C129.555 57.5697 129.614 57.6039 129.682 57.6266C129.751 57.6449 129.826 57.654 129.908 57.654C130.072 57.654 130.25 57.6175 130.441 57.5446C130.637 57.4717 130.856 57.3464 131.097 57.1686C131.344 56.9909 131.615 56.7516 131.911 56.4509C132.207 56.1455 132.54 55.7627 132.909 55.3024L133.08 55.4391ZM135.93 56.7653C135.912 56.8063 135.896 56.8496 135.883 56.8952C135.869 56.9408 135.862 56.9795 135.862 57.0114C135.862 57.0661 135.873 57.1026 135.896 57.1208C135.924 57.139 135.958 57.1481 135.999 57.1481C136.063 57.1481 136.14 57.1162 136.231 57.0524C136.322 56.9886 136.418 56.8952 136.518 56.7722L137.769 55.2272L137.94 55.364L136.429 57.2302C136.32 57.3669 136.218 57.4808 136.122 57.572C136.026 57.6631 135.935 57.736 135.848 57.7907C135.766 57.8408 135.682 57.8773 135.595 57.9001C135.513 57.9229 135.429 57.9343 135.343 57.9343C135.206 57.9343 135.092 57.8955 135.001 57.8181C134.91 57.736 134.864 57.6335 134.864 57.5104C134.864 57.3737 134.889 57.2324 134.939 57.0866C134.994 56.9408 135.071 56.7585 135.172 56.5397C135.208 56.4623 135.251 56.362 135.302 56.239C135.356 56.1113 135.413 55.9792 135.472 55.8425C135.532 55.7012 135.591 55.5599 135.65 55.4186C135.709 55.2774 135.762 55.1498 135.807 55.0358C135.853 54.9173 135.889 54.8194 135.917 54.7419C135.949 54.6644 135.965 54.6188 135.965 54.6052C135.965 54.5596 135.949 54.5368 135.917 54.5368C135.876 54.5368 135.832 54.571 135.787 54.6393C135.76 54.6758 135.705 54.7533 135.623 54.8718C135.541 54.9903 135.441 55.1315 135.322 55.2956C135.204 55.4597 135.076 55.6374 134.939 55.8288C134.802 56.0202 134.666 56.2071 134.529 56.3893C134.392 56.5716 134.262 56.738 134.139 56.8884C134.016 57.0388 133.912 57.1572 133.825 57.2438C133.606 57.4626 133.413 57.6358 133.244 57.7634C133.075 57.8864 132.909 57.9479 132.745 57.9479C132.69 57.9479 132.631 57.9365 132.567 57.9138C132.499 57.891 132.437 57.8522 132.383 57.7975C132.323 57.7383 132.275 57.6585 132.239 57.5583C132.203 57.4535 132.184 57.3213 132.184 57.1618C132.184 56.9248 132.239 56.6628 132.348 56.3757C132.453 56.0886 132.599 55.7969 132.786 55.5007C132.973 55.1999 133.194 54.9059 133.449 54.6188C133.704 54.3317 133.98 54.0742 134.276 53.8464C134.577 53.614 134.891 53.4203 135.219 53.2653C135.548 53.1104 135.88 53.0169 136.218 52.985V53.1081C135.94 53.1901 135.673 53.3177 135.418 53.4909C135.163 53.6595 134.923 53.8555 134.7 54.0788C134.477 54.3021 134.274 54.5414 134.092 54.7966C133.909 55.0472 133.752 55.2956 133.62 55.5417C133.488 55.7878 133.387 56.0225 133.319 56.2458C133.246 56.4645 133.21 56.6491 133.21 56.7995C133.21 56.8815 133.223 56.9499 133.251 57.0046C133.274 57.0593 133.308 57.0866 133.353 57.0866C133.403 57.0866 133.479 57.0456 133.579 56.9636C133.675 56.8815 133.786 56.7722 133.914 56.6354C134.041 56.4942 134.18 56.3347 134.331 56.1569C134.481 55.9746 134.634 55.7855 134.789 55.5895C134.944 55.3936 135.096 55.1953 135.247 54.9948C135.402 54.7943 135.545 54.6052 135.677 54.4274C135.878 54.154 136.044 53.9284 136.177 53.7507C136.309 53.5729 136.423 53.4317 136.518 53.3268C136.614 53.2175 136.701 53.1423 136.778 53.1013C136.856 53.0602 136.94 53.0397 137.031 53.0397C137.127 53.0397 137.193 53.0648 137.229 53.1149C137.266 53.1651 137.284 53.2266 137.284 53.2995C137.284 53.3587 137.275 53.4203 137.257 53.4841C137.243 53.5479 137.225 53.6048 137.202 53.655C137.184 53.696 137.143 53.794 137.079 53.9489C137.02 54.0993 136.947 54.2816 136.86 54.4958C136.774 54.7054 136.68 54.931 136.58 55.1725C136.484 55.4141 136.391 55.6442 136.3 55.863C136.213 56.0772 136.135 56.2686 136.067 56.4372C135.999 56.6013 135.953 56.7106 135.93 56.7653ZM139.287 54.0104C139.301 53.9785 139.307 53.9535 139.307 53.9352C139.307 53.9079 139.298 53.8897 139.28 53.8806C139.266 53.8669 139.248 53.86 139.225 53.86C139.18 53.86 139.139 53.8851 139.102 53.9352L137.749 55.61L137.578 55.4733L139.116 53.5729C139.234 53.4271 139.358 53.2995 139.485 53.1901C139.617 53.0762 139.754 53.0192 139.895 53.0192C140.027 53.0192 140.123 53.0557 140.182 53.1286C140.242 53.197 140.271 53.2744 140.271 53.361C140.271 53.4476 140.255 53.5456 140.223 53.655C140.191 53.7643 140.15 53.8783 140.1 53.9968L139.15 56.2321C139.123 56.2959 139.109 56.346 139.109 56.3825C139.109 56.4281 139.127 56.4509 139.164 56.4509C139.214 56.4509 139.269 56.4053 139.328 56.3141L140.757 54.1882C140.902 53.9694 141.032 53.7849 141.146 53.6345C141.265 53.4795 141.374 53.3542 141.474 53.2585C141.579 53.1628 141.677 53.0944 141.768 53.0534C141.864 53.0078 141.962 52.985 142.062 52.985C142.235 52.985 142.368 53.0192 142.459 53.0876C142.55 53.1559 142.595 53.2562 142.595 53.3884C142.595 53.4658 142.584 53.5479 142.561 53.6345C142.538 53.7165 142.516 53.7894 142.493 53.8532L141.303 56.7653C141.285 56.8109 141.269 56.8565 141.256 56.902C141.242 56.9431 141.235 56.9795 141.235 57.0114C141.235 57.0661 141.247 57.1026 141.269 57.1208C141.297 57.139 141.331 57.1481 141.372 57.1481C141.436 57.1481 141.513 57.1162 141.604 57.0524C141.695 56.9886 141.791 56.8952 141.891 56.7722L143.142 55.2272L143.313 55.364L141.802 57.2302C141.693 57.3669 141.591 57.4808 141.495 57.572C141.399 57.6631 141.308 57.736 141.221 57.7907C141.139 57.8408 141.055 57.8773 140.969 57.9001C140.886 57.9229 140.802 57.9343 140.716 57.9343C140.579 57.9343 140.465 57.8955 140.374 57.8181C140.283 57.736 140.237 57.6335 140.237 57.5104C140.237 57.3965 140.264 57.2621 140.319 57.1071C140.374 56.9522 140.449 56.763 140.545 56.5397L141.652 53.9216C141.666 53.8897 141.673 53.8555 141.673 53.819C141.673 53.7279 141.629 53.6823 141.543 53.6823C141.506 53.6823 141.465 53.6937 141.42 53.7165C141.379 53.7393 141.335 53.7849 141.29 53.8532L139.034 57.2028C138.856 57.4671 138.699 57.6563 138.562 57.7702C138.43 57.8796 138.3 57.9343 138.173 57.9343C137.963 57.9343 137.858 57.834 137.858 57.6335C137.858 57.5287 137.885 57.3988 137.94 57.2438C137.99 57.0889 138.061 56.902 138.152 56.6833L139.287 54.0104ZM146.116 56.7653C146.098 56.8063 146.082 56.8496 146.068 56.8952C146.054 56.9408 146.048 56.9795 146.048 57.0114C146.048 57.0661 146.059 57.1026 146.082 57.1208C146.109 57.139 146.143 57.1481 146.184 57.1481C146.248 57.1481 146.326 57.1162 146.417 57.0524C146.508 56.9886 146.604 56.8952 146.704 56.7722L147.955 55.2272L148.126 55.364L146.615 57.2302C146.506 57.3669 146.403 57.4808 146.307 57.572C146.212 57.6631 146.121 57.736 146.034 57.7907C145.952 57.8408 145.868 57.8773 145.781 57.9001C145.699 57.9229 145.615 57.9343 145.528 57.9343C145.391 57.9343 145.277 57.8955 145.186 57.8181C145.095 57.736 145.05 57.6335 145.05 57.5104C145.05 57.3737 145.077 57.2324 145.132 57.0866C145.186 56.9408 145.261 56.7585 145.357 56.5397C145.403 56.4304 145.462 56.2914 145.535 56.1227C145.608 55.9541 145.681 55.7832 145.754 55.61C145.831 55.4323 145.902 55.266 145.966 55.111C146.034 54.9515 146.086 54.8307 146.123 54.7487C146.141 54.7077 146.15 54.669 146.15 54.6325C146.15 54.5869 146.134 54.5641 146.102 54.5641C146.07 54.5641 146.027 54.5983 145.972 54.6667C145.831 54.849 145.678 55.0563 145.514 55.2888C145.35 55.5212 145.179 55.7604 145.002 56.0065C144.829 56.2481 144.651 56.485 144.469 56.7175C144.286 56.9499 144.104 57.1572 143.922 57.3395C143.744 57.5218 143.571 57.6699 143.402 57.7839C143.233 57.8932 143.076 57.9479 142.93 57.9479C142.876 57.9479 142.816 57.9365 142.753 57.9138C142.684 57.891 142.623 57.85 142.568 57.7907C142.509 57.7315 142.461 57.6494 142.425 57.5446C142.388 57.4398 142.37 57.3076 142.37 57.1481C142.37 56.8884 142.427 56.6104 142.541 56.3141C142.65 56.0134 142.803 55.7149 142.999 55.4186C143.19 55.1224 143.418 54.8353 143.682 54.5573C143.942 54.2748 144.22 54.0241 144.516 53.8054C144.817 53.5821 145.127 53.3975 145.446 53.2516C145.77 53.1058 146.089 53.0169 146.403 52.985V53.1081C146.121 53.2038 145.849 53.3405 145.59 53.5182C145.33 53.6914 145.088 53.8897 144.865 54.113C144.642 54.3363 144.439 54.5733 144.257 54.8239C144.079 55.0746 143.924 55.3207 143.792 55.5622C143.664 55.8037 143.566 56.0339 143.498 56.2526C143.429 56.4668 143.395 56.6491 143.395 56.7995C143.395 56.8815 143.409 56.9499 143.436 57.0046C143.459 57.0593 143.493 57.0866 143.539 57.0866C143.589 57.0866 143.664 57.0456 143.764 56.9636C143.86 56.8815 143.972 56.7722 144.099 56.6354C144.227 56.4942 144.366 56.3347 144.516 56.1569C144.667 55.9746 144.819 55.7855 144.974 55.5895C145.129 55.3936 145.282 55.1953 145.432 54.9948C145.587 54.7943 145.731 54.6052 145.863 54.4274C146.068 54.154 146.248 53.8942 146.403 53.6481C146.558 53.3975 146.69 53.1765 146.8 52.985C146.927 52.7617 147.039 52.5521 147.135 52.3561L148.297 49.5944H149.124L146.116 56.7653ZM148.96 56.7653C148.941 56.8109 148.926 56.8565 148.912 56.902C148.898 56.9431 148.891 56.9795 148.891 57.0114C148.891 57.0661 148.903 57.1026 148.926 57.1208C148.953 57.139 148.987 57.1481 149.028 57.1481C149.092 57.1481 149.169 57.1162 149.26 57.0524C149.352 56.9886 149.447 56.8952 149.548 56.7722L150.799 55.2272L150.969 55.364L149.459 57.2302C149.349 57.3669 149.249 57.4808 149.158 57.572C149.071 57.6631 148.987 57.736 148.905 57.7907C148.828 57.8408 148.748 57.8773 148.666 57.9001C148.588 57.9229 148.506 57.9343 148.42 57.9343C148.283 57.9343 148.169 57.8955 148.078 57.8181C147.987 57.736 147.941 57.6335 147.941 57.5104C147.941 57.3965 147.971 57.2621 148.03 57.1071C148.085 56.9522 148.158 56.763 148.249 56.5397L149.541 53.4567C149.468 53.5707 149.384 53.6983 149.288 53.8395C149.192 53.9808 149.076 54.1403 148.939 54.3181C148.807 54.4958 148.657 54.6963 148.488 54.9196C148.315 55.1384 148.117 55.3845 147.893 55.6579L147.722 55.5212C148.037 55.1338 148.31 54.7875 148.543 54.4821C148.775 54.1722 148.976 53.8942 149.144 53.6481C149.313 53.402 149.456 53.181 149.575 52.985C149.693 52.7891 149.798 52.6045 149.889 52.4313C149.981 52.2582 150.063 52.0941 150.135 51.9391C150.213 51.7796 150.295 51.6156 150.382 51.447L151.161 49.5944H151.981L148.96 56.7653ZM151.66 57.654C151.824 57.654 152.002 57.6175 152.193 57.5446C152.389 57.4717 152.608 57.3464 152.849 57.1686C153.095 56.9909 153.367 56.7516 153.663 56.4509C153.959 56.1455 154.292 55.7627 154.661 55.3024L154.832 55.4391C154.517 55.8402 154.228 56.182 153.964 56.4645C153.699 56.7425 153.458 56.975 153.239 57.1618C153.02 57.3441 152.822 57.4877 152.644 57.5925C152.471 57.6927 152.316 57.7679 152.179 57.8181C152.043 57.8682 151.922 57.9001 151.817 57.9138C151.712 57.9229 151.623 57.9274 151.551 57.9274C151.441 57.9274 151.318 57.9115 151.181 57.8796C151.045 57.8477 150.917 57.7907 150.799 57.7087C150.68 57.6221 150.582 57.5059 150.505 57.36C150.423 57.2142 150.382 57.0251 150.382 56.7927C150.382 56.4509 150.439 56.1205 150.552 55.8015C150.662 55.4824 150.808 55.1839 150.99 54.9059C151.172 54.6234 151.377 54.3659 151.605 54.1335C151.838 53.9011 152.072 53.7028 152.309 53.5388C152.551 53.3701 152.783 53.2403 153.007 53.1491C153.23 53.058 153.426 53.0124 153.594 53.0124C153.836 53.0124 154.009 53.0853 154.114 53.2311C154.223 53.3724 154.278 53.5547 154.278 53.778C154.278 53.9831 154.233 54.1813 154.141 54.3727C154.05 54.5641 153.929 54.7464 153.779 54.9196C153.629 55.0882 153.453 55.2455 153.253 55.3913C153.057 55.5326 152.849 55.6556 152.631 55.7604C152.416 55.8607 152.198 55.9405 151.974 55.9997C151.756 56.0589 151.551 56.0886 151.359 56.0886C151.3 56.2617 151.254 56.4258 151.222 56.5807C151.186 56.7357 151.168 56.8793 151.168 57.0114C151.168 57.2575 151.216 57.4261 151.311 57.5173C151.407 57.6084 151.523 57.654 151.66 57.654ZM153.369 53.2927C153.246 53.2927 153.098 53.3724 152.925 53.5319C152.751 53.6869 152.571 53.8897 152.385 54.1403C152.202 54.391 152.024 54.6712 151.851 54.9811C151.683 55.2865 151.541 55.5918 151.427 55.8972C151.751 55.8425 152.045 55.7331 152.309 55.569C152.578 55.4004 152.806 55.2067 152.993 54.988C153.184 54.7647 153.33 54.53 153.43 54.2839C153.535 54.0378 153.588 53.8122 153.588 53.6071C153.588 53.4841 153.567 53.402 153.526 53.361C153.485 53.3155 153.433 53.2927 153.369 53.2927Z" fill="#BBBBBB"/>
</svg>
