<svg width="55" height="54" viewBox="0 0 55 54" fill="none" xmlns="http://www.w3.org/2000/svg">
<path d="M35.2757 20.4023C34.2007 28.5965 26.3974 32.8794 22.6302 33.9966H20.8669M35.2757 20.4023C35.2838 20.3406 35.2683 20.4638 35.2757 20.4023ZM35.2757 20.4023C36.2452 12.3031 30.8591 6.20967 28.0113 4.25697C24.8601 2.11401 16.7275 -1.18048 9.60963 3.96286C2.76845 8.90626 1.78478 15.1279 1.7847 17.3316C1.60943 20.2585 2.63317 27.1308 8.13028 31.2045L3.53382 33.9966H4.50197H20.8669M35.2757 20.4023C45.4107 19.4516 51.5292 26.3378 52.7268 30.1371C55.5588 39.121 50.5531 46.849 47.6963 49.59L52.23 53.0264H33.5363C28.5058 51.8152 18.9292 46.3136 20.8669 33.9966M11.6895 12.1519L11.9658 9.74056C12.5563 8.133 15.2205 5.0059 19.0622 5.37926C22.9038 5.75263 24.272 8.05521 24.8756 9.15717C25.361 10.2073 26.0407 12.9375 24.8756 15.4578C23.7105 17.978 21.3199 18.7377 20.2703 18.8025V23.703C19.7455 24.5197 18.3259 25.6632 16.8459 23.703V16.9746C17.0188 16.5079 17.5356 15.6265 18.2192 15.8343C19.0736 16.0941 21.7683 15.7044 22.1627 13.3016C22.3799 12.1976 22.3056 9.71677 20.2703 8.62574C18.2351 7.53471 16.2365 8.91436 15.4916 9.74056C15.152 10.1158 14.4663 11.2104 14.44 12.5872C14.4071 14.3082 11.6895 14.087 11.6895 12.1519Z" stroke="#F4F3F3" stroke-width="1.5"/>
<path d="M20.3114 29.2627C20.3114 30.2171 19.5271 30.9989 18.5494 30.9989C17.5718 30.9989 16.7875 30.2171 16.7875 29.2627C16.7875 28.3083 17.5718 27.5265 18.5494 27.5265C19.5271 27.5265 20.3114 28.3083 20.3114 29.2627Z" fill="#EC5242" stroke="#F4F3F3" stroke-width="0.8"/>
<path d="M31.1911 36.4295C31.1911 37.3839 30.4067 38.1657 29.4291 38.1657C28.4514 38.1657 27.6671 37.3839 27.6671 36.4295C27.6671 35.4751 28.4514 34.6932 29.4291 34.6932C30.4067 34.6932 31.1911 35.4751 31.1911 36.4295Z" fill="#EC5242" stroke="#F4F3F3" stroke-width="0.8"/>
<path d="M39.1642 36.4295C39.1642 37.3839 38.3799 38.1657 37.4022 38.1657C36.4246 38.1657 35.6402 37.3839 35.6402 36.4295C35.6402 35.4751 36.4246 34.6932 37.4022 34.6932C38.3799 34.6932 39.1642 35.4751 39.1642 36.4295Z" fill="#EC5242" stroke="#F4F3F3" stroke-width="0.8"/>
<path d="M47.1374 36.4295C47.1374 37.3839 46.353 38.1657 45.3754 38.1657C44.3977 38.1657 43.6134 37.3839 43.6134 36.4295C43.6134 35.4751 44.3977 34.6932 45.3754 34.6932C46.353 34.6932 47.1374 35.4751 47.1374 36.4295Z" fill="#EC5242" stroke="#F4F3F3" stroke-width="0.8"/>
</svg>
