<svg width="75" height="90" viewBox="0 0 75 90" fill="none" xmlns="http://www.w3.org/2000/svg">
<circle cx="31.9679" cy="8.78088" r="8.66711" fill="#D3D3D3"/>
<circle cx="37.4329" cy="52.4287" r="35.9239" fill="white" stroke="white" stroke-width="3"/>
<path d="M26.3966 64.6648C25.1953 64.6648 24.1413 64.5175 23.2346 64.2228C22.3506 63.9281 21.5913 63.5768 20.9566 63.1688C20.3446 62.7381 19.8573 62.3188 19.4946 61.9108C19.132 61.5028 18.8826 61.1968 18.7466 60.9928C18.3613 60.4941 18.1233 60.0635 18.0326 59.7008C17.942 59.3155 17.9873 58.9301 18.1686 58.5448C18.3726 58.1595 18.7126 57.7401 19.1886 57.2868C19.6646 56.8788 20.1066 56.6635 20.5146 56.6408C20.9453 56.5955 21.3646 56.6975 21.7726 56.9468C22.1806 57.1961 22.5773 57.5475 22.9626 58.0008C23.5066 58.6581 24.0393 59.1228 24.5606 59.3948C25.1046 59.6441 25.6713 59.7688 26.2606 59.7688C27.0086 59.7688 27.6433 59.6781 28.1646 59.4968C28.686 59.3155 29.0826 59.0321 29.3546 58.6468C29.6266 58.2388 29.7626 57.7288 29.7626 57.1168C29.7626 56.6181 29.57 56.2215 29.1846 55.9268C28.822 55.6095 28.3233 55.3375 27.6886 55.1108C27.0766 54.8841 26.3853 54.6688 25.6146 54.4648C24.8666 54.2381 24.1186 53.9775 23.3706 53.6828C22.8493 53.5015 22.3506 53.2748 21.8746 53.0028C21.3986 52.7308 20.9453 52.4248 20.5146 52.0848C20.084 51.7448 19.71 51.3368 19.3926 50.8608C19.098 50.3848 18.86 49.8408 18.6786 49.2288C18.52 48.6168 18.4406 47.9141 18.4406 47.1208C18.4406 45.7835 18.7693 44.5935 19.4266 43.5508C20.084 42.5081 20.9906 41.6921 22.1466 41.1028C23.3253 40.4908 24.674 40.1848 26.1926 40.1848C27.2126 40.1848 28.0966 40.2755 28.8446 40.4568C29.6153 40.6381 30.2613 40.8535 30.7826 41.1028C31.304 41.3521 31.712 41.6015 32.0066 41.8508C32.324 42.0775 32.5393 42.2588 32.6526 42.3948C33.2873 42.9841 33.6386 43.4941 33.7066 43.9248C33.7746 44.3328 33.5366 44.9108 32.9926 45.6588C32.426 46.4521 31.8593 46.8941 31.2926 46.9848C30.7486 47.0755 30.1253 46.8828 29.4226 46.4068C29.1506 46.1575 28.8786 45.9308 28.6066 45.7268C28.3346 45.5228 28.006 45.3641 27.6206 45.2508C27.258 45.1148 26.7706 45.0468 26.1586 45.0468C25.796 45.0468 25.456 45.1035 25.1386 45.2168C24.8213 45.3075 24.5493 45.4435 24.3226 45.6248C24.096 45.8061 23.9146 46.0328 23.7786 46.3048C23.6426 46.5541 23.5746 46.8375 23.5746 47.1548C23.5746 47.6761 23.7446 48.0955 24.0846 48.4128C24.4473 48.7301 24.912 48.9908 25.4786 49.1948C26.068 49.3761 26.714 49.5575 27.4166 49.7388C28.142 49.8975 28.8786 50.0901 29.6266 50.3168C30.3066 50.5435 30.964 50.8268 31.5986 51.1668C32.2333 51.4841 32.8 51.8921 33.2986 52.3908C33.7973 52.8895 34.194 53.5128 34.4886 54.2608C34.806 55.0088 34.9646 55.9268 34.9646 57.0148C34.9646 58.3748 34.704 59.5421 34.1826 60.5168C33.6613 61.4915 32.97 62.2848 32.1086 62.8968C31.2473 63.5088 30.318 63.9508 29.3206 64.2228C28.3233 64.5175 27.3486 64.6648 26.3966 64.6648ZM40.0272 64.3248C39.2112 64.3248 38.6218 64.2115 38.2592 63.9848C37.8965 63.7355 37.6698 63.4068 37.5792 62.9988C37.5112 62.5908 37.4772 62.1715 37.4772 61.7408V43.1428C37.4772 42.1455 37.6698 41.4655 38.0552 41.1028C38.4405 40.7401 39.1318 40.5588 40.1292 40.5588H52.9812C53.4345 40.5588 53.8538 40.6041 54.2392 40.6948C54.6245 40.7628 54.9418 40.9781 55.1912 41.3408C55.4405 41.7035 55.5652 42.3155 55.5652 43.1768C55.5652 43.9928 55.4405 44.5821 55.1912 44.9448C54.9418 45.3075 54.6132 45.5341 54.2052 45.6248C53.8198 45.6928 53.4005 45.7268 52.9472 45.7268H42.6452V50.1128H49.6492C50.1025 50.1128 50.4992 50.1468 50.8392 50.2148C51.2018 50.2828 51.4852 50.4755 51.6892 50.7928C51.8932 51.1101 51.9952 51.6428 51.9952 52.3908C51.9952 53.0935 51.8932 53.6035 51.6892 53.9208C51.4852 54.2381 51.2018 54.4308 50.8392 54.4988C50.4765 54.5668 50.0572 54.6008 49.5812 54.6008H42.6452V59.1568H52.9812C53.4345 59.1568 53.8538 59.2021 54.2392 59.2928C54.6245 59.3835 54.9418 59.6101 55.1912 59.9728C55.4405 60.3128 55.5652 60.9135 55.5652 61.7748C55.5652 62.5908 55.4405 63.1801 55.1912 63.5428C54.9418 63.9055 54.6132 64.1208 54.2052 64.1888C53.8198 64.2795 53.4005 64.3248 52.9472 64.3248H40.0272Z" fill="#272A31"/>
<circle cx="37.4329" cy="52.4286" r="32.4585" stroke="#272A31" stroke-width="5.5"/>
<circle cx="17.0962" cy="22.1938" r="14.8718" fill="white"/>
<circle cx="17.0962" cy="22.1937" r="13.4128" fill="#EC5242"/>
<circle cx="58.2473" cy="12.5312" r="5.20923" fill="#272A31"/>
</svg>
