<svg width="142" height="55" viewBox="0 0 142 55" fill="none" xmlns="http://www.w3.org/2000/svg">
<path d="M51.504 23.456C50.656 23.456 49.912 23.352 49.272 23.144C48.648 22.936 48.112 22.688 47.664 22.4C47.232 22.096 46.888 21.8 46.632 21.512C46.376 21.224 46.2 21.008 46.104 20.864C45.832 20.512 45.664 20.208 45.6 19.952C45.536 19.68 45.568 19.408 45.696 19.136C45.84 18.864 46.08 18.568 46.416 18.248C46.752 17.96 47.064 17.808 47.352 17.792C47.656 17.76 47.952 17.832 48.24 18.008C48.528 18.184 48.808 18.432 49.08 18.752C49.464 19.216 49.84 19.544 50.208 19.736C50.592 19.912 50.992 20 51.408 20C51.936 20 52.384 19.936 52.752 19.808C53.12 19.68 53.4 19.48 53.592 19.208C53.784 18.92 53.88 18.56 53.88 18.128C53.88 17.776 53.744 17.496 53.472 17.288C53.216 17.064 52.864 16.872 52.416 16.712C51.984 16.552 51.496 16.4 50.952 16.256C50.424 16.096 49.896 15.912 49.368 15.704C49 15.576 48.648 15.416 48.312 15.224C47.976 15.032 47.656 14.816 47.352 14.576C47.048 14.336 46.784 14.048 46.56 13.712C46.352 13.376 46.184 12.992 46.056 12.56C45.944 12.128 45.888 11.632 45.888 11.072C45.888 10.128 46.12 9.288 46.584 8.552C47.048 7.816 47.688 7.24 48.504 6.824C49.336 6.392 50.288 6.176 51.36 6.176C52.08 6.176 52.704 6.24 53.232 6.368C53.776 6.496 54.232 6.648 54.6 6.824C54.968 7 55.256 7.176 55.464 7.352C55.688 7.512 55.84 7.64 55.92 7.736C56.368 8.152 56.616 8.512 56.664 8.816C56.712 9.104 56.544 9.512 56.16 10.04C55.76 10.6 55.36 10.912 54.96 10.976C54.576 11.04 54.136 10.904 53.64 10.568C53.448 10.392 53.256 10.232 53.064 10.088C52.872 9.944 52.64 9.832 52.368 9.752C52.112 9.656 51.768 9.608 51.336 9.608C51.08 9.608 50.84 9.648 50.616 9.728C50.392 9.792 50.2 9.888 50.04 10.016C49.88 10.144 49.752 10.304 49.656 10.496C49.56 10.672 49.512 10.872 49.512 11.096C49.512 11.464 49.632 11.76 49.872 11.984C50.128 12.208 50.456 12.392 50.856 12.536C51.272 12.664 51.728 12.792 52.224 12.92C52.736 13.032 53.256 13.168 53.784 13.328C54.264 13.488 54.728 13.688 55.176 13.928C55.624 14.152 56.024 14.44 56.376 14.792C56.728 15.144 57.008 15.584 57.216 16.112C57.44 16.64 57.552 17.288 57.552 18.056C57.552 19.016 57.368 19.84 57 20.528C56.632 21.216 56.144 21.776 55.536 22.208C54.928 22.64 54.272 22.952 53.568 23.144C52.864 23.352 52.176 23.456 51.504 23.456ZM65.3736 23C64.5896 23 63.8936 22.848 63.2856 22.544C62.6936 22.224 62.1976 21.8 61.7976 21.272C61.4136 20.728 61.1176 20.104 60.9096 19.4C60.7176 18.696 60.6296 17.936 60.6456 17.12C60.6456 16.336 60.7496 15.592 60.9576 14.888C61.1656 14.168 61.4616 13.536 61.8456 12.992C62.2456 12.432 62.7336 12 63.3096 11.696C63.9016 11.376 64.5896 11.216 65.3736 11.216C66.0776 11.216 66.7576 11.376 67.4136 11.696C68.0856 12.016 68.6776 12.456 69.1896 13.016C69.7016 13.56 70.1016 14.192 70.3896 14.912C70.6936 15.632 70.8456 16.392 70.8456 17.192C70.8456 17.992 70.6936 18.752 70.3896 19.472C70.1016 20.176 69.7016 20.792 69.1896 21.32C68.6776 21.848 68.0936 22.264 67.4376 22.568C66.7816 22.856 66.0936 23 65.3736 23ZM60.7416 28.184C60.1656 28.184 59.7496 28.096 59.4936 27.92C59.2536 27.76 59.1016 27.544 59.0376 27.272C58.9896 27.016 58.9656 26.736 58.9656 26.432V13.016C58.9656 12.696 58.9896 12.408 59.0376 12.152C59.0856 11.88 59.2296 11.656 59.4696 11.48C59.7256 11.304 60.1416 11.216 60.7176 11.216C61.2136 11.216 61.6056 11.288 61.8936 11.432C62.1976 11.576 62.4136 11.8 62.5416 12.104V26.408C62.5576 26.712 62.5336 27 62.4696 27.272C62.4056 27.544 62.2456 27.76 61.9896 27.92C61.7496 28.096 61.3336 28.184 60.7416 28.184ZM64.8696 19.616C65.3176 19.616 65.7176 19.512 66.0696 19.304C66.4216 19.08 66.7016 18.784 66.9096 18.416C67.1336 18.048 67.2456 17.64 67.2456 17.192C67.2456 16.728 67.1416 16.32 66.9336 15.968C66.7256 15.6 66.4456 15.312 66.0936 15.104C65.7416 14.896 65.3416 14.792 64.8936 14.792C64.4616 14.792 64.0616 14.904 63.6936 15.128C63.3416 15.336 63.0616 15.624 62.8536 15.992C62.6616 16.344 62.5656 16.744 62.5656 17.192C62.5656 17.64 62.6696 18.048 62.8776 18.416C63.0856 18.784 63.3656 19.08 63.7176 19.304C64.0696 19.512 64.4536 19.616 64.8696 19.616ZM74.2478 23.216C73.6558 23.216 73.2318 23.136 72.9758 22.976C72.7358 22.8 72.5838 22.576 72.5198 22.304C72.4718 22.016 72.4478 21.72 72.4478 21.416V13.04C72.4478 12.72 72.4718 12.424 72.5198 12.152C72.5838 11.88 72.7438 11.664 72.9998 11.504C73.2558 11.328 73.6798 11.24 74.2718 11.24C74.8478 11.24 75.2558 11.328 75.4958 11.504C75.7518 11.68 75.9038 11.904 75.9518 12.176C76.0158 12.448 76.0478 12.752 76.0478 13.088V21.44C76.0478 21.744 76.0158 22.04 75.9518 22.328C75.9038 22.6 75.7518 22.816 75.4958 22.976C75.2558 23.136 74.8398 23.216 74.2478 23.216ZM74.2478 9.488C73.6398 9.488 73.2078 9.4 72.9518 9.224C72.6958 9.048 72.5358 8.816 72.4718 8.528C72.4238 8.24 72.3998 7.936 72.3998 7.616C72.3998 7.28 72.4318 6.976 72.4958 6.704C72.5598 6.416 72.7198 6.192 72.9758 6.032C73.2318 5.856 73.6638 5.768 74.2718 5.768C74.8638 5.768 75.2878 5.856 75.5438 6.032C75.7998 6.208 75.9518 6.44 75.9998 6.728C76.0638 7.016 76.0958 7.32 76.0958 7.64C76.0958 7.96 76.0638 8.264 75.9998 8.552C75.9518 8.84 75.7998 9.072 75.5438 9.248C75.2878 9.408 74.8558 9.488 74.2478 9.488ZM79.9403 23.216C79.3483 23.216 78.9243 23.136 78.6683 22.976C78.4283 22.8 78.2763 22.568 78.2123 22.28C78.1643 21.992 78.1403 21.696 78.1403 21.392V13.016C78.1403 12.696 78.1723 12.4 78.2363 12.128C78.3003 11.856 78.4523 11.64 78.6923 11.48C78.9483 11.304 79.3723 11.216 79.9643 11.216C80.5243 11.216 80.9243 11.296 81.1643 11.456C81.4203 11.6 81.5803 11.776 81.6443 11.984C81.7083 12.176 81.7403 12.344 81.7403 12.488L81.4523 12.632C81.4843 12.568 81.5643 12.456 81.6923 12.296C81.8363 12.12 82.0283 11.944 82.2683 11.768C82.5083 11.576 82.7963 11.416 83.1323 11.288C83.4843 11.16 83.8843 11.096 84.3323 11.096C84.5083 11.096 84.7003 11.112 84.9083 11.144C85.1323 11.16 85.3563 11.208 85.5803 11.288C85.8203 11.352 86.0363 11.448 86.2283 11.576C86.4203 11.688 86.5723 11.832 86.6843 12.008C86.8123 12.184 86.8763 12.4 86.8763 12.656C86.8763 13.312 86.7243 13.872 86.4203 14.336C86.1163 14.784 85.7323 15.008 85.2683 15.008C84.9963 15.008 84.8043 14.984 84.6923 14.936C84.5803 14.888 84.4843 14.84 84.4043 14.792C84.3403 14.744 84.2603 14.704 84.1643 14.672C84.0683 14.624 83.8923 14.6 83.6363 14.6C83.3963 14.6 83.1643 14.632 82.9403 14.696C82.7323 14.76 82.5323 14.864 82.3403 15.008C82.1643 15.136 82.0203 15.304 81.9083 15.512C81.8123 15.704 81.7643 15.92 81.7643 16.16V21.44C81.7643 21.744 81.7323 22.04 81.6683 22.328C81.6203 22.6 81.4683 22.816 81.2123 22.976C80.9563 23.136 80.5323 23.216 79.9403 23.216ZM90.2087 23.216C89.6167 23.216 89.1927 23.136 88.9367 22.976C88.6967 22.8 88.5447 22.576 88.4807 22.304C88.4327 22.016 88.4087 21.72 88.4087 21.416V13.04C88.4087 12.72 88.4327 12.424 88.4807 12.152C88.5447 11.88 88.7047 11.664 88.9607 11.504C89.2167 11.328 89.6407 11.24 90.2327 11.24C90.8087 11.24 91.2167 11.328 91.4567 11.504C91.7127 11.68 91.8647 11.904 91.9127 12.176C91.9767 12.448 92.0087 12.752 92.0087 13.088V21.44C92.0087 21.744 91.9767 22.04 91.9127 22.328C91.8647 22.6 91.7127 22.816 91.4567 22.976C91.2167 23.136 90.8007 23.216 90.2087 23.216ZM90.2087 9.488C89.6007 9.488 89.1687 9.4 88.9127 9.224C88.6567 9.048 88.4967 8.816 88.4327 8.528C88.3847 8.24 88.3607 7.936 88.3607 7.616C88.3607 7.28 88.3927 6.976 88.4567 6.704C88.5207 6.416 88.6807 6.192 88.9367 6.032C89.1927 5.856 89.6247 5.768 90.2327 5.768C90.8247 5.768 91.2487 5.856 91.5047 6.032C91.7607 6.208 91.9127 6.44 91.9607 6.728C92.0247 7.016 92.0567 7.32 92.0567 7.64C92.0567 7.96 92.0247 8.264 91.9607 8.552C91.9127 8.84 91.7607 9.072 91.5047 9.248C91.2487 9.408 90.8167 9.488 90.2087 9.488ZM100.105 23.216C99.2891 23.216 98.5851 23.128 97.9931 22.952C97.4171 22.776 96.9371 22.504 96.5531 22.136C96.1691 21.768 95.8811 21.304 95.6891 20.744C95.5131 20.168 95.4251 19.488 95.4251 18.704V8.96C95.4251 8.64 95.4491 8.352 95.4971 8.096C95.5611 7.84 95.7211 7.632 95.9771 7.472C96.2331 7.296 96.6491 7.208 97.2251 7.208C97.8011 7.208 98.2171 7.296 98.4731 7.472C98.7291 7.648 98.8811 7.872 98.9291 8.144C98.9931 8.416 99.0251 8.712 99.0251 9.032V18.56C99.0251 18.816 99.0411 19.032 99.0731 19.208C99.1211 19.368 99.1851 19.488 99.2651 19.568C99.3451 19.648 99.4571 19.704 99.6011 19.736C99.7451 19.768 99.9211 19.784 100.129 19.784C100.481 19.784 100.793 19.816 101.065 19.88C101.337 19.944 101.545 20.088 101.689 20.312C101.849 20.536 101.929 20.912 101.929 21.44C101.929 22.016 101.841 22.432 101.665 22.688C101.489 22.944 101.257 23.096 100.969 23.144C100.697 23.192 100.409 23.216 100.105 23.216ZM94.6811 11.408H97.3211L100.633 11.312C100.937 11.312 101.225 11.344 101.497 11.408C101.769 11.456 101.993 11.608 102.169 11.864C102.345 12.12 102.433 12.544 102.433 13.136C102.433 13.68 102.345 14.08 102.169 14.336C102.009 14.592 101.793 14.76 101.521 14.84C101.249 14.904 100.953 14.936 100.633 14.936L97.4891 14.864H94.5851C94.1211 14.848 93.7931 14.712 93.6011 14.456C93.4251 14.184 93.3371 13.736 93.3371 13.112C93.3371 12.536 93.4491 12.112 93.6731 11.84C93.8971 11.552 94.2331 11.408 94.6811 11.408ZM108.964 23.192C108.228 23.192 107.532 23.048 106.876 22.76C106.236 22.472 105.676 22.072 105.196 21.56C104.716 21.032 104.34 20.416 104.068 19.712C103.812 18.992 103.684 18.208 103.684 17.36V13.016C103.684 12.696 103.716 12.4 103.78 12.128C103.844 11.856 103.996 11.632 104.236 11.456C104.492 11.28 104.916 11.192 105.508 11.192C106.1 11.192 106.516 11.28 106.756 11.456C107.012 11.632 107.164 11.864 107.212 12.152C107.276 12.424 107.308 12.72 107.308 13.04V17.36C107.308 17.824 107.388 18.232 107.548 18.584C107.724 18.92 107.972 19.176 108.292 19.352C108.628 19.528 109.02 19.616 109.468 19.616C109.932 19.616 110.324 19.528 110.644 19.352C110.98 19.16 111.236 18.896 111.412 18.56C111.604 18.224 111.7 17.824 111.7 17.36V12.992C111.7 12.672 111.732 12.376 111.796 12.104C111.86 11.832 112.012 11.616 112.252 11.456C112.508 11.28 112.932 11.192 113.524 11.192C114.116 11.192 114.532 11.28 114.772 11.456C115.028 11.632 115.18 11.864 115.228 12.152C115.292 12.424 115.324 12.712 115.324 13.016V21.464C115.324 21.768 115.292 22.056 115.228 22.328C115.18 22.584 115.028 22.792 114.772 22.952C114.516 23.112 114.1 23.192 113.524 23.192C113.092 23.192 112.756 23.144 112.516 23.048C112.276 22.952 112.1 22.832 111.988 22.688C111.876 22.544 111.804 22.392 111.772 22.232C111.756 22.072 111.748 21.928 111.748 21.8L112.06 21.536C112.012 21.6 111.908 21.72 111.748 21.896C111.588 22.072 111.372 22.264 111.1 22.472C110.844 22.664 110.54 22.832 110.188 22.976C109.836 23.12 109.428 23.192 108.964 23.192ZM127.026 23.192C126.434 23.192 125.994 23.088 125.706 22.88C125.434 22.672 125.298 22.416 125.298 22.112L125.538 21.704C125.442 21.864 125.258 22.064 124.986 22.304C124.714 22.528 124.362 22.736 123.93 22.928C123.498 23.104 122.962 23.192 122.322 23.192C121.586 23.192 120.882 23.032 120.21 22.712C119.554 22.392 118.97 21.952 118.458 21.392C117.946 20.816 117.538 20.168 117.234 19.448C116.946 18.728 116.802 17.968 116.802 17.168C116.802 16.384 116.946 15.64 117.234 14.936C117.538 14.216 117.946 13.584 118.458 13.04C118.986 12.48 119.578 12.04 120.234 11.72C120.89 11.4 121.586 11.24 122.322 11.24C122.914 11.24 123.418 11.328 123.834 11.504C124.25 11.664 124.594 11.856 124.866 12.08C125.154 12.304 125.37 12.52 125.514 12.728L125.322 12.392C125.306 12.008 125.434 11.72 125.706 11.528C125.994 11.32 126.442 11.216 127.05 11.216C127.626 11.216 128.034 11.304 128.274 11.48C128.53 11.656 128.682 11.888 128.73 12.176C128.794 12.464 128.826 12.768 128.826 13.088V21.368C128.826 21.672 128.794 21.968 128.73 22.256C128.682 22.544 128.53 22.776 128.274 22.952C128.034 23.112 127.618 23.192 127.026 23.192ZM122.85 19.616C123.266 19.616 123.642 19.512 123.978 19.304C124.33 19.08 124.602 18.784 124.794 18.416C125.002 18.048 125.106 17.64 125.106 17.192C125.106 16.728 125.002 16.32 124.794 15.968C124.586 15.6 124.306 15.312 123.954 15.104C123.602 14.88 123.218 14.768 122.802 14.768C122.338 14.768 121.922 14.88 121.554 15.104C121.202 15.328 120.914 15.624 120.69 15.992C120.482 16.36 120.378 16.776 120.378 17.24C120.378 17.672 120.482 18.072 120.69 18.44C120.914 18.792 121.21 19.08 121.578 19.304C121.962 19.512 122.386 19.616 122.85 19.616ZM135.365 23.216C134.709 23.216 134.125 23.176 133.613 23.096C133.117 23.032 132.685 22.904 132.317 22.712C131.965 22.52 131.677 22.256 131.453 21.92C131.229 21.584 131.061 21.152 130.949 20.624C130.853 20.08 130.805 19.416 130.805 18.632V7.544C130.805 7.224 130.829 6.928 130.877 6.656C130.941 6.384 131.101 6.16 131.357 5.984C131.613 5.808 132.029 5.72 132.605 5.72C133.181 5.72 133.589 5.808 133.829 5.984C134.085 6.16 134.245 6.384 134.309 6.656C134.373 6.928 134.405 7.224 134.405 7.544V18.464C134.405 18.72 134.413 18.936 134.429 19.112C134.461 19.272 134.509 19.4 134.573 19.496C134.653 19.592 134.757 19.656 134.885 19.688C135.013 19.72 135.181 19.736 135.389 19.736C135.581 19.736 135.773 19.76 135.965 19.808C136.173 19.856 136.349 20 136.493 20.24C136.637 20.48 136.709 20.88 136.709 21.44C136.709 22.016 136.637 22.432 136.493 22.688C136.349 22.944 136.173 23.096 135.965 23.144C135.773 23.192 135.573 23.216 135.365 23.216ZM47.48 43.2C47.1067 43.2 46.8333 43.14 46.66 43.02C46.4867 42.9133 46.38 42.7667 46.34 42.58C46.3 42.3933 46.28 42.1867 46.28 41.96V30.42C46.28 29.9667 46.3667 29.6533 46.54 29.48C46.7267 29.3067 47.06 29.22 47.54 29.22H55.34C55.5667 29.22 55.7667 29.2467 55.94 29.3C56.1267 29.34 56.2733 29.4467 56.38 29.62C56.4867 29.78 56.54 30.0533 56.54 30.44C56.54 30.8133 56.48 31.0867 56.36 31.26C56.2533 31.4333 56.1067 31.54 55.92 31.58C55.7467 31.62 55.5467 31.64 55.32 31.64H48.7V35H53.26C53.4867 35 53.68 35.0267 53.84 35.08C54 35.12 54.1267 35.2133 54.22 35.36C54.3133 35.5067 54.36 35.7533 54.36 36.1C54.36 36.4333 54.3133 36.68 54.22 36.84C54.1267 36.9867 53.9933 37.08 53.82 37.12C53.6467 37.1467 53.4467 37.16 53.22 37.16H48.7V40.76H55.34C55.5667 40.76 55.7667 40.7867 55.94 40.84C56.1267 40.88 56.2733 40.9867 56.38 41.16C56.4867 41.3333 56.54 41.6067 56.54 41.98C56.54 42.3533 56.48 42.6267 56.36 42.8C56.2533 42.9733 56.1067 43.08 55.92 43.12C55.7467 43.1733 55.5467 43.2 55.32 43.2H47.48ZM61.6523 43.24C61.3723 43.24 61.139 43.1933 60.9523 43.1C60.7657 43.0067 60.619 42.8533 60.5123 42.64L56.8723 35.02C56.6723 34.62 56.619 34.3 56.7123 34.06C56.8057 33.82 57.0457 33.6067 57.4323 33.42C57.8323 33.22 58.1523 33.1533 58.3923 33.22C58.6323 33.2867 58.8457 33.5333 59.0323 33.96L61.6523 40.1L64.2323 34.08C64.419 33.64 64.6323 33.3667 64.8723 33.26C65.1123 33.14 65.459 33.1933 65.9123 33.42C66.3657 33.6467 66.6057 33.9 66.6323 34.18C66.659 34.4467 66.5857 34.7533 66.4123 35.1L62.7923 42.64C62.6857 42.84 62.539 42.9867 62.3523 43.08C62.1657 43.1867 61.9323 43.24 61.6523 43.24ZM72.3625 43.32C71.4958 43.32 70.7358 43.18 70.0825 42.9C69.4425 42.62 68.9025 42.24 68.4625 41.76C68.0358 41.2667 67.7092 40.72 67.4825 40.12C67.2692 39.5067 67.1625 38.8733 67.1625 38.22C67.1625 37.26 67.3825 36.4067 67.8225 35.66C68.2625 34.9133 68.8692 34.3267 69.6425 33.9C70.4292 33.4733 71.3292 33.26 72.3425 33.26C73.0625 33.26 73.6958 33.3733 74.2425 33.6C74.7892 33.8267 75.2425 34.1267 75.6025 34.5C75.9758 34.86 76.2558 35.26 76.4425 35.7C76.6425 36.14 76.7425 36.5667 76.7425 36.98C76.7425 37.6867 76.5692 38.2 76.2225 38.52C75.8892 38.84 75.4692 39 74.9625 39H69.6825C69.6958 39.4533 69.8358 39.8467 70.1025 40.18C70.3825 40.5133 70.7292 40.7733 71.1425 40.96C71.5692 41.1333 72.0025 41.22 72.4425 41.22C72.7758 41.22 73.0692 41.2 73.3225 41.16C73.5892 41.12 73.8158 41.0733 74.0025 41.02C74.1892 40.9533 74.3492 40.8867 74.4825 40.82C74.6292 40.7533 74.7625 40.6933 74.8825 40.64C75.0025 40.5867 75.1158 40.5533 75.2225 40.54C75.3692 40.5267 75.5158 40.56 75.6625 40.64C75.8092 40.72 75.9292 40.86 76.0225 41.06C76.1025 41.1933 76.1558 41.32 76.1825 41.44C76.2225 41.5467 76.2425 41.6533 76.2425 41.76C76.2425 42.0267 76.0825 42.28 75.7625 42.52C75.4425 42.7467 74.9892 42.9333 74.4025 43.08C73.8292 43.24 73.1492 43.32 72.3625 43.32ZM69.6825 37.58H73.7825C74.0092 37.58 74.1825 37.5467 74.3025 37.48C74.4225 37.4 74.4825 37.24 74.4825 37C74.4825 36.6933 74.3892 36.42 74.2025 36.18C74.0158 35.9267 73.7625 35.7333 73.4425 35.6C73.1225 35.4533 72.7492 35.38 72.3225 35.38C71.8292 35.38 71.3825 35.48 70.9825 35.68C70.5825 35.8667 70.2625 36.1267 70.0225 36.46C69.7958 36.7933 69.6825 37.1667 69.6825 37.58ZM79.5638 43.18C79.2038 43.18 78.9371 43.12 78.7638 43C78.6038 42.8933 78.5038 42.7533 78.4638 42.58C78.4238 42.3933 78.4038 42.1867 78.4038 41.96V34.48C78.4038 34.2667 78.4238 34.0733 78.4638 33.9C78.5038 33.7267 78.6104 33.5933 78.7838 33.5C78.9571 33.3933 79.2238 33.34 79.5838 33.34C79.9038 33.34 80.1438 33.38 80.3038 33.46C80.4638 33.54 80.5704 33.64 80.6238 33.76C80.6771 33.88 80.7038 34 80.7038 34.12C80.7171 34.24 80.7304 34.3333 80.7438 34.4L80.6638 35.04C80.7438 34.8267 80.8771 34.62 81.0638 34.42C81.2504 34.22 81.4771 34.04 81.7438 33.88C82.0104 33.7067 82.2971 33.5733 82.6038 33.48C82.9238 33.3733 83.2504 33.32 83.5838 33.32C84.2104 33.32 84.7704 33.4333 85.2638 33.66C85.7571 33.8867 86.1771 34.2067 86.5238 34.62C86.8838 35.0333 87.1571 35.5267 87.3438 36.1C87.5304 36.66 87.6237 37.2933 87.6237 38V41.98C87.6237 42.2067 87.5971 42.4133 87.5438 42.6C87.5038 42.7733 87.4038 42.9133 87.2438 43.02C87.0838 43.1267 86.8104 43.18 86.4238 43.18C86.0504 43.18 85.7771 43.12 85.6038 43C85.4304 42.8933 85.3238 42.7533 85.2838 42.58C85.2438 42.3933 85.2238 42.1867 85.2238 41.96V37.98C85.2238 37.5 85.1371 37.0867 84.9638 36.74C84.8038 36.3933 84.5638 36.1267 84.2438 35.94C83.9371 35.7533 83.5438 35.66 83.0638 35.66C82.5971 35.66 82.1904 35.76 81.8438 35.96C81.4971 36.1467 81.2304 36.4133 81.0438 36.76C80.8571 37.1067 80.7638 37.5133 80.7638 37.98V41.98C80.7638 42.2067 80.7438 42.4133 80.7038 42.6C80.6638 42.7733 80.5571 42.9133 80.3838 43.02C80.2238 43.1267 79.9504 43.18 79.5638 43.18ZM94.2398 43.2C93.5865 43.2 93.0265 43.1333 92.5598 43C92.0932 42.8667 91.7132 42.66 91.4198 42.38C91.1265 42.1 90.9065 41.74 90.7598 41.3C90.6265 40.8467 90.5598 40.3133 90.5598 39.7V31.22C90.5598 30.98 90.5798 30.7733 90.6198 30.6C90.6732 30.4267 90.7798 30.2933 90.9398 30.2C91.1132 30.0933 91.3798 30.04 91.7398 30.04C92.1132 30.04 92.3798 30.0933 92.5398 30.2C92.7132 30.3067 92.8198 30.4533 92.8598 30.64C92.9132 30.8133 92.9398 31.0067 92.9398 31.22V39.62C92.9398 39.9 92.9598 40.1267 92.9998 40.3C93.0532 40.4733 93.1265 40.6067 93.2198 40.7C93.3265 40.78 93.4598 40.84 93.6198 40.88C93.7932 40.9067 93.9998 40.92 94.2398 40.92C94.4932 40.92 94.7065 40.94 94.8798 40.98C95.0665 41.02 95.2065 41.12 95.2998 41.28C95.3932 41.4267 95.4398 41.6733 95.4398 42.02C95.4398 42.3933 95.3798 42.6667 95.2598 42.84C95.1532 43 95.0065 43.1 94.8198 43.14C94.6465 43.18 94.4532 43.2 94.2398 43.2ZM89.7398 33.54L91.7998 33.56L94.5598 33.48C94.7865 33.48 94.9865 33.5067 95.1598 33.56C95.3465 33.6 95.4932 33.7067 95.5998 33.88C95.7065 34.04 95.7598 34.3067 95.7598 34.68C95.7598 35.0267 95.7065 35.2867 95.5998 35.46C95.4932 35.6333 95.3532 35.7467 95.1798 35.8C95.0065 35.84 94.8065 35.86 94.5798 35.86L91.8998 35.82L89.6798 35.84C89.3465 35.8267 89.1132 35.7333 88.9798 35.56C88.8598 35.3733 88.7998 35.0733 88.7998 34.66C88.7998 34.2733 88.8732 33.9933 89.0198 33.82C89.1798 33.6333 89.4198 33.54 89.7398 33.54ZM103.565 43.042C103.406 43.042 103.261 42.9767 103.131 42.846C103.009 42.706 102.949 42.552 102.949 42.384C102.949 42.2533 102.949 42.1227 102.949 41.992C102.958 41.8613 102.991 41.7307 103.047 41.6C103.103 41.4693 103.21 41.348 103.369 41.236C103.882 40.8627 104.381 40.5173 104.867 40.2C105.361 39.8733 105.819 39.5607 106.239 39.262C106.668 38.9633 107.041 38.6647 107.359 38.366C107.676 38.0673 107.923 37.7593 108.101 37.442C108.287 37.1153 108.381 36.7607 108.381 36.378C108.381 35.9953 108.301 35.6687 108.143 35.398C107.993 35.118 107.765 34.9033 107.457 34.754C107.149 34.5953 106.766 34.516 106.309 34.516C105.973 34.516 105.674 34.5673 105.413 34.67C105.151 34.7633 104.932 34.9033 104.755 35.09C104.577 35.2767 104.442 35.5053 104.349 35.776C104.255 36.0467 104.209 36.3547 104.209 36.7C104.209 36.84 104.195 36.9567 104.167 37.05C104.148 37.1433 104.092 37.2133 103.999 37.26C103.915 37.3067 103.77 37.33 103.565 37.33C103.359 37.33 103.21 37.2973 103.117 37.232C103.033 37.1667 102.981 37.078 102.963 36.966C102.953 36.854 102.949 36.728 102.949 36.588C102.949 36.1027 103.023 35.6593 103.173 35.258C103.322 34.8473 103.541 34.4927 103.831 34.194C104.12 33.8953 104.47 33.6667 104.881 33.508C105.291 33.34 105.763 33.256 106.295 33.256C106.976 33.256 107.564 33.382 108.059 33.634C108.563 33.886 108.955 34.2547 109.235 34.74C109.515 35.216 109.655 35.804 109.655 36.504C109.655 36.8213 109.608 37.1247 109.515 37.414C109.421 37.7033 109.281 37.9833 109.095 38.254C108.917 38.5153 108.703 38.772 108.451 39.024C108.208 39.2667 107.928 39.5093 107.611 39.752C107.303 39.9947 106.967 40.242 106.603 40.494C106.239 40.7367 105.856 40.984 105.455 41.236L104.573 41.768H109.445C109.575 41.768 109.687 41.782 109.781 41.81C109.874 41.838 109.944 41.8987 109.991 41.992C110.047 42.0853 110.075 42.2253 110.075 42.412C110.075 42.5893 110.047 42.7247 109.991 42.818C109.935 42.9113 109.86 42.972 109.767 43C109.673 43.028 109.557 43.042 109.417 43.042H103.565ZM114.83 43.21C114.335 43.21 113.892 43.1307 113.5 42.972C113.117 42.8133 112.786 42.5893 112.506 42.3C112.226 42.0013 111.997 41.6467 111.82 41.236C111.643 40.816 111.512 40.354 111.428 39.85C111.344 39.346 111.302 38.8047 111.302 38.226C111.302 37.666 111.344 37.1387 111.428 36.644C111.512 36.14 111.643 35.6827 111.82 35.272C111.997 34.8613 112.221 34.5067 112.492 34.208C112.772 33.9 113.103 33.6667 113.486 33.508C113.878 33.34 114.317 33.256 114.802 33.256C115.287 33.256 115.717 33.34 116.09 33.508C116.473 33.6667 116.799 33.9 117.07 34.208C117.341 34.5067 117.565 34.8613 117.742 35.272C117.919 35.6827 118.05 36.14 118.134 36.644C118.218 37.148 118.26 37.68 118.26 38.24C118.26 38.8093 118.218 39.346 118.134 39.85C118.05 40.354 117.919 40.8113 117.742 41.222C117.565 41.6327 117.341 41.9873 117.07 42.286C116.799 42.5847 116.477 42.8133 116.104 42.972C115.74 43.1307 115.315 43.21 114.83 43.21ZM114.774 41.936C115.213 41.936 115.572 41.8427 115.852 41.656C116.132 41.46 116.351 41.2127 116.51 40.914C116.669 40.6153 116.781 40.3027 116.846 39.976C116.921 39.64 116.963 39.3227 116.972 39.024C116.991 38.7253 117 38.4873 117 38.31V38.226C117 37.442 116.916 36.7747 116.748 36.224C116.589 35.664 116.347 35.2393 116.02 34.95C115.693 34.6607 115.283 34.516 114.788 34.516C114.293 34.516 113.878 34.6607 113.542 34.95C113.215 35.2393 112.968 35.6593 112.8 36.21C112.641 36.7607 112.562 37.4373 112.562 38.24C112.562 39.024 112.641 39.6913 112.8 40.242C112.968 40.7927 113.215 41.2127 113.542 41.502C113.878 41.7913 114.289 41.936 114.774 41.936ZM120.149 43.042C119.99 43.042 119.845 42.9767 119.715 42.846C119.593 42.706 119.533 42.552 119.533 42.384C119.533 42.2533 119.533 42.1227 119.533 41.992C119.542 41.8613 119.575 41.7307 119.631 41.6C119.687 41.4693 119.794 41.348 119.953 41.236C120.466 40.8627 120.965 40.5173 121.451 40.2C121.945 39.8733 122.403 39.5607 122.823 39.262C123.252 38.9633 123.625 38.6647 123.943 38.366C124.26 38.0673 124.507 37.7593 124.685 37.442C124.871 37.1153 124.965 36.7607 124.965 36.378C124.965 35.9953 124.885 35.6687 124.727 35.398C124.577 35.118 124.349 34.9033 124.041 34.754C123.733 34.5953 123.35 34.516 122.893 34.516C122.557 34.516 122.258 34.5673 121.997 34.67C121.735 34.7633 121.516 34.9033 121.339 35.09C121.161 35.2767 121.026 35.5053 120.933 35.776C120.839 36.0467 120.793 36.3547 120.793 36.7C120.793 36.84 120.779 36.9567 120.751 37.05C120.732 37.1433 120.676 37.2133 120.583 37.26C120.499 37.3067 120.354 37.33 120.149 37.33C119.943 37.33 119.794 37.2973 119.701 37.232C119.617 37.1667 119.565 37.078 119.547 36.966C119.537 36.854 119.533 36.728 119.533 36.588C119.533 36.1027 119.607 35.6593 119.757 35.258C119.906 34.8473 120.125 34.4927 120.415 34.194C120.704 33.8953 121.054 33.6667 121.465 33.508C121.875 33.34 122.347 33.256 122.879 33.256C123.56 33.256 124.148 33.382 124.643 33.634C125.147 33.886 125.539 34.2547 125.819 34.74C126.099 35.216 126.239 35.804 126.239 36.504C126.239 36.8213 126.192 37.1247 126.099 37.414C126.005 37.7033 125.865 37.9833 125.679 38.254C125.501 38.5153 125.287 38.772 125.035 39.024C124.792 39.2667 124.512 39.5093 124.195 39.752C123.887 39.9947 123.551 40.242 123.187 40.494C122.823 40.7367 122.44 40.984 122.039 41.236L121.157 41.768H126.029C126.159 41.768 126.271 41.782 126.365 41.81C126.458 41.838 126.528 41.8987 126.575 41.992C126.631 42.0853 126.659 42.2253 126.659 42.412C126.659 42.5893 126.631 42.7247 126.575 42.818C126.519 42.9113 126.444 42.972 126.351 43C126.257 43.028 126.141 43.042 126.001 43.042H120.149ZM131.358 43.196C130.873 43.196 130.425 43.126 130.014 42.986C129.603 42.8367 129.239 42.636 128.922 42.384C128.614 42.1227 128.371 41.8287 128.194 41.502C128.017 41.1753 127.914 40.8347 127.886 40.48C127.886 40.1533 128.105 39.99 128.544 39.99C128.703 39.99 128.819 40.0087 128.894 40.046C128.969 40.0833 129.025 40.1487 129.062 40.242C129.099 40.326 129.137 40.4473 129.174 40.606C129.277 40.886 129.431 41.1333 129.636 41.348C129.841 41.5533 130.089 41.7167 130.378 41.838C130.677 41.95 131.008 42.006 131.372 42.006C131.811 42.006 132.193 41.9267 132.52 41.768C132.856 41.6093 133.117 41.3947 133.304 41.124C133.491 40.844 133.584 40.5313 133.584 40.186C133.584 39.85 133.491 39.5513 133.304 39.29C133.127 39.0287 132.879 38.828 132.562 38.688C132.254 38.548 131.899 38.478 131.498 38.478C131.339 38.478 131.204 38.464 131.092 38.436C130.98 38.408 130.896 38.352 130.84 38.268C130.793 38.1747 130.77 38.0347 130.77 37.848C130.77 37.6707 130.793 37.54 130.84 37.456C130.896 37.372 130.98 37.316 131.092 37.288C131.204 37.26 131.344 37.246 131.512 37.246C131.885 37.246 132.198 37.19 132.45 37.078C132.711 36.9567 132.907 36.8027 133.038 36.616C133.169 36.42 133.234 36.21 133.234 35.986C133.234 35.678 133.159 35.4073 133.01 35.174C132.87 34.9313 132.665 34.7447 132.394 34.614C132.133 34.4833 131.829 34.418 131.484 34.418C131.185 34.418 130.919 34.46 130.686 34.544C130.462 34.6187 130.257 34.7307 130.07 34.88C129.893 35.0293 129.725 35.2207 129.566 35.454C129.435 35.6593 129.309 35.7807 129.188 35.818C129.067 35.846 128.894 35.7947 128.67 35.664C128.521 35.5613 128.423 35.4587 128.376 35.356C128.339 35.2533 128.353 35.1273 128.418 34.978C128.465 34.8847 128.535 34.768 128.628 34.628C128.721 34.4787 128.847 34.3247 129.006 34.166C129.165 34.0073 129.356 33.858 129.58 33.718C129.804 33.578 130.065 33.466 130.364 33.382C130.672 33.2887 131.027 33.242 131.428 33.242C131.904 33.242 132.333 33.3167 132.716 33.466C133.108 33.606 133.435 33.802 133.696 34.054C133.957 34.306 134.158 34.5953 134.298 34.922C134.438 35.2393 134.508 35.5753 134.508 35.93C134.508 36.2287 134.447 36.5087 134.326 36.77C134.214 37.0313 134.06 37.2553 133.864 37.442C133.668 37.6193 133.467 37.7593 133.262 37.862C133.514 37.946 133.738 38.0767 133.934 38.254C134.13 38.422 134.293 38.6133 134.424 38.828C134.564 39.0427 134.667 39.2667 134.732 39.5C134.807 39.7333 134.844 39.9527 134.844 40.158C134.844 40.7367 134.695 41.2547 134.396 41.712C134.107 42.1693 133.701 42.5333 133.178 42.804C132.655 43.0653 132.049 43.196 131.358 43.196Z" fill="#272A31"/>
<circle cx="18.7449" cy="5.60966" r="4.66697" fill="#D3D3D3"/>
<circle cx="21.866" cy="30" r="20.9644" fill="white"/>
<path d="M16.244 37.342C15.608 37.342 15.05 37.264 14.57 37.108C14.102 36.952 13.7 36.766 13.364 36.55C13.04 36.322 12.782 36.1 12.59 35.884C12.398 35.668 12.266 35.506 12.194 35.398C11.99 35.134 11.864 34.906 11.816 34.714C11.768 34.51 11.792 34.306 11.888 34.102C11.996 33.898 12.176 33.676 12.428 33.436C12.68 33.22 12.914 33.106 13.13 33.094C13.358 33.07 13.58 33.124 13.796 33.256C14.012 33.388 14.222 33.574 14.426 33.814C14.714 34.162 14.996 34.408 15.272 34.552C15.56 34.684 15.86 34.75 16.172 34.75C16.568 34.75 16.904 34.702 17.18 34.606C17.456 34.51 17.666 34.36 17.81 34.156C17.954 33.94 18.026 33.67 18.026 33.346C18.026 33.082 17.924 32.872 17.72 32.716C17.528 32.548 17.264 32.404 16.928 32.284C16.604 32.164 16.238 32.05 15.83 31.942C15.434 31.822 15.038 31.684 14.642 31.528C14.366 31.432 14.102 31.312 13.85 31.168C13.598 31.024 13.358 30.862 13.13 30.682C12.902 30.502 12.704 30.286 12.536 30.034C12.38 29.782 12.254 29.494 12.158 29.17C12.074 28.846 12.032 28.474 12.032 28.054C12.032 27.346 12.206 26.716 12.554 26.164C12.902 25.612 13.382 25.18 13.994 24.868C14.618 24.544 15.332 24.382 16.136 24.382C16.676 24.382 17.144 24.43 17.54 24.526C17.948 24.622 18.29 24.736 18.566 24.868C18.842 25 19.058 25.132 19.214 25.264C19.382 25.384 19.496 25.48 19.556 25.552C19.892 25.864 20.078 26.134 20.114 26.362C20.15 26.578 20.024 26.884 19.736 27.28C19.436 27.7 19.136 27.934 18.836 27.982C18.548 28.03 18.218 27.928 17.846 27.676C17.702 27.544 17.558 27.424 17.414 27.316C17.27 27.208 17.096 27.124 16.892 27.064C16.7 26.992 16.442 26.956 16.118 26.956C15.926 26.956 15.746 26.986 15.578 27.046C15.41 27.094 15.266 27.166 15.146 27.262C15.026 27.358 14.93 27.478 14.858 27.622C14.786 27.754 14.75 27.904 14.75 28.072C14.75 28.348 14.84 28.57 15.02 28.738C15.212 28.906 15.458 29.044 15.758 29.152C16.07 29.248 16.412 29.344 16.784 29.44C17.168 29.524 17.558 29.626 17.954 29.746C18.314 29.866 18.662 30.016 18.998 30.196C19.334 30.364 19.634 30.58 19.898 30.844C20.162 31.108 20.372 31.438 20.528 31.834C20.696 32.23 20.78 32.716 20.78 33.292C20.78 34.012 20.642 34.63 20.366 35.146C20.09 35.662 19.724 36.082 19.268 36.406C18.812 36.73 18.32 36.964 17.792 37.108C17.264 37.264 16.748 37.342 16.244 37.342ZM23.4601 37.162C23.0281 37.162 22.7161 37.102 22.5241 36.982C22.3321 36.85 22.2121 36.676 22.1641 36.46C22.1281 36.244 22.1101 36.022 22.1101 35.794V25.948C22.1101 25.42 22.2121 25.06 22.4161 24.868C22.6201 24.676 22.9861 24.58 23.5141 24.58H30.3181C30.5581 24.58 30.7801 24.604 30.9841 24.652C31.1881 24.688 31.3561 24.802 31.4881 24.994C31.6201 25.186 31.6861 25.51 31.6861 25.966C31.6861 26.398 31.6201 26.71 31.4881 26.902C31.3561 27.094 31.1821 27.214 30.9661 27.262C30.7621 27.298 30.5401 27.316 30.3001 27.316H24.8461V29.638H28.5541C28.7941 29.638 29.0041 29.656 29.1841 29.692C29.3761 29.728 29.5261 29.83 29.6341 29.998C29.7421 30.166 29.7961 30.448 29.7961 30.844C29.7961 31.216 29.7421 31.486 29.6341 31.654C29.5261 31.822 29.3761 31.924 29.1841 31.96C28.9921 31.996 28.7701 32.014 28.5181 32.014H24.8461V34.426H30.3181C30.5581 34.426 30.7801 34.45 30.9841 34.498C31.1881 34.546 31.3561 34.666 31.4881 34.858C31.6201 35.038 31.6861 35.356 31.6861 35.812C31.6861 36.244 31.6201 36.556 31.4881 36.748C31.3561 36.94 31.1821 37.054 30.9661 37.09C30.7621 37.138 30.5401 37.162 30.3001 37.162H23.4601Z" fill="#272A31"/>
<circle cx="21.8659" cy="30" r="18.2234" stroke="#272A31" stroke-width="3"/>
<circle cx="9.82324" cy="12.9216" r="8.92163" fill="white"/>
<circle cx="9.82324" cy="12.9216" r="8.04639" fill="#EC5242"/>
<circle cx="34.2061" cy="6.33491" r="2.70069" fill="#272A31"/>
<mask id="path-9-inside-1_19_24" fill="white">
<path d="M46.1704 47.2737H136.704V54.6551H46.1704V47.2737Z"/>
</mask>
<path d="M46.1704 47.5737H136.704V46.9737H46.1704V47.5737ZM136.704 54.3551H46.1704V54.9551H136.704V54.3551Z" fill="black" mask="url(#path-9-inside-1_19_24)"/>
<path d="M46.9692 52.517C46.9359 52.517 46.9025 52.502 46.8692 52.472C46.8392 52.4386 46.8242 52.402 46.8242 52.362C46.8242 52.3186 46.8225 52.2753 46.8192 52.232C46.8192 52.1886 46.8275 52.1453 46.8442 52.102C46.8642 52.0586 46.9042 52.017 46.9642 51.977C47.1809 51.8336 47.3842 51.7003 47.5742 51.577C47.7675 51.4536 47.9425 51.3353 48.0992 51.222C48.2559 51.1053 48.3892 50.9903 48.4992 50.877C48.6125 50.7603 48.6992 50.6403 48.7592 50.517C48.8192 50.3936 48.8492 50.2603 48.8492 50.117C48.8492 49.947 48.8142 49.8053 48.7442 49.692C48.6775 49.5753 48.5792 49.4886 48.4492 49.432C48.3225 49.372 48.1692 49.342 47.9892 49.342C47.8525 49.342 47.7309 49.362 47.6242 49.402C47.5175 49.442 47.4259 49.502 47.3492 49.582C47.2759 49.6586 47.2192 49.7536 47.1792 49.867C47.1392 49.977 47.1192 50.102 47.1192 50.242C47.1192 50.2853 47.1159 50.3186 47.1092 50.342C47.1025 50.3653 47.0892 50.382 47.0692 50.392C47.0492 50.3986 47.0159 50.402 46.9692 50.402C46.9192 50.402 46.8842 50.3936 46.8642 50.377C46.8442 50.3603 46.8325 50.337 46.8292 50.307C46.8259 50.277 46.8242 50.242 46.8242 50.202C46.8242 50.022 46.8492 49.8603 46.8992 49.717C46.9525 49.5736 47.0292 49.452 47.1292 49.352C47.2292 49.252 47.3509 49.177 47.4942 49.127C47.6375 49.0736 47.8009 49.047 47.9842 49.047C48.2275 49.047 48.4359 49.087 48.6092 49.167C48.7825 49.247 48.9159 49.3686 49.0092 49.532C49.1025 49.6953 49.1492 49.902 49.1492 50.152C49.1492 50.2486 49.1359 50.3436 49.1092 50.437C49.0825 50.5303 49.0409 50.6236 48.9842 50.717C48.9275 50.807 48.8559 50.8986 48.7692 50.992C48.6825 51.0853 48.5792 51.182 48.4592 51.282C48.3425 51.382 48.2075 51.487 48.0542 51.597C47.9009 51.7036 47.7309 51.817 47.5442 51.937L47.1092 52.217H49.1642C49.2009 52.217 49.2292 52.222 49.2492 52.232C49.2725 52.242 49.2875 52.2586 49.2942 52.282C49.3042 52.302 49.3092 52.332 49.3092 52.372C49.3092 52.4086 49.3042 52.4386 49.2942 52.462C49.2842 52.482 49.2675 52.497 49.2442 52.507C49.2242 52.5136 49.1942 52.517 49.1542 52.517H46.9692ZM50.0962 52.567C50.0628 52.567 50.0362 52.562 50.0162 52.552C49.9962 52.542 49.9812 52.527 49.9712 52.507C49.9645 52.4836 49.9612 52.4536 49.9612 52.417V50.317C49.9612 50.2836 49.9645 50.2586 49.9712 50.242C49.9812 50.222 49.9962 50.2086 50.0162 50.202C50.0395 50.192 50.0678 50.187 50.1012 50.187C50.1245 50.187 50.1445 50.1903 50.1612 50.197C50.1778 50.2003 50.1912 50.207 50.2012 50.217C50.2112 50.227 50.2178 50.2403 50.2212 50.257C50.2278 50.2736 50.2312 50.2936 50.2312 50.317V50.612C50.2745 50.5553 50.3228 50.502 50.3762 50.452C50.4295 50.3986 50.4878 50.352 50.5512 50.312C50.6178 50.2686 50.6895 50.2353 50.7662 50.212C50.8462 50.1886 50.9345 50.177 51.0312 50.177C51.1745 50.177 51.3062 50.202 51.4262 50.252C51.5495 50.2986 51.6562 50.3686 51.7462 50.462C51.8362 50.552 51.9062 50.6636 51.9562 50.797C52.0062 50.927 52.0312 51.077 52.0312 51.247V52.422C52.0312 52.4586 52.0262 52.4886 52.0162 52.512C52.0095 52.532 51.9962 52.5453 51.9762 52.552C51.9562 52.562 51.9278 52.567 51.8912 52.567C51.8545 52.567 51.8245 52.562 51.8012 52.552C51.7812 52.542 51.7662 52.527 51.7562 52.507C51.7495 52.4836 51.7462 52.4536 51.7462 52.417V51.242C51.7462 51.0786 51.7195 50.937 51.6662 50.817C51.6128 50.697 51.5328 50.6036 51.4262 50.537C51.3195 50.4703 51.1845 50.437 51.0212 50.437C50.8612 50.437 50.7228 50.4703 50.6062 50.537C50.4895 50.6036 50.3995 50.697 50.3362 50.817C50.2728 50.937 50.2412 51.0786 50.2412 51.242V52.422C50.2412 52.4586 50.2362 52.4886 50.2262 52.512C50.2195 52.532 50.2045 52.5453 50.1812 52.552C50.1612 52.562 50.1328 52.567 50.0962 52.567ZM53.7597 52.572C53.6064 52.572 53.4614 52.5436 53.3247 52.487C53.1914 52.4303 53.0747 52.3486 52.9747 52.242C52.8747 52.1353 52.7964 52.0086 52.7397 51.862C52.6831 51.712 52.6547 51.547 52.6547 51.367C52.6547 51.1903 52.6831 51.0303 52.7397 50.887C52.7964 50.7403 52.8747 50.6153 52.9747 50.512C53.0747 50.4053 53.1914 50.3236 53.3247 50.267C53.4614 50.2103 53.6064 50.182 53.7597 50.182C53.9231 50.182 54.0731 50.2103 54.2097 50.267C54.3464 50.3236 54.4647 50.4053 54.5647 50.512C54.6647 50.6186 54.7414 50.7453 54.7947 50.892C54.8514 51.0386 54.8797 51.202 54.8797 51.382C54.8797 51.562 54.8514 51.7253 54.7947 51.872C54.7414 52.0153 54.6647 52.1403 54.5647 52.247C54.4647 52.3503 54.3464 52.4303 54.2097 52.487C54.0731 52.5436 53.9231 52.572 53.7597 52.572ZM53.8047 52.307C53.9714 52.307 54.1197 52.2686 54.2497 52.192C54.3797 52.112 54.4831 52.0036 54.5597 51.867C54.6364 51.727 54.6747 51.5653 54.6747 51.382C54.6747 51.1953 54.6364 51.032 54.5597 50.892C54.4831 50.752 54.3781 50.6436 54.2447 50.567C54.1147 50.487 53.9681 50.447 53.8047 50.447C53.6414 50.447 53.4931 50.487 53.3597 50.567C53.2264 50.6436 53.1214 50.752 53.0447 50.892C52.9681 51.032 52.9297 51.1953 52.9297 51.382C52.9297 51.5653 52.9681 51.727 53.0447 51.867C53.1214 52.0036 53.2264 52.112 53.3597 52.192C53.4931 52.2686 53.6414 52.307 53.8047 52.307ZM54.8347 52.572C54.7814 52.572 54.7431 52.5603 54.7197 52.537C54.6997 52.5136 54.6897 52.4753 54.6897 52.422V49.237C54.6897 49.197 54.6931 49.167 54.6997 49.147C54.7097 49.1236 54.7247 49.107 54.7447 49.097C54.7681 49.087 54.7964 49.082 54.8297 49.082C54.8664 49.082 54.8947 49.087 54.9147 49.097C54.9347 49.107 54.9497 49.1236 54.9597 49.147C54.9697 49.167 54.9747 49.1953 54.9747 49.232V52.417C54.9747 52.4536 54.9697 52.4836 54.9597 52.507C54.9531 52.5303 54.9397 52.547 54.9197 52.557C54.8997 52.567 54.8714 52.572 54.8347 52.572ZM57.5821 50.792C57.6587 50.792 57.7287 50.8053 57.7921 50.832C57.8587 50.8586 57.9204 50.892 57.9771 50.932C58.0337 50.9686 58.0887 51.007 58.1421 51.047C58.1954 51.0836 58.2487 51.1153 58.3021 51.142C58.3554 51.1686 58.4087 51.182 58.4621 51.182C58.4954 51.182 58.5287 51.1736 58.5621 51.157C58.5954 51.1403 58.6287 51.1186 58.6621 51.092C58.6954 51.0653 58.7254 51.0353 58.7521 51.002C58.7787 50.9686 58.8004 50.9353 58.8171 50.902C58.8337 50.8653 58.8637 50.842 58.9071 50.832C58.9504 50.8186 58.9921 50.8236 59.0321 50.847C59.0587 50.8603 59.0771 50.8786 59.0871 50.902C59.0971 50.922 59.1021 50.9486 59.1021 50.982C59.1021 51.0286 59.0837 51.082 59.0471 51.142C59.0104 51.1986 58.9604 51.2536 58.8971 51.307C58.8371 51.357 58.7687 51.3986 58.6921 51.432C58.6154 51.4653 58.5371 51.482 58.4571 51.482C58.3704 51.482 58.2937 51.4703 58.2271 51.447C58.1637 51.4203 58.1054 51.3886 58.0521 51.352C57.9987 51.312 57.9471 51.2736 57.8971 51.237C57.8504 51.197 57.8004 51.1653 57.7471 51.142C57.6971 51.1153 57.6421 51.102 57.5821 51.102C57.5487 51.102 57.5121 51.1086 57.4721 51.122C57.4321 51.1353 57.3937 51.1553 57.3571 51.182C57.3204 51.2053 57.2871 51.232 57.2571 51.262C57.2304 51.292 57.2087 51.3236 57.1921 51.357C57.1821 51.377 57.1671 51.392 57.1471 51.402C57.1271 51.412 57.1037 51.417 57.0771 51.417C57.0504 51.4136 57.0237 51.4053 56.9971 51.392C56.9637 51.3753 56.9404 51.3503 56.9271 51.317C56.9137 51.2803 56.9137 51.247 56.9271 51.217C56.9504 51.1603 56.9854 51.107 57.0321 51.057C57.0821 51.007 57.1371 50.962 57.1971 50.922C57.2604 50.882 57.3237 50.8503 57.3871 50.827C57.4537 50.8036 57.5187 50.792 57.5821 50.792ZM62.1698 52.577C61.9965 52.577 61.8381 52.552 61.6948 52.502C61.5548 52.452 61.4315 52.3836 61.3248 52.297C61.2181 52.2103 61.1331 52.112 61.0698 52.002C61.0098 51.892 60.9731 51.777 60.9598 51.657C60.9598 51.5703 61.0098 51.527 61.1098 51.527C61.1531 51.527 61.1831 51.5336 61.1998 51.547C61.2198 51.557 61.2331 51.577 61.2398 51.607C61.2498 51.637 61.2598 51.677 61.2698 51.727C61.3165 51.8603 61.3848 51.9703 61.4748 52.057C61.5648 52.1403 61.6698 52.2036 61.7898 52.247C61.9098 52.287 62.0381 52.307 62.1748 52.307C62.3548 52.307 62.5131 52.2736 62.6498 52.207C62.7865 52.1403 62.8931 52.0486 62.9698 51.932C63.0465 51.8153 63.0848 51.6836 63.0848 51.537C63.0848 51.397 63.0465 51.2736 62.9698 51.167C62.8931 51.057 62.7898 50.972 62.6598 50.912C62.5298 50.8486 62.3831 50.817 62.2198 50.817C62.1665 50.817 62.1248 50.812 62.0948 50.802C62.0681 50.792 62.0498 50.777 62.0398 50.757C62.0298 50.7336 62.0248 50.7036 62.0248 50.667C62.0248 50.6303 62.0298 50.602 62.0398 50.582C62.0498 50.562 62.0681 50.547 62.0948 50.537C62.1248 50.527 62.1681 50.522 62.2248 50.522C62.3815 50.522 62.5131 50.4953 62.6198 50.442C62.7265 50.3886 62.8065 50.3203 62.8598 50.237C62.9165 50.1536 62.9448 50.067 62.9448 49.977C62.9448 49.847 62.9131 49.732 62.8498 49.632C62.7898 49.5286 62.7048 49.4486 62.5948 49.392C62.4848 49.3353 62.3565 49.307 62.2098 49.307C62.0965 49.307 61.9931 49.322 61.8998 49.352C61.8065 49.382 61.7198 49.4286 61.6398 49.492C61.5631 49.552 61.4898 49.632 61.4198 49.732C61.3798 49.7853 61.3481 49.8153 61.3248 49.822C61.3015 49.8253 61.2598 49.8086 61.1998 49.772C61.1765 49.7553 61.1581 49.7386 61.1448 49.722C61.1315 49.702 61.1298 49.6803 61.1398 49.657C61.1631 49.6103 61.1931 49.5603 61.2298 49.507C61.2698 49.4503 61.3181 49.3953 61.3748 49.342C61.4348 49.2853 61.5031 49.2353 61.5798 49.192C61.6598 49.1453 61.7498 49.1086 61.8498 49.082C61.9531 49.052 62.0698 49.037 62.1998 49.037C62.3598 49.037 62.5048 49.062 62.6348 49.112C62.7648 49.1586 62.8748 49.2236 62.9648 49.307C63.0548 49.3903 63.1231 49.487 63.1698 49.597C63.2198 49.707 63.2448 49.8253 63.2448 49.952C63.2448 50.0553 63.2231 50.1553 63.1798 50.252C63.1365 50.3453 63.0781 50.4286 63.0048 50.502C62.9315 50.572 62.8515 50.627 62.7648 50.667C62.8748 50.7036 62.9681 50.757 63.0448 50.827C63.1215 50.8936 63.1848 50.9686 63.2348 51.052C63.2848 51.1353 63.3215 51.2186 63.3448 51.302C63.3681 51.3853 63.3798 51.4603 63.3798 51.527C63.3798 51.7236 63.3281 51.902 63.2248 52.062C63.1248 52.222 62.9831 52.3486 62.7998 52.442C62.6198 52.532 62.4098 52.577 62.1698 52.577ZM64.1636 52.572C64.1302 52.572 64.1036 52.567 64.0836 52.557C64.0636 52.547 64.0486 52.5303 64.0386 52.507C64.0319 52.4836 64.0286 52.4536 64.0286 52.417V50.332C64.0286 50.292 64.0319 50.262 64.0386 50.242C64.0486 50.2186 64.0636 50.2036 64.0836 50.197C64.1036 50.1903 64.1319 50.187 64.1686 50.187C64.2019 50.187 64.2286 50.1903 64.2486 50.197C64.2719 50.2036 64.2886 50.2186 64.2986 50.242C64.3086 50.262 64.3136 50.292 64.3136 50.332V50.542C64.3469 50.4853 64.3802 50.4336 64.4136 50.387C64.4469 50.3403 64.4869 50.3003 64.5336 50.267C64.5802 50.2303 64.6369 50.202 64.7036 50.182C64.7736 50.162 64.8602 50.152 64.9636 50.152C65.0169 50.152 65.0652 50.157 65.1086 50.167C65.1552 50.177 65.1969 50.1903 65.2336 50.207C65.2736 50.2236 65.3069 50.242 65.3336 50.262C65.3602 50.282 65.3802 50.302 65.3936 50.322C65.4069 50.342 65.4136 50.362 65.4136 50.382C65.4136 50.4253 65.3952 50.462 65.3586 50.492C65.3219 50.522 65.2886 50.537 65.2586 50.537C65.2219 50.537 65.1936 50.532 65.1736 50.522C65.1569 50.5086 65.1386 50.4936 65.1186 50.477C65.0986 50.4603 65.0686 50.447 65.0286 50.437C64.9886 50.4236 64.9269 50.417 64.8436 50.417C64.7936 50.417 64.7386 50.4286 64.6786 50.452C64.6186 50.472 64.5602 50.5036 64.5036 50.547C64.4502 50.5903 64.4052 50.647 64.3686 50.717C64.3319 50.787 64.3136 50.8703 64.3136 50.967V52.427C64.3136 52.4636 64.3086 52.4936 64.2986 52.517C64.2919 52.537 64.2769 52.5503 64.2536 52.557C64.2336 52.567 64.2036 52.572 64.1636 52.572ZM66.8945 52.572C66.7412 52.572 66.5962 52.5436 66.4595 52.487C66.3262 52.4303 66.2095 52.3486 66.1095 52.242C66.0095 52.1353 65.9312 52.0086 65.8745 51.862C65.8178 51.712 65.7895 51.547 65.7895 51.367C65.7895 51.1903 65.8178 51.0303 65.8745 50.887C65.9312 50.7403 66.0095 50.6153 66.1095 50.512C66.2095 50.4053 66.3262 50.3236 66.4595 50.267C66.5962 50.2103 66.7412 50.182 66.8945 50.182C67.0578 50.182 67.2078 50.2103 67.3445 50.267C67.4812 50.3236 67.5995 50.4053 67.6995 50.512C67.7995 50.6186 67.8762 50.7453 67.9295 50.892C67.9862 51.0386 68.0145 51.202 68.0145 51.382C68.0145 51.562 67.9862 51.7253 67.9295 51.872C67.8762 52.0153 67.7995 52.1403 67.6995 52.247C67.5995 52.3503 67.4812 52.4303 67.3445 52.487C67.2078 52.5436 67.0578 52.572 66.8945 52.572ZM66.9395 52.307C67.1062 52.307 67.2545 52.2686 67.3845 52.192C67.5145 52.112 67.6178 52.0036 67.6945 51.867C67.7712 51.727 67.8095 51.5653 67.8095 51.382C67.8095 51.1953 67.7712 51.032 67.6945 50.892C67.6178 50.752 67.5128 50.6436 67.3795 50.567C67.2495 50.487 67.1028 50.447 66.9395 50.447C66.7762 50.447 66.6278 50.487 66.4945 50.567C66.3612 50.6436 66.2562 50.752 66.1795 50.892C66.1028 51.032 66.0645 51.1953 66.0645 51.382C66.0645 51.5653 66.1028 51.727 66.1795 51.867C66.2562 52.0036 66.3612 52.112 66.4945 52.192C66.6278 52.2686 66.7762 52.307 66.9395 52.307ZM67.9695 52.572C67.9162 52.572 67.8778 52.5603 67.8545 52.537C67.8345 52.5136 67.8245 52.4753 67.8245 52.422V49.237C67.8245 49.197 67.8278 49.167 67.8345 49.147C67.8445 49.1236 67.8595 49.107 67.8795 49.097C67.9028 49.087 67.9312 49.082 67.9645 49.082C68.0012 49.082 68.0295 49.087 68.0495 49.097C68.0695 49.107 68.0845 49.1236 68.0945 49.147C68.1045 49.167 68.1095 49.1953 68.1095 49.232V52.417C68.1095 52.4536 68.1045 52.4836 68.0945 52.507C68.0878 52.5303 68.0745 52.547 68.0545 52.557C68.0345 52.567 68.0062 52.572 67.9695 52.572ZM71.0118 52.572C70.9285 52.572 70.8452 52.5636 70.7618 52.547C70.6785 52.5303 70.5985 52.507 70.5218 52.477C70.4452 52.4436 70.3735 52.4053 70.3068 52.362C70.2402 52.3153 70.1802 52.2653 70.1268 52.212C70.0935 52.1786 70.0668 52.1503 70.0468 52.127C70.0268 52.1036 70.0168 52.0836 70.0168 52.067C70.0168 52.047 70.0252 52.0253 70.0418 52.002C70.0585 51.9786 70.0718 51.962 70.0818 51.952C70.1118 51.922 70.1335 51.9036 70.1468 51.897C70.1635 51.8903 70.1802 51.887 70.1968 51.887C70.2335 51.887 70.2618 51.902 70.2818 51.932C70.3018 51.9586 70.3435 51.9986 70.4068 52.052C70.4468 52.082 70.4985 52.117 70.5618 52.157C70.6252 52.1936 70.6968 52.2253 70.7768 52.252C70.8568 52.2786 70.9418 52.292 71.0318 52.292C71.1618 52.292 71.2718 52.2686 71.3618 52.222C71.4552 52.1753 71.5302 52.1103 71.5868 52.027C71.6468 51.9403 71.6902 51.8403 71.7168 51.727C71.7468 51.6103 71.7618 51.4853 71.7618 51.352V49.272C71.7618 49.2253 71.7668 49.1886 71.7768 49.162C71.7868 49.132 71.8035 49.112 71.8268 49.102C71.8502 49.0886 71.8818 49.082 71.9218 49.082C71.9552 49.082 71.9818 49.087 72.0018 49.097C72.0218 49.107 72.0352 49.1236 72.0418 49.147C72.0518 49.167 72.0568 49.197 72.0568 49.237V51.392C72.0568 51.5686 72.0352 51.7303 71.9918 51.877C71.9518 52.0203 71.8885 52.1436 71.8018 52.247C71.7185 52.3503 71.6102 52.4303 71.4768 52.487C71.3468 52.5436 71.1918 52.572 71.0118 52.572ZM74.8533 52.567C74.8067 52.567 74.7733 52.5553 74.7533 52.532C74.7333 52.5086 74.72 52.4653 74.7133 52.402V52.067C74.6767 52.1303 74.6183 52.202 74.5383 52.282C74.4617 52.3586 74.36 52.427 74.2333 52.487C74.11 52.5436 73.96 52.572 73.7833 52.572C73.62 52.572 73.4683 52.542 73.3283 52.482C73.1917 52.4186 73.0717 52.332 72.9683 52.222C72.865 52.112 72.7833 51.9853 72.7233 51.842C72.6667 51.6953 72.6383 51.537 72.6383 51.367C72.6383 51.2036 72.6667 51.052 72.7233 50.912C72.7833 50.7686 72.865 50.6436 72.9683 50.537C73.075 50.427 73.1967 50.342 73.3333 50.282C73.4733 50.2186 73.6233 50.187 73.7833 50.187C73.94 50.187 74.0733 50.207 74.1833 50.247C74.2967 50.287 74.395 50.342 74.4783 50.412C74.565 50.482 74.6433 50.5636 74.7133 50.657V50.372C74.7133 50.3053 74.7233 50.2586 74.7433 50.232C74.7667 50.202 74.805 50.187 74.8583 50.187C74.8917 50.187 74.9167 50.1936 74.9333 50.207C74.9533 50.217 74.9667 50.2353 74.9733 50.262C74.9833 50.2886 74.9883 50.3253 74.9883 50.372V52.402C74.9883 52.442 74.9833 52.4753 74.9733 52.502C74.9667 52.5253 74.9533 52.542 74.9333 52.552C74.9133 52.562 74.8867 52.567 74.8533 52.567ZM73.8383 52.312C73.9983 52.312 74.1433 52.272 74.2733 52.192C74.4033 52.1086 74.5067 51.997 74.5833 51.857C74.66 51.717 74.6983 51.557 74.6983 51.377C74.6983 51.187 74.6583 51.022 74.5783 50.882C74.4983 50.742 74.3917 50.6336 74.2583 50.557C74.1283 50.477 73.985 50.437 73.8283 50.437C73.645 50.437 73.485 50.4786 73.3483 50.562C73.2117 50.6453 73.105 50.7586 73.0283 50.902C72.9517 51.042 72.9133 51.2036 72.9133 51.387C72.9133 51.5636 72.9517 51.722 73.0283 51.862C73.105 52.002 73.2133 52.112 73.3533 52.192C73.4933 52.272 73.655 52.312 73.8383 52.312ZM75.8237 52.567C75.7904 52.567 75.7637 52.562 75.7437 52.552C75.7237 52.542 75.7087 52.527 75.6987 52.507C75.6921 52.4836 75.6887 52.4536 75.6887 52.417V50.317C75.6887 50.2836 75.6921 50.2586 75.6987 50.242C75.7087 50.222 75.7237 50.2086 75.7437 50.202C75.7671 50.192 75.7954 50.187 75.8287 50.187C75.8521 50.187 75.8721 50.1903 75.8887 50.197C75.9054 50.2003 75.9187 50.207 75.9287 50.217C75.9387 50.227 75.9454 50.2403 75.9487 50.257C75.9554 50.2736 75.9587 50.2936 75.9587 50.317V50.612C76.0021 50.5553 76.0504 50.502 76.1037 50.452C76.1571 50.3986 76.2154 50.352 76.2787 50.312C76.3454 50.2686 76.4171 50.2353 76.4937 50.212C76.5737 50.1886 76.6621 50.177 76.7587 50.177C76.9021 50.177 77.0337 50.202 77.1537 50.252C77.2771 50.2986 77.3837 50.3686 77.4737 50.462C77.5637 50.552 77.6337 50.6636 77.6837 50.797C77.7337 50.927 77.7587 51.077 77.7587 51.247V52.422C77.7587 52.4586 77.7537 52.4886 77.7437 52.512C77.7371 52.532 77.7237 52.5453 77.7037 52.552C77.6837 52.562 77.6554 52.567 77.6187 52.567C77.5821 52.567 77.5521 52.562 77.5287 52.552C77.5087 52.542 77.4937 52.527 77.4837 52.507C77.4771 52.4836 77.4737 52.4536 77.4737 52.417V51.242C77.4737 51.0786 77.4471 50.937 77.3937 50.817C77.3404 50.697 77.2604 50.6036 77.1537 50.537C77.0471 50.4703 76.9121 50.437 76.7487 50.437C76.5887 50.437 76.4504 50.4703 76.3337 50.537C76.2171 50.6036 76.1271 50.697 76.0637 50.817C76.0004 50.937 75.9687 51.0786 75.9687 51.242V52.422C75.9687 52.4586 75.9637 52.4886 75.9537 52.512C75.9471 52.532 75.9321 52.5453 75.9087 52.552C75.8887 52.562 75.8604 52.567 75.8237 52.567ZM79.8061 52.517C79.7728 52.517 79.7394 52.502 79.7061 52.472C79.6761 52.4386 79.6611 52.402 79.6611 52.362C79.6611 52.3186 79.6594 52.2753 79.6561 52.232C79.6561 52.1886 79.6644 52.1453 79.6811 52.102C79.7011 52.0586 79.7411 52.017 79.8011 51.977C80.0178 51.8336 80.2211 51.7003 80.4111 51.577C80.6044 51.4536 80.7794 51.3353 80.9361 51.222C81.0928 51.1053 81.2261 50.9903 81.3361 50.877C81.4494 50.7603 81.5361 50.6403 81.5961 50.517C81.6561 50.3936 81.6861 50.2603 81.6861 50.117C81.6861 49.947 81.6511 49.8053 81.5811 49.692C81.5144 49.5753 81.4161 49.4886 81.2861 49.432C81.1594 49.372 81.0061 49.342 80.8261 49.342C80.6894 49.342 80.5678 49.362 80.4611 49.402C80.3544 49.442 80.2628 49.502 80.1861 49.582C80.1128 49.6586 80.0561 49.7536 80.0161 49.867C79.9761 49.977 79.9561 50.102 79.9561 50.242C79.9561 50.2853 79.9528 50.3186 79.9461 50.342C79.9394 50.3653 79.9261 50.382 79.9061 50.392C79.8861 50.3986 79.8528 50.402 79.8061 50.402C79.7561 50.402 79.7211 50.3936 79.7011 50.377C79.6811 50.3603 79.6694 50.337 79.6661 50.307C79.6628 50.277 79.6611 50.242 79.6611 50.202C79.6611 50.022 79.6861 49.8603 79.7361 49.717C79.7894 49.5736 79.8661 49.452 79.9661 49.352C80.0661 49.252 80.1878 49.177 80.3311 49.127C80.4744 49.0736 80.6378 49.047 80.8211 49.047C81.0644 49.047 81.2728 49.087 81.4461 49.167C81.6194 49.247 81.7528 49.3686 81.8461 49.532C81.9394 49.6953 81.9861 49.902 81.9861 50.152C81.9861 50.2486 81.9728 50.3436 81.9461 50.437C81.9194 50.5303 81.8778 50.6236 81.8211 50.717C81.7644 50.807 81.6928 50.8986 81.6061 50.992C81.5194 51.0853 81.4161 51.182 81.2961 51.282C81.1794 51.382 81.0444 51.487 80.8911 51.597C80.7378 51.7036 80.5678 51.817 80.3811 51.937L79.9461 52.217H82.0011C82.0378 52.217 82.0661 52.222 82.0861 52.232C82.1094 52.242 82.1244 52.2586 82.1311 52.282C82.1411 52.302 82.1461 52.332 82.1461 52.372C82.1461 52.4086 82.1411 52.4386 82.1311 52.462C82.1211 52.482 82.1044 52.497 82.0811 52.507C82.0611 52.5136 82.0311 52.517 81.9911 52.517H79.8061ZM83.9281 52.582C83.7681 52.582 83.6231 52.5586 83.4931 52.512C83.3631 52.462 83.2481 52.3886 83.1481 52.292C83.0481 52.1953 82.9648 52.0753 82.8981 51.932C82.8314 51.7886 82.7814 51.6236 82.7481 51.437C82.7148 51.2503 82.6981 51.042 82.6981 50.812C82.6981 50.5853 82.7148 50.3803 82.7481 50.197C82.7814 50.0103 82.8314 49.847 82.8981 49.707C82.9648 49.5636 83.0464 49.4436 83.1431 49.347C83.2431 49.247 83.3581 49.172 83.4881 49.122C83.6181 49.072 83.7614 49.047 83.9181 49.047C84.0714 49.047 84.2114 49.072 84.3381 49.122C84.4648 49.172 84.5764 49.247 84.6731 49.347C84.7698 49.4436 84.8514 49.5636 84.9181 49.707C84.9848 49.8503 85.0348 50.0153 85.0681 50.202C85.1014 50.3853 85.1181 50.5903 85.1181 50.817C85.1181 51.0436 85.1014 51.2503 85.0681 51.437C85.0348 51.6203 84.9848 51.7836 84.9181 51.927C84.8548 52.0703 84.7748 52.1903 84.6781 52.287C84.5814 52.3836 84.4698 52.457 84.3431 52.507C84.2198 52.557 84.0814 52.582 83.9281 52.582ZM83.9031 52.282C84.0864 52.282 84.2348 52.2436 84.3481 52.167C84.4648 52.0903 84.5548 51.992 84.6181 51.872C84.6848 51.752 84.7314 51.6253 84.7581 51.492C84.7881 51.3586 84.8064 51.2336 84.8131 51.117C84.8198 51.0003 84.8231 50.9086 84.8231 50.842V50.812C84.8231 50.502 84.7881 50.237 84.7181 50.017C84.6514 49.797 84.5498 49.6303 84.4131 49.517C84.2798 49.4003 84.1131 49.342 83.9131 49.342C83.7098 49.342 83.5398 49.4003 83.4031 49.517C83.2664 49.6303 83.1631 49.797 83.0931 50.017C83.0264 50.2336 82.9931 50.5003 82.9931 50.817C82.9931 51.127 83.0264 51.392 83.0931 51.612C83.1631 51.8286 83.2648 51.9953 83.3981 52.112C83.5348 52.2253 83.7031 52.282 83.9031 52.282ZM85.8168 52.517C85.7835 52.517 85.7502 52.502 85.7168 52.472C85.6868 52.4386 85.6718 52.402 85.6718 52.362C85.6718 52.3186 85.6702 52.2753 85.6668 52.232C85.6668 52.1886 85.6752 52.1453 85.6918 52.102C85.7118 52.0586 85.7518 52.017 85.8118 51.977C86.0285 51.8336 86.2318 51.7003 86.4218 51.577C86.6152 51.4536 86.7902 51.3353 86.9468 51.222C87.1035 51.1053 87.2368 50.9903 87.3468 50.877C87.4602 50.7603 87.5468 50.6403 87.6068 50.517C87.6668 50.3936 87.6968 50.2603 87.6968 50.117C87.6968 49.947 87.6618 49.8053 87.5918 49.692C87.5252 49.5753 87.4268 49.4886 87.2968 49.432C87.1702 49.372 87.0168 49.342 86.8368 49.342C86.7002 49.342 86.5785 49.362 86.4718 49.402C86.3652 49.442 86.2735 49.502 86.1968 49.582C86.1235 49.6586 86.0668 49.7536 86.0268 49.867C85.9868 49.977 85.9668 50.102 85.9668 50.242C85.9668 50.2853 85.9635 50.3186 85.9568 50.342C85.9502 50.3653 85.9368 50.382 85.9168 50.392C85.8968 50.3986 85.8635 50.402 85.8168 50.402C85.7668 50.402 85.7318 50.3936 85.7118 50.377C85.6918 50.3603 85.6802 50.337 85.6768 50.307C85.6735 50.277 85.6718 50.242 85.6718 50.202C85.6718 50.022 85.6968 49.8603 85.7468 49.717C85.8002 49.5736 85.8768 49.452 85.9768 49.352C86.0768 49.252 86.1985 49.177 86.3418 49.127C86.4852 49.0736 86.6485 49.047 86.8318 49.047C87.0752 49.047 87.2835 49.087 87.4568 49.167C87.6302 49.247 87.7635 49.3686 87.8568 49.532C87.9502 49.6953 87.9968 49.902 87.9968 50.152C87.9968 50.2486 87.9835 50.3436 87.9568 50.437C87.9302 50.5303 87.8885 50.6236 87.8318 50.717C87.7752 50.807 87.7035 50.8986 87.6168 50.992C87.5302 51.0853 87.4268 51.182 87.3068 51.282C87.1902 51.382 87.0552 51.487 86.9018 51.597C86.7485 51.7036 86.5785 51.817 86.3918 51.937L85.9568 52.217H88.0118C88.0485 52.217 88.0768 52.222 88.0968 52.232C88.1202 52.242 88.1352 52.2586 88.1418 52.282C88.1518 52.302 88.1568 52.332 88.1568 52.372C88.1568 52.4086 88.1518 52.4386 88.1418 52.462C88.1318 52.482 88.1152 52.497 88.0918 52.507C88.0718 52.5136 88.0418 52.517 88.0018 52.517H85.8168ZM89.9188 52.577C89.7455 52.577 89.5872 52.552 89.4438 52.502C89.3038 52.452 89.1805 52.3836 89.0738 52.297C88.9672 52.2103 88.8822 52.112 88.8188 52.002C88.7588 51.892 88.7222 51.777 88.7088 51.657C88.7088 51.5703 88.7588 51.527 88.8588 51.527C88.9022 51.527 88.9322 51.5336 88.9488 51.547C88.9688 51.557 88.9822 51.577 88.9888 51.607C88.9988 51.637 89.0088 51.677 89.0188 51.727C89.0655 51.8603 89.1338 51.9703 89.2238 52.057C89.3138 52.1403 89.4188 52.2036 89.5388 52.247C89.6588 52.287 89.7872 52.307 89.9238 52.307C90.1038 52.307 90.2622 52.2736 90.3988 52.207C90.5355 52.1403 90.6422 52.0486 90.7188 51.932C90.7955 51.8153 90.8338 51.6836 90.8338 51.537C90.8338 51.397 90.7955 51.2736 90.7188 51.167C90.6422 51.057 90.5388 50.972 90.4088 50.912C90.2788 50.8486 90.1322 50.817 89.9688 50.817C89.9155 50.817 89.8738 50.812 89.8438 50.802C89.8172 50.792 89.7988 50.777 89.7888 50.757C89.7788 50.7336 89.7738 50.7036 89.7738 50.667C89.7738 50.6303 89.7788 50.602 89.7888 50.582C89.7988 50.562 89.8172 50.547 89.8438 50.537C89.8738 50.527 89.9172 50.522 89.9738 50.522C90.1305 50.522 90.2622 50.4953 90.3688 50.442C90.4755 50.3886 90.5555 50.3203 90.6088 50.237C90.6655 50.1536 90.6938 50.067 90.6938 49.977C90.6938 49.847 90.6622 49.732 90.5988 49.632C90.5388 49.5286 90.4538 49.4486 90.3438 49.392C90.2338 49.3353 90.1055 49.307 89.9588 49.307C89.8455 49.307 89.7422 49.322 89.6488 49.352C89.5555 49.382 89.4688 49.4286 89.3888 49.492C89.3122 49.552 89.2388 49.632 89.1688 49.732C89.1288 49.7853 89.0972 49.8153 89.0738 49.822C89.0505 49.8253 89.0088 49.8086 88.9488 49.772C88.9255 49.7553 88.9072 49.7386 88.8938 49.722C88.8805 49.702 88.8788 49.6803 88.8888 49.657C88.9122 49.6103 88.9422 49.5603 88.9788 49.507C89.0188 49.4503 89.0672 49.3953 89.1238 49.342C89.1838 49.2853 89.2522 49.2353 89.3288 49.192C89.4088 49.1453 89.4988 49.1086 89.5988 49.082C89.7022 49.052 89.8188 49.037 89.9488 49.037C90.1088 49.037 90.2538 49.062 90.3838 49.112C90.5138 49.1586 90.6238 49.2236 90.7138 49.307C90.8038 49.3903 90.8722 49.487 90.9188 49.597C90.9688 49.707 90.9938 49.8253 90.9938 49.952C90.9938 50.0553 90.9722 50.1553 90.9288 50.252C90.8855 50.3453 90.8272 50.4286 90.7538 50.502C90.6805 50.572 90.6005 50.627 90.5138 50.667C90.6238 50.7036 90.7172 50.757 90.7938 50.827C90.8705 50.8936 90.9338 50.9686 90.9838 51.052C91.0338 51.1353 91.0705 51.2186 91.0938 51.302C91.1172 51.3853 91.1288 51.4603 91.1288 51.527C91.1288 51.7236 91.0772 51.902 90.9738 52.062C90.8738 52.222 90.7322 52.3486 90.5488 52.442C90.3688 52.532 90.1588 52.577 89.9188 52.577ZM93.2614 53.532C93.2281 53.532 93.1997 53.527 93.1764 53.517C93.1564 53.507 93.1414 53.4903 93.1314 53.467C93.1247 53.447 93.1214 53.4186 93.1214 53.382V49.227C93.1214 49.1903 93.1247 49.162 93.1314 49.142C93.1414 49.1186 93.1564 49.1036 93.1764 49.097C93.1997 49.087 93.2297 49.082 93.2664 49.082C93.3031 49.082 93.3314 49.087 93.3514 49.097C93.3714 49.107 93.3847 49.1236 93.3914 49.147C93.4014 49.167 93.4064 49.197 93.4064 49.237V53.387C93.4064 53.4236 93.4014 53.452 93.3914 53.472C93.3847 53.4953 93.3697 53.5103 93.3464 53.517C93.3264 53.527 93.2981 53.532 93.2614 53.532ZM95.5882 52.5665C95.5612 52.5665 95.5372 52.5605 95.5162 52.5485C95.4982 52.5395 95.4832 52.5245 95.4712 52.5035C95.4622 52.4825 95.4577 52.457 95.4577 52.427V49.556C95.4577 49.526 95.4622 49.502 95.4712 49.484C95.4832 49.466 95.4997 49.4525 95.5207 49.4435C95.5417 49.4315 95.5672 49.4255 95.5972 49.4255C95.6272 49.4255 95.6527 49.427 95.6737 49.43C95.6947 49.433 95.7127 49.439 95.7277 49.448C95.7457 49.457 95.7622 49.4705 95.7772 49.4885L97.0372 51.3605H96.8572L98.1352 49.4705C98.1472 49.4555 98.1607 49.445 98.1757 49.439C98.1937 49.433 98.2132 49.43 98.2342 49.43C98.2582 49.427 98.2837 49.4255 98.3107 49.4255C98.3407 49.4255 98.3647 49.4315 98.3827 49.4435C98.4037 49.4525 98.4187 49.4675 98.4277 49.4885C98.4397 49.5095 98.4457 49.535 98.4457 49.565V52.436C98.4457 52.463 98.4397 52.487 98.4277 52.508C98.4187 52.526 98.4037 52.5395 98.3827 52.5485C98.3617 52.5605 98.3362 52.5665 98.3062 52.5665C98.2792 52.5665 98.2552 52.5605 98.2342 52.5485C98.2162 52.5395 98.2012 52.5245 98.1892 52.5035C98.1802 52.4825 98.1757 52.457 98.1757 52.427V49.844L97.0687 51.4955C97.0597 51.5075 97.0492 51.518 97.0372 51.527C97.0252 51.536 97.0117 51.5435 96.9967 51.5495C96.9817 51.5525 96.9652 51.554 96.9472 51.554C96.9292 51.554 96.9142 51.5525 96.9022 51.5495C96.8902 51.5435 96.8782 51.536 96.8662 51.527C96.8572 51.518 96.8437 51.5045 96.8257 51.4865L95.7232 49.844V52.436C95.7232 52.463 95.7172 52.487 95.7052 52.508C95.6962 52.526 95.6812 52.5395 95.6602 52.5485C95.6422 52.5605 95.6182 52.5665 95.5882 52.5665ZM100.928 52.562C100.886 52.562 100.856 52.5515 100.838 52.5305C100.82 52.5095 100.808 52.4705 100.802 52.4135V52.112C100.769 52.169 100.716 52.2335 100.644 52.3055C100.575 52.3745 100.484 52.436 100.37 52.49C100.259 52.541 100.124 52.5665 99.9647 52.5665C99.8177 52.5665 99.6812 52.5395 99.5552 52.4855C99.4322 52.4285 99.3242 52.3505 99.2312 52.2515C99.1382 52.1525 99.0647 52.0385 99.0107 51.9095C98.9597 51.7775 98.9342 51.635 98.9342 51.482C98.9342 51.335 98.9597 51.1985 99.0107 51.0725C99.0647 50.9435 99.1382 50.831 99.2312 50.735C99.3272 50.636 99.4367 50.5595 99.5597 50.5055C99.6857 50.4485 99.8207 50.42 99.9647 50.42C100.106 50.42 100.226 50.438 100.325 50.474C100.427 50.51 100.515 50.5595 100.59 50.6225C100.668 50.6855 100.739 50.759 100.802 50.843V50.5865C100.802 50.5265 100.811 50.4845 100.829 50.4605C100.85 50.4335 100.884 50.42 100.932 50.42C100.962 50.42 100.985 50.426 101 50.438C101.018 50.447 101.03 50.4635 101.036 50.4875C101.045 50.5115 101.049 50.5445 101.049 50.5865V52.4135C101.049 52.4495 101.045 52.4795 101.036 52.5035C101.03 52.5245 101.018 52.5395 101 52.5485C100.982 52.5575 100.958 52.562 100.928 52.562ZM100.014 52.3325C100.158 52.3325 100.289 52.2965 100.406 52.2245C100.523 52.1495 100.616 52.049 100.685 51.923C100.754 51.797 100.788 51.653 100.788 51.491C100.788 51.32 100.752 51.1715 100.68 51.0455C100.608 50.9195 100.512 50.822 100.392 50.753C100.275 50.681 100.146 50.645 100.005 50.645C99.8402 50.645 99.6962 50.6825 99.5732 50.7575C99.4502 50.8325 99.3542 50.9345 99.2852 51.0635C99.2162 51.1895 99.1817 51.335 99.1817 51.5C99.1817 51.659 99.2162 51.8015 99.2852 51.9275C99.3542 52.0535 99.4517 52.1525 99.5777 52.2245C99.7037 52.2965 99.8492 52.3325 100.014 52.3325ZM101.801 52.562C101.771 52.562 101.747 52.5575 101.729 52.5485C101.711 52.5395 101.698 52.526 101.689 52.508C101.683 52.487 101.68 52.46 101.68 52.427V50.537C101.68 50.507 101.683 50.4845 101.689 50.4695C101.698 50.4515 101.711 50.4395 101.729 50.4335C101.75 50.4245 101.776 50.42 101.806 50.42C101.827 50.42 101.845 50.423 101.86 50.429C101.875 50.432 101.887 50.438 101.896 50.447C101.905 50.456 101.911 50.468 101.914 50.483C101.92 50.498 101.923 50.516 101.923 50.537V50.8025C101.962 50.7515 102.005 50.7035 102.053 50.6585C102.101 50.6105 102.154 50.5685 102.211 50.5325C102.271 50.4935 102.335 50.4635 102.404 50.4425C102.476 50.4215 102.556 50.411 102.643 50.411C102.772 50.411 102.89 50.4335 102.998 50.4785C103.109 50.5205 103.205 50.5835 103.286 50.6675C103.367 50.7485 103.43 50.849 103.475 50.969C103.52 51.086 103.543 51.221 103.543 51.374V52.4315C103.543 52.4645 103.538 52.4915 103.529 52.5125C103.523 52.5305 103.511 52.5425 103.493 52.5485C103.475 52.5575 103.45 52.562 103.417 52.562C103.384 52.562 103.357 52.5575 103.336 52.5485C103.318 52.5395 103.304 52.526 103.295 52.508C103.289 52.487 103.286 52.46 103.286 52.427V51.3695C103.286 51.2225 103.262 51.095 103.214 50.987C103.166 50.879 103.094 50.795 102.998 50.735C102.902 50.675 102.781 50.645 102.634 50.645C102.49 50.645 102.365 50.675 102.26 50.735C102.155 50.795 102.074 50.879 102.017 50.987C101.96 51.095 101.932 51.2225 101.932 51.3695V52.4315C101.932 52.4645 101.927 52.4915 101.918 52.5125C101.912 52.5305 101.899 52.5425 101.878 52.5485C101.86 52.5575 101.834 52.562 101.801 52.562ZM105.098 52.5665C104.96 52.5665 104.83 52.541 104.707 52.49C104.587 52.439 104.482 52.3655 104.392 52.2695C104.302 52.1735 104.231 52.0595 104.18 51.9275C104.129 51.7925 104.104 51.644 104.104 51.482C104.104 51.323 104.129 51.179 104.18 51.05C104.231 50.918 104.302 50.8055 104.392 50.7125C104.482 50.6165 104.587 50.543 104.707 50.492C104.83 50.441 104.96 50.4155 105.098 50.4155C105.245 50.4155 105.38 50.441 105.503 50.492C105.626 50.543 105.733 50.6165 105.823 50.7125C105.913 50.8085 105.982 50.9225 106.03 51.0545C106.081 51.1865 106.106 51.3335 106.106 51.4955C106.106 51.6575 106.081 51.8045 106.03 51.9365C105.982 52.0655 105.913 52.178 105.823 52.274C105.733 52.367 105.626 52.439 105.503 52.49C105.38 52.541 105.245 52.5665 105.098 52.5665ZM105.139 52.328C105.289 52.328 105.422 52.2935 105.539 52.2245C105.656 52.1525 105.749 52.055 105.818 51.932C105.887 51.806 105.922 51.6605 105.922 51.4955C105.922 51.3275 105.887 51.1805 105.818 51.0545C105.749 50.9285 105.655 50.831 105.535 50.762C105.418 50.69 105.286 50.654 105.139 50.654C104.992 50.654 104.858 50.69 104.738 50.762C104.618 50.831 104.524 50.9285 104.455 51.0545C104.386 51.1805 104.351 51.3275 104.351 51.4955C104.351 51.6605 104.386 51.806 104.455 51.932C104.524 52.055 104.618 52.1525 104.738 52.2245C104.858 52.2935 104.992 52.328 105.139 52.328ZM106.066 52.5665C106.018 52.5665 105.983 52.556 105.962 52.535C105.944 52.514 105.935 52.4795 105.935 52.4315V49.565C105.935 49.529 105.938 49.502 105.944 49.484C105.953 49.463 105.967 49.448 105.985 49.439C106.006 49.43 106.031 49.4255 106.061 49.4255C106.094 49.4255 106.12 49.43 106.138 49.439C106.156 49.448 106.169 49.463 106.178 49.484C106.187 49.502 106.192 49.5275 106.192 49.5605V52.427C106.192 52.46 106.187 52.487 106.178 52.508C106.172 52.529 106.16 52.544 106.142 52.553C106.124 52.562 106.099 52.5665 106.066 52.5665ZM108.623 52.562C108.581 52.562 108.551 52.5515 108.533 52.5305C108.515 52.5095 108.503 52.4705 108.497 52.4135V52.112C108.464 52.169 108.411 52.2335 108.339 52.3055C108.27 52.3745 108.179 52.436 108.065 52.49C107.954 52.541 107.819 52.5665 107.66 52.5665C107.513 52.5665 107.376 52.5395 107.25 52.4855C107.127 52.4285 107.019 52.3505 106.926 52.2515C106.833 52.1525 106.76 52.0385 106.706 51.9095C106.655 51.7775 106.629 51.635 106.629 51.482C106.629 51.335 106.655 51.1985 106.706 51.0725C106.76 50.9435 106.833 50.831 106.926 50.735C107.022 50.636 107.132 50.5595 107.255 50.5055C107.381 50.4485 107.516 50.42 107.66 50.42C107.801 50.42 107.921 50.438 108.02 50.474C108.122 50.51 108.21 50.5595 108.285 50.6225C108.363 50.6855 108.434 50.759 108.497 50.843V50.5865C108.497 50.5265 108.506 50.4845 108.524 50.4605C108.545 50.4335 108.579 50.42 108.627 50.42C108.657 50.42 108.68 50.426 108.695 50.438C108.713 50.447 108.725 50.4635 108.731 50.4875C108.74 50.5115 108.744 50.5445 108.744 50.5865V52.4135C108.744 52.4495 108.74 52.4795 108.731 52.5035C108.725 52.5245 108.713 52.5395 108.695 52.5485C108.677 52.5575 108.653 52.562 108.623 52.562ZM107.709 52.3325C107.853 52.3325 107.984 52.2965 108.101 52.2245C108.218 52.1495 108.311 52.049 108.38 51.923C108.449 51.797 108.483 51.653 108.483 51.491C108.483 51.32 108.447 51.1715 108.375 51.0455C108.303 50.9195 108.207 50.822 108.087 50.753C107.97 50.681 107.841 50.645 107.7 50.645C107.535 50.645 107.391 50.6825 107.268 50.7575C107.145 50.8325 107.049 50.9345 106.98 51.0635C106.911 51.1895 106.877 51.335 106.877 51.5C106.877 51.659 106.911 51.8015 106.98 51.9275C107.049 52.0535 107.147 52.1525 107.273 52.2245C107.399 52.2965 107.544 52.3325 107.709 52.3325ZM109.964 52.5665C109.88 52.5665 109.803 52.5575 109.734 52.5395C109.668 52.5215 109.61 52.4945 109.559 52.4585C109.508 52.4225 109.464 52.3775 109.428 52.3235C109.395 52.2695 109.37 52.2065 109.352 52.1345C109.337 52.0625 109.329 51.983 109.329 51.896V49.556C109.329 49.52 109.332 49.493 109.338 49.475C109.347 49.454 109.361 49.439 109.379 49.43C109.4 49.421 109.425 49.4165 109.455 49.4165C109.488 49.4165 109.514 49.421 109.532 49.43C109.553 49.436 109.568 49.448 109.577 49.466C109.586 49.484 109.59 49.5095 109.59 49.5425V51.905C109.59 51.971 109.598 52.0295 109.613 52.0805C109.628 52.1285 109.65 52.1705 109.68 52.2065C109.713 52.2395 109.752 52.265 109.797 52.283C109.845 52.298 109.899 52.3055 109.959 52.3055C109.995 52.3055 110.022 52.31 110.04 52.319C110.061 52.325 110.076 52.3385 110.085 52.3595C110.094 52.3775 110.099 52.403 110.099 52.436C110.099 52.469 110.094 52.496 110.085 52.517C110.076 52.535 110.061 52.547 110.04 52.553C110.022 52.562 109.997 52.5665 109.964 52.5665ZM112.455 52.562C112.413 52.562 112.383 52.5515 112.365 52.5305C112.347 52.5095 112.335 52.4705 112.329 52.4135V52.112C112.296 52.169 112.243 52.2335 112.171 52.3055C112.102 52.3745 112.011 52.436 111.897 52.49C111.786 52.541 111.651 52.5665 111.492 52.5665C111.345 52.5665 111.208 52.5395 111.082 52.4855C110.959 52.4285 110.851 52.3505 110.758 52.2515C110.665 52.1525 110.592 52.0385 110.538 51.9095C110.487 51.7775 110.461 51.635 110.461 51.482C110.461 51.335 110.487 51.1985 110.538 51.0725C110.592 50.9435 110.665 50.831 110.758 50.735C110.854 50.636 110.964 50.5595 111.087 50.5055C111.213 50.4485 111.348 50.42 111.492 50.42C111.633 50.42 111.753 50.438 111.852 50.474C111.954 50.51 112.042 50.5595 112.117 50.6225C112.195 50.6855 112.266 50.759 112.329 50.843V50.5865C112.329 50.5265 112.338 50.4845 112.356 50.4605C112.377 50.4335 112.411 50.42 112.459 50.42C112.489 50.42 112.512 50.426 112.527 50.438C112.545 50.447 112.557 50.4635 112.563 50.4875C112.572 50.5115 112.576 50.5445 112.576 50.5865V52.4135C112.576 52.4495 112.572 52.4795 112.563 52.5035C112.557 52.5245 112.545 52.5395 112.527 52.5485C112.509 52.5575 112.485 52.562 112.455 52.562ZM111.541 52.3325C111.685 52.3325 111.816 52.2965 111.933 52.2245C112.05 52.1495 112.143 52.049 112.212 51.923C112.281 51.797 112.315 51.653 112.315 51.491C112.315 51.32 112.279 51.1715 112.207 51.0455C112.135 50.9195 112.039 50.822 111.919 50.753C111.802 50.681 111.673 50.645 111.532 50.645C111.367 50.645 111.223 50.6825 111.1 50.7575C110.977 50.8325 110.881 50.9345 110.812 51.0635C110.743 51.1895 110.709 51.335 110.709 51.5C110.709 51.659 110.743 51.8015 110.812 51.9275C110.881 52.0535 110.979 52.1525 111.105 52.2245C111.231 52.2965 111.376 52.3325 111.541 52.3325ZM113.515 53.4215C113.47 53.4035 113.443 53.381 113.434 53.354C113.428 53.33 113.435 53.294 113.456 53.246L114.685 50.492C114.706 50.444 114.728 50.414 114.752 50.402C114.779 50.39 114.815 50.3945 114.86 50.4155C114.905 50.4365 114.931 50.4605 114.937 50.4875C114.943 50.5145 114.935 50.5505 114.914 50.5955L113.681 53.3585C113.66 53.4065 113.638 53.4335 113.614 53.4395C113.593 53.4455 113.56 53.4395 113.515 53.4215ZM113.987 52.202L112.975 50.627C112.948 50.585 112.937 50.5505 112.943 50.5235C112.949 50.4965 112.972 50.471 113.011 50.447C113.053 50.42 113.087 50.4095 113.114 50.4155C113.144 50.4215 113.173 50.4455 113.2 50.4875L114.122 51.95L113.987 52.202ZM115.114 52.823C115.114 52.823 115.111 52.8215 115.105 52.8185C115.102 52.8185 115.098 52.8125 115.092 52.8005C115.086 52.7915 115.083 52.7765 115.083 52.7555C115.083 52.7195 115.087 52.697 115.096 52.688C115.108 52.682 115.114 52.679 115.114 52.679C115.114 52.679 115.128 52.6685 115.155 52.6475C115.185 52.6265 115.201 52.5875 115.204 52.5305C115.183 52.5275 115.165 52.523 115.15 52.517C115.138 52.511 115.126 52.502 115.114 52.49C115.099 52.475 115.09 52.4555 115.087 52.4315C115.084 52.4075 115.083 52.3835 115.083 52.3595C115.083 52.3295 115.084 52.3025 115.087 52.2785C115.093 52.2515 115.108 52.2305 115.132 52.2155C115.156 52.1975 115.197 52.1885 115.254 52.1885C115.32 52.1885 115.366 52.202 115.393 52.229C115.408 52.244 115.417 52.2635 115.42 52.2875C115.423 52.3115 115.425 52.337 115.425 52.364C115.425 52.376 115.425 52.388 115.425 52.4C115.425 52.412 115.423 52.424 115.42 52.436C115.414 52.502 115.396 52.565 115.366 52.625C115.339 52.685 115.303 52.733 115.258 52.769C115.216 52.805 115.168 52.823 115.114 52.823ZM117.442 52.5665C117.415 52.5665 117.391 52.5605 117.37 52.5485C117.352 52.5395 117.337 52.5245 117.325 52.5035C117.316 52.4825 117.312 52.457 117.312 52.427V49.556C117.312 49.526 117.316 49.502 117.325 49.484C117.337 49.466 117.354 49.4525 117.375 49.4435C117.396 49.4315 117.421 49.4255 117.451 49.4255C117.481 49.4255 117.507 49.427 117.528 49.43C117.549 49.433 117.567 49.439 117.582 49.448C117.6 49.457 117.616 49.4705 117.631 49.4885L118.891 51.3605H118.711L119.989 49.4705C120.001 49.4555 120.015 49.445 120.03 49.439C120.048 49.433 120.067 49.43 120.088 49.43C120.112 49.427 120.138 49.4255 120.165 49.4255C120.195 49.4255 120.219 49.4315 120.237 49.4435C120.258 49.4525 120.273 49.4675 120.282 49.4885C120.294 49.5095 120.3 49.535 120.3 49.565V52.436C120.3 52.463 120.294 52.487 120.282 52.508C120.273 52.526 120.258 52.5395 120.237 52.5485C120.216 52.5605 120.19 52.5665 120.16 52.5665C120.133 52.5665 120.109 52.5605 120.088 52.5485C120.07 52.5395 120.055 52.5245 120.043 52.5035C120.034 52.4825 120.03 52.457 120.03 52.427V49.844L118.923 51.4955C118.914 51.5075 118.903 51.518 118.891 51.527C118.879 51.536 118.866 51.5435 118.851 51.5495C118.836 51.5525 118.819 51.554 118.801 51.554C118.783 51.554 118.768 51.5525 118.756 51.5495C118.744 51.5435 118.732 51.536 118.72 51.527C118.711 51.518 118.698 51.5045 118.68 51.4865L117.577 49.844V52.436C117.577 52.463 117.571 52.487 117.559 52.508C117.55 52.526 117.535 52.5395 117.514 52.5485C117.496 52.5605 117.472 52.5665 117.442 52.5665ZM121.227 53.4215C121.182 53.4035 121.155 53.381 121.146 53.354C121.14 53.33 121.147 53.294 121.168 53.246L122.397 50.492C122.418 50.444 122.44 50.414 122.464 50.402C122.491 50.39 122.527 50.3945 122.572 50.4155C122.617 50.4365 122.643 50.4605 122.649 50.4875C122.655 50.5145 122.647 50.5505 122.626 50.5955L121.393 53.3585C121.372 53.4065 121.35 53.4335 121.326 53.4395C121.305 53.4455 121.272 53.4395 121.227 53.4215ZM121.699 52.202L120.687 50.627C120.66 50.585 120.649 50.5505 120.655 50.5235C120.661 50.4965 120.684 50.471 120.723 50.447C120.765 50.42 120.799 50.4095 120.826 50.4155C120.856 50.4215 120.885 50.4455 120.912 50.4875L121.834 51.95L121.699 52.202ZM124.979 52.562C124.937 52.562 124.907 52.5515 124.889 52.5305C124.871 52.5095 124.859 52.4705 124.853 52.4135V52.112C124.82 52.169 124.767 52.2335 124.695 52.3055C124.626 52.3745 124.535 52.436 124.421 52.49C124.31 52.541 124.175 52.5665 124.016 52.5665C123.869 52.5665 123.732 52.5395 123.606 52.4855C123.483 52.4285 123.375 52.3505 123.282 52.2515C123.189 52.1525 123.116 52.0385 123.062 51.9095C123.011 51.7775 122.985 51.635 122.985 51.482C122.985 51.335 123.011 51.1985 123.062 51.0725C123.116 50.9435 123.189 50.831 123.282 50.735C123.378 50.636 123.488 50.5595 123.611 50.5055C123.737 50.4485 123.872 50.42 124.016 50.42C124.157 50.42 124.277 50.438 124.376 50.474C124.478 50.51 124.566 50.5595 124.641 50.6225C124.719 50.6855 124.79 50.759 124.853 50.843V50.5865C124.853 50.5265 124.862 50.4845 124.88 50.4605C124.901 50.4335 124.935 50.42 124.983 50.42C125.013 50.42 125.036 50.426 125.051 50.438C125.069 50.447 125.081 50.4635 125.087 50.4875C125.096 50.5115 125.1 50.5445 125.1 50.5865V52.4135C125.1 52.4495 125.096 52.4795 125.087 52.5035C125.081 52.5245 125.069 52.5395 125.051 52.5485C125.033 52.5575 125.009 52.562 124.979 52.562ZM124.065 52.3325C124.209 52.3325 124.34 52.2965 124.457 52.2245C124.574 52.1495 124.667 52.049 124.736 51.923C124.805 51.797 124.839 51.653 124.839 51.491C124.839 51.32 124.803 51.1715 124.731 51.0455C124.659 50.9195 124.563 50.822 124.443 50.753C124.326 50.681 124.197 50.645 124.056 50.645C123.891 50.645 123.747 50.6825 123.624 50.7575C123.501 50.8325 123.405 50.9345 123.336 51.0635C123.267 51.1895 123.233 51.335 123.233 51.5C123.233 51.659 123.267 51.8015 123.336 51.9275C123.405 52.0535 123.503 52.1525 123.629 52.2245C123.755 52.2965 123.9 52.3325 124.065 52.3325ZM125.852 52.562C125.822 52.562 125.798 52.5575 125.78 52.5485C125.762 52.5395 125.749 52.526 125.74 52.508C125.734 52.487 125.731 52.46 125.731 52.427V50.537C125.731 50.507 125.734 50.4845 125.74 50.4695C125.749 50.4515 125.762 50.4395 125.78 50.4335C125.801 50.4245 125.827 50.42 125.857 50.42C125.878 50.42 125.896 50.423 125.911 50.429C125.926 50.432 125.938 50.438 125.947 50.447C125.956 50.456 125.962 50.468 125.965 50.483C125.971 50.498 125.974 50.516 125.974 50.537V50.8025C126.013 50.7515 126.056 50.7035 126.104 50.6585C126.152 50.6105 126.205 50.5685 126.262 50.5325C126.322 50.4935 126.386 50.4635 126.455 50.4425C126.527 50.4215 126.607 50.411 126.694 50.411C126.823 50.411 126.941 50.4335 127.049 50.4785C127.16 50.5205 127.256 50.5835 127.337 50.6675C127.418 50.7485 127.481 50.849 127.526 50.969C127.571 51.086 127.594 51.221 127.594 51.374V52.4315C127.594 52.4645 127.589 52.4915 127.58 52.5125C127.574 52.5305 127.562 52.5425 127.544 52.5485C127.526 52.5575 127.501 52.562 127.468 52.562C127.435 52.562 127.408 52.5575 127.387 52.5485C127.369 52.5395 127.355 52.526 127.346 52.508C127.34 52.487 127.337 52.46 127.337 52.427V51.3695C127.337 51.2225 127.313 51.095 127.265 50.987C127.217 50.879 127.145 50.795 127.049 50.735C126.953 50.675 126.832 50.645 126.685 50.645C126.541 50.645 126.416 50.675 126.311 50.735C126.206 50.795 126.125 50.879 126.068 50.987C126.011 51.095 125.983 51.2225 125.983 51.3695V52.4315C125.983 52.4645 125.978 52.4915 125.969 52.5125C125.963 52.5305 125.95 52.5425 125.929 52.5485C125.911 52.5575 125.885 52.562 125.852 52.562ZM128.344 52.562C128.314 52.562 128.29 52.5575 128.272 52.5485C128.254 52.5395 128.241 52.526 128.232 52.508C128.226 52.487 128.223 52.46 128.223 52.427V50.537C128.223 50.507 128.226 50.4845 128.232 50.4695C128.241 50.4515 128.254 50.4395 128.272 50.4335C128.293 50.4245 128.319 50.42 128.349 50.42C128.391 50.42 128.421 50.429 128.439 50.447C128.457 50.465 128.466 50.495 128.466 50.537V50.807C128.493 50.744 128.53 50.6885 128.578 50.6405C128.629 50.5925 128.686 50.552 128.749 50.519C128.812 50.483 128.877 50.456 128.943 50.438C129.012 50.42 129.078 50.411 129.141 50.411C129.249 50.411 129.345 50.432 129.429 50.474C129.516 50.516 129.592 50.576 129.658 50.654C129.724 50.729 129.78 50.822 129.825 50.933C129.894 50.813 129.963 50.7155 130.032 50.6405C130.104 50.5625 130.183 50.5055 130.27 50.4695C130.36 50.4305 130.461 50.411 130.572 50.411C130.743 50.411 130.884 50.453 130.995 50.537C131.109 50.621 131.194 50.738 131.251 50.888C131.308 51.038 131.337 51.215 131.337 51.419V52.4315C131.337 52.4645 131.332 52.4915 131.323 52.5125C131.317 52.5305 131.305 52.5425 131.287 52.5485C131.269 52.5575 131.244 52.562 131.211 52.562C131.178 52.562 131.151 52.5575 131.13 52.5485C131.112 52.5395 131.098 52.526 131.089 52.508C131.083 52.487 131.08 52.46 131.08 52.427V51.4145C131.08 51.2615 131.061 51.128 131.022 51.014C130.986 50.897 130.93 50.807 130.855 50.744C130.78 50.678 130.683 50.645 130.563 50.645C130.437 50.645 130.324 50.678 130.225 50.744C130.126 50.807 130.048 50.897 129.991 51.014C129.934 51.128 129.906 51.2615 129.906 51.4145V52.436C129.906 52.475 129.895 52.505 129.874 52.526C129.856 52.55 129.832 52.5635 129.802 52.5665C129.775 52.5725 129.75 52.5695 129.726 52.5575C129.708 52.5515 129.693 52.5425 129.681 52.5305C129.669 52.5215 129.66 52.508 129.654 52.49C129.651 52.472 129.649 52.451 129.649 52.427V51.4145C129.649 51.2615 129.63 51.128 129.591 51.014C129.555 50.897 129.499 50.807 129.424 50.744C129.349 50.678 129.252 50.645 129.132 50.645C129.006 50.645 128.893 50.678 128.794 50.744C128.695 50.807 128.617 50.897 128.56 51.014C128.503 51.128 128.475 51.2615 128.475 51.4145V52.4315C128.475 52.4645 128.47 52.4915 128.461 52.5125C128.455 52.5305 128.442 52.5425 128.421 52.5485C128.403 52.5575 128.377 52.562 128.344 52.562ZM133.847 52.562C133.805 52.562 133.775 52.5515 133.757 52.5305C133.739 52.5095 133.727 52.4705 133.721 52.4135V52.112C133.688 52.169 133.636 52.2335 133.564 52.3055C133.495 52.3745 133.403 52.436 133.289 52.49C133.178 52.541 133.043 52.5665 132.884 52.5665C132.737 52.5665 132.601 52.5395 132.475 52.4855C132.352 52.4285 132.244 52.3505 132.151 52.2515C132.058 52.1525 131.984 52.0385 131.93 51.9095C131.879 51.7775 131.854 51.635 131.854 51.482C131.854 51.335 131.879 51.1985 131.93 51.0725C131.984 50.9435 132.058 50.831 132.151 50.735C132.247 50.636 132.356 50.5595 132.479 50.5055C132.605 50.4485 132.74 50.42 132.884 50.42C133.025 50.42 133.145 50.438 133.244 50.474C133.346 50.51 133.435 50.5595 133.51 50.6225C133.588 50.6855 133.658 50.759 133.721 50.843V50.5865C133.721 50.5265 133.73 50.4845 133.748 50.4605C133.769 50.4335 133.804 50.42 133.852 50.42C133.882 50.42 133.904 50.426 133.919 50.438C133.937 50.447 133.949 50.4635 133.955 50.4875C133.964 50.5115 133.969 50.5445 133.969 50.5865V52.4135C133.969 52.4495 133.964 52.4795 133.955 52.5035C133.949 52.5245 133.937 52.5395 133.919 52.5485C133.901 52.5575 133.877 52.562 133.847 52.562ZM132.934 52.3325C133.078 52.3325 133.208 52.2965 133.325 52.2245C133.442 52.1495 133.535 52.049 133.604 51.923C133.673 51.797 133.708 51.653 133.708 51.491C133.708 51.32 133.672 51.1715 133.6 51.0455C133.528 50.9195 133.432 50.822 133.312 50.753C133.195 50.681 133.066 50.645 132.925 50.645C132.76 50.645 132.616 50.6825 132.493 50.7575C132.37 50.8325 132.274 50.9345 132.205 51.0635C132.136 51.1895 132.101 51.335 132.101 51.5C132.101 51.659 132.136 51.8015 132.205 51.9275C132.274 52.0535 132.371 52.1525 132.497 52.2245C132.623 52.2965 132.769 52.3325 132.934 52.3325ZM134.72 52.5665C134.69 52.5665 134.666 52.562 134.648 52.553C134.63 52.544 134.617 52.529 134.608 52.508C134.602 52.487 134.599 52.46 134.599 52.427V50.5505C134.599 50.5145 134.602 50.4875 134.608 50.4695C134.617 50.4485 134.63 50.435 134.648 50.429C134.666 50.423 134.692 50.42 134.725 50.42C134.755 50.42 134.779 50.423 134.797 50.429C134.818 50.435 134.833 50.4485 134.842 50.4695C134.851 50.4875 134.855 50.5145 134.855 50.5505V50.7395C134.885 50.6885 134.915 50.642 134.945 50.6C134.975 50.558 135.011 50.522 135.053 50.492C135.095 50.459 135.146 50.4335 135.206 50.4155C135.269 50.3975 135.347 50.3885 135.44 50.3885C135.488 50.3885 135.532 50.393 135.571 50.402C135.613 50.411 135.65 50.423 135.683 50.438C135.719 50.453 135.749 50.4695 135.773 50.4875C135.797 50.5055 135.815 50.5235 135.827 50.5415C135.839 50.5595 135.845 50.5775 135.845 50.5955C135.845 50.6345 135.829 50.6675 135.796 50.6945C135.763 50.7215 135.733 50.735 135.706 50.735C135.673 50.735 135.647 50.7305 135.629 50.7215C135.614 50.7095 135.598 50.696 135.58 50.681C135.562 50.666 135.535 50.654 135.499 50.645C135.463 50.633 135.407 50.627 135.332 50.627C135.287 50.627 135.238 50.6375 135.184 50.6585C135.13 50.6765 135.077 50.705 135.026 50.744C134.978 50.783 134.938 50.834 134.905 50.897C134.872 50.96 134.855 51.035 134.855 51.122V52.436C134.855 52.469 134.851 52.496 134.842 52.517C134.836 52.535 134.822 52.547 134.801 52.553C134.783 52.562 134.756 52.5665 134.72 52.5665Z" fill="black"/>
</svg>
