<svg width="153" height="47" viewBox="0 0 153 47" fill="none" xmlns="http://www.w3.org/2000/svg">
<path d="M23.3855 36.9486H5.59253V15.2299C5.59253 14.3705 5.54696 13.6934 5.45581 13.1986C5.37769 12.6908 5.24748 12.3262 5.06519 12.1049C4.79175 11.8444 4.47274 11.6491 4.10815 11.5189C3.75659 11.3757 3.33341 11.3041 2.83862 11.3041H1.84253V10.5033H6.94019C7.34383 10.5033 7.68237 10.5944 7.95581 10.7767C8.22925 10.959 8.4506 11.1999 8.61987 11.4994C8.78914 11.7858 8.91935 12.1179 9.0105 12.4955C9.10164 12.8601 9.16675 13.2377 9.20581 13.6283C9.24487 14.0059 9.2644 14.377 9.2644 14.7416C9.2644 15.1062 9.2644 15.4187 9.2644 15.6791V32.3002C9.2644 32.7689 9.28394 33.1726 9.323 33.5111C9.36206 33.8366 9.42716 34.1101 9.51831 34.3314C9.60946 34.5398 9.72013 34.7025 9.85034 34.8197C9.99357 34.9369 10.1563 35.0215 10.3386 35.0736C10.4819 35.1648 10.7944 35.2168 11.2761 35.2299C11.7579 35.2429 12.4285 35.2494 13.2878 35.2494H23.3855V36.9486ZM50.0066 10.4838V26.0502C50.0066 27.3783 49.9415 28.5502 49.8113 29.5658C49.6811 30.5684 49.4988 31.4343 49.2644 32.1635C49.004 32.9056 48.6134 33.5957 48.0925 34.2338C47.5847 34.8588 46.9402 35.4252 46.1589 35.933C45.3777 36.4799 44.4662 36.877 43.4246 37.1244C42.3829 37.3718 41.1915 37.4955 39.8503 37.4955C36.9988 37.4955 34.8048 37.0072 33.2683 36.0306C32.5261 35.5228 31.8881 34.9304 31.3542 34.2533C30.8204 33.5762 30.4102 32.821 30.1238 31.9877C29.9024 31.3887 29.7397 30.5489 29.6355 29.4681C29.5444 28.3874 29.4988 27.0658 29.4988 25.5033V15.1713C29.4988 13.5046 29.2579 12.4304 28.7761 11.9486C28.5938 11.6882 28.3204 11.5059 27.9558 11.4017C27.6042 11.2845 27.1746 11.226 26.6667 11.226H25.6707V10.4838H32.155C32.4936 10.4838 32.741 10.5489 32.8972 10.6791C33.0665 10.8093 33.1772 11.0502 33.2292 11.4017C33.2813 11.7403 33.3009 12.2155 33.2878 12.8275C33.2748 13.4265 33.2683 14.2077 33.2683 15.1713V26.6947C33.2683 27.1895 33.2878 27.7364 33.3269 28.3353C33.366 28.9213 33.4311 29.5267 33.5222 30.1517C33.6264 30.8549 33.7631 31.4603 33.9324 31.9681C34.1016 32.476 34.31 32.9122 34.5574 33.2767C34.7787 33.6413 35.0652 33.9799 35.4167 34.2924C35.7813 34.6049 36.1915 34.8718 36.6472 35.0931C37.1029 35.3275 37.6238 35.5163 38.2097 35.6595C38.7957 35.7898 39.4272 35.8549 40.1042 35.8549C40.9897 35.8549 41.797 35.7637 42.5261 35.5814C43.2683 35.3861 43.991 35.1062 44.6941 34.7416C45.3972 34.3249 45.9766 33.8822 46.4324 33.4135C46.8881 32.9447 47.2592 32.4108 47.5457 31.8119C47.767 31.2129 47.9363 30.4187 48.0535 29.4291C48.1837 28.4395 48.2488 27.2546 48.2488 25.8744V10.4838H50.0066ZM70.6121 22.3197L76.2566 30.8158C76.9988 31.9747 77.6303 32.9056 78.1511 33.6088C78.672 34.2989 79.1537 34.8327 79.5964 35.2103C80.0391 35.5879 80.4884 35.8483 80.9441 35.9916C81.4128 36.1218 81.9597 36.2129 82.5847 36.265V36.9681H78.6589C77.8516 36.9681 77.1746 36.8575 76.6277 36.6361C76.0938 36.4017 75.6121 36.0762 75.1824 35.6595C74.7657 35.2429 74.3621 34.7416 73.9714 34.1556C73.5938 33.5567 73.1576 32.8926 72.6628 32.1635L68.2097 25.347L59.2644 36.9681H57.2136L67.3113 23.9213C66.2306 22.3067 65.2865 20.9135 64.4792 19.7416C63.672 18.5567 62.9753 17.5476 62.3894 16.7142C61.8035 15.8809 61.3087 15.1973 60.905 14.6635C60.5014 14.1296 60.1563 13.6999 59.8699 13.3744C59.5964 13.0489 59.3621 12.8015 59.1667 12.6322C58.9714 12.4629 58.7957 12.3262 58.6394 12.222C58.1446 11.9095 57.6108 11.6687 57.0378 11.4994C56.4779 11.3301 55.8855 11.2455 55.2605 11.2455V10.5424H60.7878C61.3738 10.5424 61.9011 10.6856 62.3699 10.972C62.8386 11.2455 63.2618 11.5905 63.6394 12.0072C64.03 12.4239 64.3816 12.8861 64.6941 13.3939C65.0196 13.9017 65.3321 14.377 65.6316 14.8197L69.6355 20.8939L77.7605 10.4447H79.7332L70.6121 22.3197ZM107.819 10.4838V26.0502C107.819 27.3783 107.754 28.5502 107.624 29.5658C107.494 30.5684 107.311 31.4343 107.077 32.1635C106.816 32.9056 106.426 33.5957 105.905 34.2338C105.397 34.8588 104.753 35.4252 103.971 35.933C103.19 36.4799 102.279 36.877 101.237 37.1244C100.195 37.3718 99.004 37.4955 97.6628 37.4955C94.8113 37.4955 92.6173 37.0072 91.0808 36.0306C90.3386 35.5228 89.7006 34.9304 89.1667 34.2533C88.6329 33.5762 88.2227 32.821 87.9363 31.9877C87.7149 31.3887 87.5522 30.5489 87.448 29.4681C87.3569 28.3874 87.3113 27.0658 87.3113 25.5033V15.1713C87.3113 13.5046 87.0704 12.4304 86.5886 11.9486C86.4063 11.6882 86.1329 11.5059 85.7683 11.4017C85.4167 11.2845 84.9871 11.226 84.4792 11.226H83.4832V10.4838H89.9675C90.3061 10.4838 90.5535 10.5489 90.7097 10.6791C90.879 10.8093 90.9897 11.0502 91.0417 11.4017C91.0938 11.7403 91.1134 12.2155 91.1003 12.8275C91.0873 13.4265 91.0808 14.2077 91.0808 15.1713V26.6947C91.0808 27.1895 91.1003 27.7364 91.1394 28.3353C91.1785 28.9213 91.2436 29.5267 91.3347 30.1517C91.4389 30.8549 91.5756 31.4603 91.7449 31.9681C91.9141 32.476 92.1225 32.9122 92.3699 33.2767C92.5912 33.6413 92.8777 33.9799 93.2292 34.2924C93.5938 34.6049 94.004 34.8718 94.4597 35.0931C94.9154 35.3275 95.4363 35.5163 96.0222 35.6595C96.6082 35.7898 97.2397 35.8549 97.9167 35.8549C98.8022 35.8549 99.6095 35.7637 100.339 35.5814C101.081 35.3861 101.803 35.1062 102.507 34.7416C103.21 34.3249 103.789 33.8822 104.245 33.4135C104.701 32.9447 105.072 32.4108 105.358 31.8119C105.58 31.2129 105.749 30.4187 105.866 29.4291C105.996 28.4395 106.061 27.2546 106.061 25.8744V10.4838H107.819ZM139.05 36.9877H133.718C133.34 36.9877 133.034 36.9747 132.8 36.9486C132.565 36.9095 132.35 36.8314 132.155 36.7142C131.96 36.597 131.764 36.4213 131.569 36.1869C131.374 35.9395 131.126 35.6075 130.827 35.1908L123.21 24.5463C122.897 24.5593 122.63 24.5788 122.409 24.6049C122.188 24.6179 121.973 24.6309 121.764 24.6439C121.569 24.6439 121.367 24.6374 121.159 24.6244C120.951 24.6114 120.703 24.5853 120.417 24.5463V36.9877H116.764V15.1517C116.764 14.2924 116.719 13.6153 116.628 13.1205C116.55 12.6127 116.419 12.2481 116.237 12.0267C115.69 11.4799 114.941 11.2064 113.991 11.2064H112.995V10.4056H122.487C123.932 10.4056 125.163 10.4642 126.178 10.5814C127.207 10.6986 128.04 10.8483 128.678 11.0306C129.316 11.252 129.922 11.5515 130.495 11.9291C131.068 12.3067 131.569 12.7624 131.999 13.2963C132.428 13.8301 132.767 14.4356 133.014 15.1127C133.275 15.7767 133.405 16.5124 133.405 17.3197C133.405 18.153 133.268 18.9343 132.995 19.6635C132.734 20.3796 132.337 21.0241 131.803 21.597C131.27 22.17 130.599 22.6648 129.792 23.0814C128.984 23.4981 128.04 23.8106 126.96 24.0189L132.428 31.6166C133.014 32.5411 133.555 33.2832 134.05 33.8431C134.544 34.403 135.046 34.8523 135.553 35.1908C136.061 35.5163 136.595 35.7572 137.155 35.9135C137.715 36.0697 138.346 36.1934 139.05 36.2845V36.9877ZM120.417 23.2963C121.719 23.4525 122.904 23.4069 123.971 23.1595C125.052 22.9122 125.97 22.5215 126.725 21.9877C127.494 21.4408 128.086 20.7898 128.503 20.0345C128.919 19.2663 129.128 18.446 129.128 17.5736C129.128 16.7793 128.997 16.0437 128.737 15.3666C128.477 14.6765 128.099 14.0775 127.604 13.5697C127.122 13.0619 126.53 12.6648 125.827 12.3783C125.124 12.0788 124.336 11.9291 123.464 11.9291C123.112 11.9291 122.669 11.9681 122.135 12.0463C121.615 12.1114 121.042 12.1895 120.417 12.2806V23.2963Z" fill="#BBBBBB"/>
<path d="M143.827 37.4135L143.827 15.6166C143.827 15.0306 143.82 14.5358 143.807 14.1322C143.781 13.7416 143.736 13.4161 143.671 13.1556C143.606 12.8952 143.501 12.6869 143.358 12.5306C143.215 12.3744 143.013 12.2507 142.753 12.1595C142.492 11.9773 142.212 11.8536 141.913 11.7885C141.613 11.7364 141.307 11.7103 140.995 11.7103H140.096V10.9877H143.202C143.918 10.9877 144.537 11.0463 145.057 11.1635C145.565 11.2806 145.988 11.4825 146.327 11.7689C146.652 12.0554 146.9 12.433 147.069 12.9017C147.225 13.3835 147.303 13.989 147.303 14.7181V14.9916C147.33 16.0723 147.349 17.0814 147.362 18.0189C147.375 18.9694 147.388 19.8679 147.401 20.7142C147.401 21.5736 147.408 22.3939 147.421 23.1752C147.421 23.9694 147.421 24.7507 147.421 25.5189C147.421 26.3783 147.421 27.2377 147.421 28.097C147.408 28.9694 147.401 29.8809 147.401 30.8314C147.401 31.795 147.401 32.8106 147.401 33.8783C147.388 34.959 147.382 36.1374 147.382 37.4135H143.827Z" fill="#BBBBBB"/>
</svg>
