<svg width="38" height="54" viewBox="0 0 38 54" fill="none" xmlns="http://www.w3.org/2000/svg">
<path d="M13.5251 37.6806C13.7982 36.9775 14.3914 35.8784 15.2274 35.0701C13.5525 34.8207 12.0758 33.9865 10.8236 32.8986C9.77783 33.2306 8.30383 36.225 7.69755 37.6806H13.5251Z" fill="#EC5242"/>
<path d="M24.1525 37.4962H29.9527C29.4402 36.3143 28.6139 33.4939 27.2868 32.6052C27.1751 32.6978 27.0631 32.7895 26.9509 32.8799C25.5927 33.9747 24.2108 34.8985 23.2154 35.4877C23.6097 35.9905 23.9497 36.6478 24.1525 37.4962Z" fill="#EC5242"/>
<path d="M3.73147 26.5646L6.3811 26.4418C5.93423 24.3858 5.26348 20.2271 5.97775 19.3203L4.41473 19.2137C3.96822 19.2974 3.2928 19.5603 2.68054 20.0776C2.01318 20.6416 1.42086 21.5079 1.2818 22.7745C1.01517 25.2029 2.80382 26.3131 3.73147 26.5646Z" fill="#EC5242"/>
<path d="M31.6419 19.1808C31.7507 21.2139 31.9072 25.8076 31.6461 26.7364H33.1646C34.2895 26.7325 36.5778 26.0866 36.7312 23.5345C36.8132 22.4506 36.5563 20.6456 35.2695 19.8437C34.7505 19.5203 34.064 19.3601 33.1646 19.4761L32.1291 19.6982C31.9907 19.5657 31.8233 19.3903 31.6419 19.1808Z" fill="#EC5242"/>
<path d="M5.36789 44.7602C2.80437 45.3152 2.24802 47.6639 2.29028 48.7689C2.05054 50.7042 3.82195 52.3293 4.73762 52.9H12.3059M5.36789 44.7602H11.369H12.3059M5.36789 44.7602C4.18624 42.8649 2.77754 38.7956 6.59596 37.6806H7.69755M26.0718 52.9H33.4887C34.2075 52.5412 35.6449 51.2057 35.6449 48.7334C35.6449 46.2612 33.976 45.0545 33.1415 44.7602H32.0937M26.0718 52.9H21.5854H18.2727H17.8957M26.0718 52.9C27.6541 51.2335 29.8695 47.2724 26.0718 44.7602M26.0718 44.7602H21.9837M26.0718 44.7602H32.0937M12.3059 52.9C10.4086 51.3825 7.7524 47.6301 12.3059 44.7602M12.3059 52.9H17.8957M12.3059 44.7602H12.5254H16.289M17.8957 52.9C16.0512 51.533 13.469 47.9912 17.8957 44.7602M17.8957 44.7602H16.289M17.8957 44.7602H21.9837M18.9945 35.4877C18.8232 34.3564 17.937 34.0463 17.5152 34.0326C16.6354 34.0114 15.8616 34.4571 15.2274 35.0701M18.9945 35.4877V42.0255M18.9945 35.4877C19.2438 34.8934 19.9665 33.7703 20.863 34.0326C21.4249 34.0963 22.4284 34.4844 23.2154 35.4877M18.9945 42.0255C18.7804 43.6651 16.1528 44.7602 16.289 44.7602M18.9945 42.0255C18.7298 42.9929 20.877 44.2517 21.9837 44.7602M32.0937 44.7602C35.2807 41.3479 33.0843 38.4957 31.5877 37.4962H29.9527M29.9527 37.4962H24.1525C23.9497 36.6478 23.6097 35.9905 23.2154 35.4877M29.9527 37.4962C29.4402 36.3143 28.6139 33.4939 27.2868 32.6052M27.2868 32.6052C27.1751 32.6978 27.0631 32.7895 26.9509 32.8799M27.2868 32.6052C29.4276 30.8279 31.4241 28.6551 31.6461 26.7364M23.2154 35.4877C24.2108 34.8985 25.5927 33.9747 26.9509 32.8799M31.6461 26.7364C31.9072 25.8076 31.7507 21.2139 31.6419 19.1808C31.8233 19.3903 31.9907 19.5657 32.1291 19.6982M31.6461 26.7364H33.1646C34.2895 26.7325 36.5778 26.0866 36.7312 23.5345C36.8132 22.4506 36.5563 20.6456 35.2695 19.8437M31.6461 26.7364C31.4125 28.7552 29.2146 31.0552 26.9509 32.8799M32.1291 19.6982L33.1646 19.4761C34.064 19.3601 34.7505 19.5203 35.2695 19.8437M32.1291 19.6982C31.4196 19.0185 29.9469 17.2148 29.7322 15.438C29.5174 13.6612 27.4184 13.4055 26.3957 13.4997C25.5839 14.1593 23.5616 15.5672 21.9662 15.9226C20.3708 16.2779 17.2363 16.0707 15.8684 15.9226C14.7754 15.4918 12.2903 14.4567 11.0938 13.7622C9.89723 13.0676 8.80552 14.4015 8.40923 15.1553C8.00655 16.2524 6.97875 18.5999 6.08902 19.2137C6.04869 19.2415 6.01166 19.2772 5.97775 19.3203M6.3811 26.4418L3.73147 26.5646C2.80382 26.3131 1.01517 25.2029 1.2818 22.7745C1.42086 21.5079 2.01318 20.6416 2.68054 20.0776M6.3811 26.4418C5.93423 24.3858 5.26348 20.2271 5.97775 19.3203M6.3811 26.4418C7.01512 28.108 8.54874 30.922 10.8236 32.8986M5.97775 19.3203L4.41473 19.2137C3.96822 19.2974 3.2928 19.5603 2.68054 20.0776M15.2274 35.0701C14.3914 35.8784 13.7982 36.9775 13.5251 37.6806H7.69755M15.2274 35.0701C13.5525 34.8207 12.0758 33.9865 10.8236 32.8986M7.69755 37.6806C8.30383 36.225 9.77783 33.2306 10.8236 32.8986M2.68054 20.0776C2.00516 13.8781 4.31248 1.40315 18.9448 1.09998C24.467 1.19462 35.4631 5.07587 35.2695 19.8437M11.6699 22.5725V21.2258C11.9869 20.6272 12.857 19.7893 13.8015 21.2258V22.5725M17.5152 23.9324C17.9921 24.3857 19.2479 25.0203 20.456 23.9324M23.7001 22.5725V21.2258C23.9781 20.7098 24.7507 19.9875 25.6178 21.2258V22.7444" stroke="white" stroke-width="1.5"/>
</svg>
