<svg width="38" height="54" viewBox="0 0 38 54" fill="none" xmlns="http://www.w3.org/2000/svg">
<path d="M26.8877 6.94896C27.1518 5.89972 28.1496 3.90074 30.028 4.2988C30.8227 4.36396 32.5205 4.84614 32.954 6.25358V13.0775H26.1809C25.5788 13.0775 24.3386 12.7114 24.1941 11.2471C23.934 7.96312 25.8815 7.01335 26.8877 6.94896Z" fill="#EC5242" fill-opacity="0.8"/>
<path d="M4.79154 9.98127V3.3578C4.90817 2.41236 5.6713 0.701824 7.79086 1.42319C8.81287 1.69643 10.6703 2.74785 9.92375 4.76769C10.8125 4.57095 12.6532 4.55128 12.9065 6.04648C13.2453 7.15039 13.2931 9.40413 10.7736 9.58775L4.79154 9.98127Z" fill="#EC5242" fill-opacity="0.8"/>
<path d="M9.92375 4.76769C10.6703 2.74785 8.81287 1.69643 7.79086 1.42319C5.6713 0.701824 4.90817 2.41236 4.79154 3.3578V9.98127L10.7736 9.58775C13.2931 9.40413 13.2453 7.15039 12.9065 6.04648C12.6532 4.55128 10.8125 4.57095 9.92375 4.76769ZM9.92375 4.76769L8.54071 6.27601M10.6181 4.15354C11.4535 3.34917 13.4972 1.86577 14.9888 2.36717C16.1023 2.69328 18.4131 3.77048 18.7487 5.47036V8.63226M18.7487 13.1508C17.6234 13.5017 15.4511 14.4519 15.7642 15.4445M18.7487 13.1508C19.8921 13.4518 22.17 14.4134 22.1352 15.851C23.1862 15.145 25.7144 14.4134 27.4191 17.1347M18.7487 13.1508V8.63226M15.7642 15.4445V16.2147M15.7642 15.4445C14.1261 14.9168 10.7891 14.6187 10.5455 17.6481M18.7487 8.63226C19.5754 7.38625 21.7363 5.00946 23.7668 5.47036C24.4561 5.46995 26.0454 5.76511 26.8877 6.94896M26.8877 6.94896L29.5386 9.52015M26.8877 6.94896C27.1518 5.89972 28.1496 3.90074 30.028 4.2988C30.8227 4.36396 32.5205 4.84614 32.954 6.25358V13.0775H26.1809C25.5788 13.0775 24.3386 12.7114 24.1941 11.2471C23.934 7.96312 25.8815 7.01335 26.8877 6.94896ZM14.2681 44.3526C14.3377 43.6591 14.4353 42.2678 14.2681 42.2513C14.1009 42.2349 10.6597 39.8731 8.96007 38.6943C7.422 37.4935 6.42449 35.3703 6.11799 34.4587L5.42348 31.4568L3.17109 30.0313C2.10926 29.538 1.51197 27.625 1.34606 26.7303C0.992118 25.2357 1.77623 23.6892 2.21253 23.1027C2.62547 22.1886 4.52522 21.8392 5.42348 21.7787V18.0225H32.6944V22.269C35.2302 21.4317 36.3484 23.32 36.5905 24.3688C37.4959 28.0524 34.1576 30.629 32.3753 31.4568C32.7318 36.1664 26.5411 40.5769 23.4013 42.1935V44.2516M14.2681 44.3526C12.5833 44.8031 8.87519 46.037 7.52103 47.3694C6.2797 48.3748 3.71807 50.778 3.40209 52.3472V53.0504H34.7654C32.9352 50.1593 28.2687 44.3521 24.244 44.2516H23.4013M14.2681 44.3526C18.0368 49.4965 21.9272 46.4286 23.4013 44.2516M32.911 27.7027C32.858 26.7838 33.0256 24.9146 34.1209 24.7893M22.1352 29.4632C23.138 28.501 25.664 27.154 27.7466 29.4632M9.77244 30.0313C10.5162 28.8527 12.7061 27.1377 15.5159 29.7071M4.69009 27.7027C5.09751 26.884 5.47781 25.1551 3.73974 24.7893M16.0944 35.1141C17.2068 36.3332 19.9129 38.0399 21.8378 35.1141" stroke="#F4F3F3" stroke-width="1.5"/>
</svg>
