<svg width="115" height="44" viewBox="0 0 115 44" fill="none" xmlns="http://www.w3.org/2000/svg">
<path d="M0.694092 43.1119C0.79891 42.9771 1.02352 42.6776 1.36792 42.2134C1.72729 41.7492 2.13908 41.1278 2.60327 40.3492C3.08244 39.5705 3.59155 38.6422 4.13062 37.564C4.66968 36.4709 5.17879 35.2356 5.65796 33.858C6.13713 32.4804 6.5564 30.9605 6.91577 29.2984C7.29012 27.6363 7.54468 25.8469 7.67944 23.9302C7.88908 21.1151 8.05379 18.5546 8.17358 16.2486C8.30835 13.9426 8.40568 11.966 8.46558 10.3189C8.54045 8.67177 8.58537 7.39899 8.60034 6.50055C8.63029 5.58714 8.64526 5.12295 8.64526 5.10797L9.52124 5.01813C9.91056 6.93479 10.2924 8.90387 10.6667 10.9254C11.0411 12.9468 11.4229 14.9608 11.8123 16.9673C12.2166 18.9739 12.6283 20.9429 13.0476 22.8746C13.4669 24.7912 13.9236 26.6106 14.4177 28.3326C14.9119 30.0396 15.4434 31.6194 16.0125 33.0718C16.5815 34.5093 17.2029 35.7522 17.8767 36.8004C18.5655 37.8485 19.3142 38.6646 20.1228 39.2486C20.9464 39.8326 21.8448 40.1246 22.8181 40.1246C23.447 40.1246 24.0984 39.9075 24.7722 39.4732C25.446 39.039 26.06 38.3352 26.614 37.3619C27.1681 36.3886 27.6248 35.1233 27.9841 33.566C28.3435 32.0087 28.5232 30.1145 28.5232 27.8834C28.5232 26.5507 28.4483 25.1057 28.2986 23.5484C28.1638 21.9911 27.9467 20.3889 27.6472 18.7418C27.3477 17.0797 26.9734 15.4175 26.5242 13.7554C26.0899 12.0933 25.5658 10.4986 24.9519 8.97125C24.3529 7.42893 23.6716 5.98395 22.908 4.63629C22.1443 3.28864 21.2983 2.11318 20.3699 1.10992L20.9763 0.481018C21.9646 1.54417 22.8556 2.75706 23.6492 4.11969C24.4578 5.48232 25.169 6.94228 25.783 8.49957C26.4119 10.0569 26.9509 11.6741 27.4001 13.3511C27.8494 15.0282 28.2162 16.7053 28.5007 18.3824C28.8002 20.0595 29.0173 21.7066 29.1521 23.3238C29.3018 24.941 29.3767 26.4608 29.3767 27.8834C29.3767 29.7551 29.2195 31.552 28.905 33.274C28.5906 34.996 28.1039 36.5158 27.4451 37.8336C26.8012 39.1513 25.9851 40.1994 24.9968 40.9781C24.0085 41.7567 22.8331 42.1461 21.4705 42.1461C20.3923 42.1461 19.4041 41.8765 18.5056 41.3375C17.6222 40.8134 16.8136 40.0797 16.0798 39.1363C15.3461 38.1929 14.6873 37.0774 14.1033 35.7896C13.5343 34.4869 13.0251 33.0793 12.5759 31.567C12.1267 30.0396 11.7299 28.4374 11.3855 26.7603C11.0411 25.0683 10.7416 23.3537 10.4871 21.6168C10.2325 19.8798 10.0079 18.1503 9.81323 16.4283C9.63354 14.7063 9.47632 13.0517 9.34155 11.4644C9.26668 13.0816 9.14689 14.9459 8.98218 17.0572C8.83244 19.1535 8.69019 21.4595 8.55542 23.9752C8.40568 26.5507 8.13615 28.8642 7.74683 30.9156C7.37248 32.967 6.87085 34.7938 6.24194 36.3961C5.62801 37.9983 4.90177 39.3983 4.06323 40.5963C3.22469 41.8091 2.26636 42.8498 1.18823 43.7183L0.694092 43.1119ZM39.6414 36.1714C40.4799 36.1714 41.281 35.8645 42.0447 35.2505C42.8233 34.6366 43.4298 33.7457 43.864 32.5777H43.6843C42.7559 32.5777 41.8949 32.4205 41.1013 32.106C40.3227 31.7916 39.6414 31.3573 39.0574 30.8033C38.4884 30.2343 38.0391 29.5604 37.7097 28.7818C37.3803 27.9882 37.2156 27.1197 37.2156 26.1763C37.2156 25.6522 37.283 25.1207 37.4177 24.5816C37.5675 24.0425 37.7921 23.5634 38.0916 23.1441C38.391 22.7099 38.7804 22.358 39.2595 22.0884C39.7387 21.8189 40.3077 21.6841 40.9666 21.6841C41.5056 21.6841 42.0372 21.7964 42.5613 22.0211C43.0854 22.2307 43.557 22.5976 43.9763 23.1216C44.3956 23.6457 44.7325 24.357 44.9871 25.2554C45.2566 26.1389 45.3914 27.2619 45.3914 28.6246C45.3914 29.1337 45.3689 29.6428 45.324 30.1519C45.2791 30.6461 45.1967 31.1327 45.0769 31.6119C45.6609 31.5071 46.1775 31.3199 46.6267 31.0504C47.0909 30.7808 47.4952 30.4589 47.8396 30.0845C48.199 29.6952 48.5134 29.261 48.783 28.7818C49.0525 28.2877 49.2996 27.7636 49.5242 27.2095L50.4001 27.4341C50.0857 28.2877 49.7188 29.0139 49.2996 29.6129C48.8953 30.2118 48.4535 30.7134 47.9744 31.1177C47.5102 31.522 47.016 31.8365 46.4919 32.0611C45.9828 32.2707 45.4513 32.413 44.8972 32.4879C44.6876 33.2216 44.4106 33.9104 44.0662 34.5543C43.7218 35.1981 43.3025 35.7597 42.8083 36.2388C42.3142 36.718 41.7377 37.0998 41.0789 37.3843C40.435 37.6539 39.7087 37.7886 38.9001 37.7886C38.2263 37.7886 37.545 37.6539 36.8562 37.3843C36.1824 37.0998 35.5684 36.6731 35.0144 36.1041C34.4753 35.5201 34.0336 34.7938 33.6892 33.9254C33.3598 33.0419 33.1951 31.9937 33.1951 30.7808C33.1951 29.9872 33.2849 29.2086 33.4646 28.4449C33.6593 27.6812 33.9213 26.9625 34.2507 26.2886C34.5951 25.5998 34.9994 24.9634 35.4636 24.3795C35.9278 23.7805 36.4294 23.2639 36.9685 22.8297L37.3054 23.3912C36.961 23.7056 36.6316 24.095 36.3171 24.5591C36.0027 25.0233 35.7182 25.5399 35.4636 26.1089C35.2091 26.663 35.0069 27.2545 34.8572 27.8834C34.7074 28.4973 34.6326 29.1112 34.6326 29.7252C34.6326 30.938 34.7823 31.9563 35.0818 32.7798C35.3962 33.6034 35.7931 34.2698 36.2722 34.7789C36.7514 35.273 37.2904 35.6324 37.8894 35.857C38.4884 36.0666 39.0723 36.1714 39.6414 36.1714ZM40.9216 22.5601C40.5173 22.5601 40.143 22.65 39.7986 22.8297C39.4542 22.9944 39.1547 23.2265 38.9001 23.5259C38.6456 23.8254 38.4434 24.1848 38.2937 24.6041C38.144 25.0233 38.0691 25.4875 38.0691 25.9966C38.0691 26.8801 38.2188 27.6737 38.5183 28.3775C38.8178 29.0813 39.2221 29.6802 39.7312 30.1744C40.2553 30.6685 40.8617 31.0504 41.5505 31.3199C42.2393 31.5744 42.9806 31.7017 43.7742 31.7017H44.2009C44.3207 31.2375 44.4031 30.7509 44.448 30.2418C44.4929 29.7326 44.5154 29.1786 44.5154 28.5797C44.4854 27.4267 44.3656 26.4683 44.156 25.7047C43.9613 24.926 43.7068 24.3046 43.3923 23.8404C43.0779 23.3762 42.7035 23.0468 42.2693 22.8521C41.85 22.6575 41.4008 22.5601 40.9216 22.5601ZM78.7458 23.8404C78.7309 26.6555 78.364 29.1711 77.6453 31.3873C76.9265 33.5884 75.9083 35.4602 74.5906 37.0025C73.2878 38.5448 71.7081 39.7203 69.8513 40.5289C68.0095 41.3375 65.9581 41.7418 63.697 41.7418C61.5707 41.7418 59.6241 41.33 57.8572 40.5064C56.0903 39.6828 54.5704 38.5523 53.2976 37.1148C52.0398 35.6773 51.059 33.9778 50.3552 32.0162C49.6514 30.0546 49.2996 27.9283 49.2996 25.6373C49.2996 23.6907 49.4942 21.9013 49.8835 20.2691C50.2729 18.6369 50.782 17.147 51.4109 15.7994C52.0548 14.4517 52.796 13.2388 53.6345 12.1607C54.4731 11.0826 55.3341 10.1317 56.2175 9.30817C57.116 8.46962 58.0144 7.74339 58.9128 7.12946C59.8113 6.51552 60.6348 5.99892 61.3835 5.57965C62.1472 5.16038 62.8061 4.83095 63.3601 4.59137C63.9291 4.35179 64.3334 4.18707 64.573 4.09723L64.8425 4.83844C64.3783 5.0331 63.7419 5.34755 62.9333 5.7818C62.1248 6.21604 61.2488 6.79254 60.3054 7.51129C59.3621 8.21507 58.4037 9.08356 57.4304 10.1168C56.4571 11.135 55.5736 12.3254 54.78 13.688C54.0014 15.0357 53.3575 16.5705 52.8484 18.2925C52.3542 20.0145 52.1072 21.9387 52.1072 24.065C52.1072 26.2961 52.3692 28.4149 52.8933 30.4214C53.4324 32.428 54.2335 34.1874 55.2966 35.6998C56.3598 37.2121 57.685 38.4101 59.2722 39.2935C60.8744 40.192 62.7462 40.6412 64.8875 40.6412C65.5014 40.6412 66.2426 40.5438 67.1111 40.3492C67.9945 40.1695 68.9154 39.8401 69.8738 39.3609C70.8321 38.8817 71.783 38.2379 72.7263 37.4293C73.6847 36.6207 74.5382 35.595 75.2869 34.3521C76.0356 33.1093 76.642 31.6269 77.1062 29.9048C77.5854 28.1679 77.825 26.1464 77.825 23.8404C77.825 23.1965 77.795 22.5302 77.7351 21.8414C77.6902 21.1376 77.6078 20.4413 77.488 19.7525C76.1554 20.8755 74.7029 21.774 73.1306 22.4478C71.5733 23.1067 69.9187 23.4361 68.1667 23.4361C67.0138 23.4361 65.9356 23.2789 64.9324 22.9644C63.9291 22.635 63.0531 22.1783 62.3044 21.5943C61.5707 20.9953 60.9867 20.2916 60.5525 19.483C60.1332 18.6594 59.9236 17.7535 59.9236 16.7652C59.9236 15.5074 60.1632 14.3918 60.6423 13.4185C61.1365 12.4302 61.7804 11.6067 62.574 10.9478C63.3676 10.274 64.266 9.76487 65.2693 9.42047C66.2875 9.0611 67.3282 8.88141 68.3914 8.88141C69.8438 8.88141 71.1166 9.13597 72.2097 9.64508C73.3028 10.1392 74.2387 10.8056 75.0173 11.6441C75.796 12.4826 76.4324 13.4485 76.9265 14.5416C77.4356 15.6347 77.825 16.7727 78.0945 17.9556C78.8132 17.2519 79.4796 16.4657 80.0935 15.5972C80.7074 14.7287 81.269 13.733 81.7781 12.6099L82.6091 12.9468C81.5011 15.2528 80.0561 17.2743 78.2742 19.0113C78.4389 19.8498 78.5587 20.6734 78.6335 21.482C78.7084 22.2906 78.7458 23.0767 78.7458 23.8404ZM68.8406 21.7291C70.323 21.7291 71.783 21.4895 73.2205 21.0103C74.6729 20.5311 76.0356 19.76 77.3083 18.6968C77.0538 17.5289 76.6944 16.4133 76.2302 15.3502C75.781 14.272 75.197 13.3212 74.4783 12.4976C73.7745 11.6591 72.921 10.9927 71.9177 10.4986C70.9294 10.0045 69.769 9.75739 68.4363 9.75739C67.3582 9.75739 66.4148 9.9221 65.6062 10.2515C64.8126 10.581 64.1462 11.0227 63.6072 11.5767C63.0681 12.1308 62.6638 12.7746 62.3943 13.5084C62.1248 14.2271 61.99 14.9758 61.99 15.7545C61.99 16.4133 62.1023 17.0946 62.3269 17.7984C62.5665 18.5022 62.9558 19.1461 63.4949 19.73C64.0339 20.314 64.7377 20.7932 65.6062 21.1675C66.4897 21.5419 67.5678 21.7291 68.8406 21.7291ZM81.7781 27.2095C82.0027 26.6255 82.2423 26.0715 82.4968 25.5474C82.7664 25.0084 83.0509 24.5367 83.3503 24.1324C83.6498 23.7281 83.9718 23.4061 84.3162 23.1666C84.6755 22.912 85.0723 22.7847 85.5066 22.7847C85.7162 22.7847 85.9558 22.8297 86.2253 22.9195C86.4949 23.0093 86.7494 23.189 86.989 23.4586C87.2436 23.7281 87.4532 24.1174 87.6179 24.6265C87.7826 25.1356 87.865 25.8095 87.865 26.648C87.865 27.0823 87.8425 27.5614 87.7976 28.0855C87.7527 28.6096 87.7078 29.1262 87.6628 29.6353C88.127 28.647 88.5837 27.816 89.033 27.1422C89.4972 26.4533 89.9464 25.9068 90.3806 25.5025C90.8298 25.0832 91.2716 24.7838 91.7058 24.6041C92.1401 24.4094 92.5743 24.3121 93.0085 24.3121C93.2032 24.3121 93.4278 24.357 93.6824 24.4468C93.9519 24.5367 94.199 24.6939 94.4236 24.9185C94.6632 25.1431 94.8578 25.4501 95.0076 25.8394C95.1723 26.2287 95.2546 26.7304 95.2546 27.3443C95.2546 27.8384 95.2172 28.3326 95.1423 28.8267C95.0675 29.3209 94.9851 29.8 94.8953 30.2642C94.8054 30.7284 94.7231 31.1701 94.6482 31.5894C94.5733 31.9937 94.5359 32.3531 94.5359 32.6675C94.5359 33.4162 94.6707 33.9927 94.9402 34.397C95.2097 34.7864 95.6215 34.981 96.1755 34.981C96.6248 34.981 97.0515 34.8163 97.4558 34.4869C97.8601 34.1425 98.2345 33.7082 98.5789 33.1841C98.9382 32.6601 99.2602 32.0836 99.5447 31.4547C99.8442 30.8257 100.099 30.2268 100.308 29.6578C100.533 29.0738 100.72 28.5647 100.87 28.1304C101.02 27.6812 101.124 27.3742 101.184 27.2095L102.06 27.4341C101.851 27.9582 101.626 28.5422 101.386 29.1861C101.162 29.815 100.907 30.4514 100.623 31.0953C100.338 31.7392 100.031 32.3681 99.7019 32.982C99.3725 33.581 99.0056 34.1125 98.6013 34.5767C98.197 35.0409 97.7553 35.4153 97.2761 35.6998C96.8119 35.9843 96.2953 36.1265 95.7263 36.1265C95.2472 36.1265 94.8279 36.0367 94.4685 35.857C94.1241 35.6623 93.8321 35.4078 93.5925 35.0933C93.3529 34.7789 93.1733 34.4045 93.0535 33.9703C92.9337 33.536 92.8738 33.0718 92.8738 32.5777C92.8738 32.0237 92.9187 31.4547 93.0085 30.8707C93.1134 30.2867 93.2182 29.7252 93.323 29.1861C93.4428 28.647 93.5476 28.1529 93.6375 27.7037C93.7423 27.2395 93.7947 26.8576 93.7947 26.5582C93.7947 26.094 93.7048 25.7496 93.5251 25.525C93.3455 25.2854 93.0984 25.1656 92.7839 25.1656C92.3497 25.1656 91.9229 25.3228 91.5037 25.6373C91.0994 25.9517 90.7026 26.371 90.3132 26.8951C89.9389 27.4192 89.5795 28.0181 89.2351 28.692C88.8907 29.3658 88.5688 30.0621 88.2693 30.7808C87.9848 31.4846 87.7153 32.1884 87.4607 32.8922C87.2211 33.5959 87.0115 34.2323 86.8318 34.8013C86.6521 35.3703 86.4949 35.857 86.3601 36.2613C86.2403 36.6506 86.158 36.8977 86.113 37.0025L84.8103 36.7779C84.99 35.8944 85.1547 34.966 85.3044 33.9927C85.4542 33.0045 85.5815 32.0386 85.6863 31.0953C85.8061 30.1369 85.8959 29.2235 85.9558 28.355C86.0307 27.4866 86.0681 26.7154 86.0681 26.0416C86.0681 25.1282 86.0082 24.5142 85.8884 24.1998C85.7686 23.8703 85.5515 23.7056 85.2371 23.7056C84.9675 23.7056 84.713 23.8104 84.4734 24.0201C84.2338 24.2147 84.0092 24.4843 83.7996 24.8287C83.6049 25.1581 83.4102 25.5474 83.2156 25.9966C83.0209 26.4459 82.8337 26.925 82.6541 27.4341L81.7781 27.2095ZM106.103 37.8785C105.34 37.8785 104.606 37.7437 103.902 37.4742C103.198 37.2047 102.577 36.8004 102.038 36.2613C101.514 35.7073 101.094 35.0185 100.78 34.1949C100.466 33.3713 100.308 32.4055 100.308 31.2974C100.308 29.9498 100.503 28.7519 100.892 27.7037C101.282 26.6405 101.776 25.7496 102.375 25.0308C102.989 24.2971 103.67 23.7431 104.419 23.3687C105.167 22.9794 105.901 22.7847 106.62 22.7847C107.548 22.7847 108.282 23.0917 108.821 23.7056C109.375 24.3196 109.652 25.1132 109.652 26.0865C109.652 26.925 109.495 27.6887 109.18 28.3775C108.866 29.0513 108.447 29.6353 107.923 30.1295C107.413 30.6086 106.822 30.983 106.148 31.2525C105.489 31.522 104.801 31.6568 104.082 31.6568C103.737 31.6568 103.408 31.6418 103.094 31.6119C102.794 31.567 102.524 31.522 102.285 31.4771C102.375 32.4055 102.554 33.2066 102.824 33.8804C103.094 34.5543 103.43 35.1083 103.835 35.5425C104.239 35.9768 104.688 36.2987 105.182 36.5084C105.691 36.718 106.216 36.8228 106.755 36.8228C107.428 36.8228 108.05 36.6581 108.619 36.3287C109.188 35.9992 109.712 35.5725 110.191 35.0484C110.67 34.5093 111.105 33.8954 111.494 33.2066C111.898 32.5178 112.258 31.8215 112.572 31.1177C112.886 30.399 113.163 29.7027 113.403 29.0289C113.658 28.3401 113.882 27.7336 114.077 27.2095L114.953 27.4341C114.758 27.9283 114.526 28.5272 114.257 29.231C114.002 29.9348 113.703 30.676 113.358 31.4547C113.014 32.2183 112.609 32.9895 112.145 33.7681C111.681 34.5318 111.157 35.2206 110.573 35.8345C109.989 36.4335 109.323 36.9276 108.574 37.317C107.84 37.6913 107.017 37.8785 106.103 37.8785ZM106.665 23.6607C106.111 23.6607 105.564 23.8404 105.025 24.1998C104.501 24.5442 104.029 25.0233 103.61 25.6373C103.191 26.2512 102.846 26.9774 102.577 27.816C102.322 28.6545 102.195 29.553 102.195 30.5113C102.39 30.5862 102.659 30.6535 103.004 30.7134C103.363 30.7584 103.797 30.7808 104.306 30.7808C104.845 30.7808 105.377 30.6685 105.901 30.4439C106.44 30.2043 106.919 29.8824 107.339 29.4781C107.773 29.0588 108.117 28.5647 108.372 27.9957C108.641 27.4267 108.776 26.8052 108.776 26.1314C108.776 25.802 108.731 25.4875 108.641 25.188C108.552 24.8886 108.417 24.6265 108.237 24.4019C108.057 24.1773 107.833 23.9976 107.563 23.8629C107.309 23.7281 107.009 23.6607 106.665 23.6607Z" fill="#BBBBBB"/>
</svg>
