<svg width="310" height="62" viewBox="0 0 310 62" fill="none" xmlns="http://www.w3.org/2000/svg">
<path d="M19.039 30.6565C19.0389 28.8023 18.0118 25.3505 13.904 26.3775C9.79623 27.4044 5.3668 29.6581 3.66556 30.6565C3.21324 31.1602 2.57999 32.6834 3.66556 34.7462L6.24414 41.6675C6.33462 41.8937 7.05842 42.3461 9.22981 42.3461H21.851C22.4391 42.3008 23.7239 42.5089 24.1581 43.7032C24.5924 44.8974 25.5153 47.8198 25.9224 49.1317C26.1486 50.3983 26.2753 53.1487 24.9724 54.0173L16.6437 57.64C15.558 57.821 12.9333 57.0711 12.499 55.7682L11.0283 52.5594M21.851 22.5772L32.4712 19.3777M43.0913 16.1783L32.4712 19.3777M32.4712 19.3777L42.4028 51.0935M44.7636 15.146L58.3254 10.9039C60.0139 10.2586 63.9625 12.2801 64.892 16.1783C65.8215 20.0766 68.5466 30.0553 69.5149 34.6203C69.786 36.1967 69.8525 36.8823 69.2274 38.8295C68.6401 40.6587 66.3323 44.1992 60.9626 43.7032C56.6594 43.3057 55.5354 39.8471 54.8769 38.8295L48.8771 19.3777M79.4928 42.3461L74.9533 8.922M74.292 5.21074L74.9533 8.922M74.9533 8.922L94.8088 36.5462L95.194 40.0367L91.1587 3.46834M118.156 10.8223L117.406 6.77011C117.306 5.86963 116.235 3.9486 112.753 3.46834L104.499 4.66898C103.548 4.64685 101.337 5.46648 101.697 8.922L103.243 25.0492M119.236 27.5884L119.591 31.5147C119.351 33.7771 117.888 34.4123 116.838 34.6203L104.499 35.9593L103.243 25.0492M103.243 25.0492L114.254 19.3777C115.305 18.8272 117.556 18.2963 118.156 20.5775L118.541 23.546M135.973 3.46834H147.434M158.895 3.46834H147.434M147.434 3.46834V36.9363M161.46 36.9363L161.867 26.3797M162.673 0.434875L161.867 26.3797M161.867 26.3797L178.794 19.3777L177.682 38.2819L179.609 1.10003M205.383 12.9176L205.859 8.41658C205.859 8.41658 205.3 5.61973 203.769 5.61973L193.648 4.71603C193.648 4.71603 189.846 4.96106 190.207 8.41658L189.153 24.0294M203.246 30.7606L202.979 34.0533C202.739 36.3157 201.6 36.2434 200.549 36.4513L188.218 35.9338L189.153 24.0294M189.153 24.0294L197.365 22.9716C201.958 22.4551 204.571 21.3669 204.571 22.1528L204.085 27.1508M214.365 7.82583L224.484 8.41658C225.743 8.56639 228.655 9.54911 230.237 12.2816C232.214 15.6972 231.316 21.6175 229.788 23.556C228.26 25.4945 228.529 25.2248 225.203 27.4719M225.203 27.4719H213.878L216.215 12.9176L211.721 41.2241M225.203 27.4719C226.102 28.8587 226.902 32.4926 226.83 35.9338L225.816 43.7425M261.212 17.2669L247.986 13.859C245.814 13.8663 242.505 14.7647 241.099 22.0371C240.262 26.3619 238.195 32.5408 237.201 37.1767M237.201 37.1767C236.523 40.3363 235.448 43.3333 235.057 45.094L237.201 37.1767ZM237.201 37.1767L254.327 28.9515L256.904 22.2611L249.605 48.1997M258.767 51.7638L263.361 37.8966M267.956 24.0294L263.361 37.8966M266.794 18.442L276.573 21.2383C277.969 21.5281 280.943 22.2924 281.369 26.6327C281.449 27.4552 281.774 30.4149 280.491 34.4673C279.233 38.4389 275.425 40.073 270.765 40.073L263.361 37.8966M291.88 24.0294L288.155 37.4007C288.093 38.977 288.304 43.2001 291.88 45.6542C292.343 45.9723 292.363 46.2253 292.861 46.3525M306.22 28.9515L302.496 42.0612C300.766 43.9508 296.203 47.2065 292.861 46.3525M292.861 46.3525L287.131 60.6853" stroke="#D4D4D4" stroke-width="6"/>
</svg>
