<svg width="138" height="43" viewBox="0 0 138 43" fill="none" xmlns="http://www.w3.org/2000/svg">
<path d="M47.5893 19.6917C47.1733 19.6917 46.7333 19.6437 46.2693 19.5477C45.8053 19.4677 45.3573 19.3477 44.9253 19.1877C44.4933 19.0117 44.1173 18.8117 43.7973 18.5877C43.4933 18.3477 43.3013 18.0837 43.2213 17.7957C43.1573 17.6357 43.1333 17.4837 43.1493 17.3397C43.1653 17.1797 43.2133 17.0197 43.2933 16.8597C43.3733 16.6837 43.4933 16.5077 43.6533 16.3317C43.7973 16.1557 43.9413 16.0597 44.0853 16.0437C44.2453 16.0117 44.4453 16.0597 44.6853 16.1877C44.8933 16.2677 45.1173 16.3717 45.3573 16.4997C45.6133 16.6277 45.8693 16.7557 46.1253 16.8837C46.3973 17.0117 46.6693 17.1157 46.9413 17.1957C47.2293 17.2757 47.5093 17.3157 47.7813 17.3157C48.3733 17.3157 48.8453 17.2197 49.1973 17.0277C49.5493 16.8197 49.7253 16.5317 49.7253 16.1637C49.7253 15.9557 49.6693 15.7717 49.5573 15.6117C49.4453 15.4517 49.2933 15.3237 49.1013 15.2277C48.9253 15.1157 48.7093 15.0197 48.4533 14.9397C48.2133 14.8437 47.9493 14.7637 47.6613 14.6997C47.3893 14.6197 47.1013 14.5317 46.7973 14.4357C46.3973 14.3237 45.9973 14.1877 45.5973 14.0277C45.1973 13.8677 44.8373 13.6597 44.5173 13.4037C44.2133 13.1477 43.9653 12.8277 43.7733 12.4437C43.5813 12.0597 43.4853 11.5797 43.4853 11.0037C43.4853 10.2837 43.6533 9.67571 43.9893 9.17971C44.3413 8.66771 44.8453 8.27571 45.5013 8.00371C46.1573 7.73171 46.9493 7.59571 47.8773 7.59571C48.1973 7.59571 48.5013 7.61971 48.7893 7.66771C49.0933 7.71571 49.3813 7.78771 49.6533 7.88371C49.9413 7.96371 50.2133 8.06771 50.4693 8.19571C50.7413 8.32371 50.9973 8.46771 51.2373 8.62771C51.6373 8.85171 51.8453 9.11571 51.8613 9.41971C51.8773 9.70771 51.7653 10.0197 51.5253 10.3557C51.3493 10.5797 51.1733 10.7397 50.9973 10.8357C50.8213 10.9157 50.6373 10.9157 50.4453 10.8357C50.1893 10.7077 49.9093 10.5717 49.6053 10.4277C49.3173 10.2677 49.0133 10.1317 48.6933 10.0197C48.3893 9.90771 48.0693 9.85171 47.7333 9.85171C47.4133 9.85171 47.1253 9.89971 46.8693 9.99571C46.6133 10.0917 46.4213 10.2277 46.2933 10.4037C46.1653 10.5797 46.1013 10.7877 46.1013 11.0277C46.1013 11.2517 46.1653 11.4357 46.2933 11.5797C46.4213 11.7237 46.5893 11.8437 46.7973 11.9397C47.0053 12.0357 47.2533 12.1237 47.5413 12.2037C47.8293 12.2677 48.1333 12.3317 48.4533 12.3957C48.9013 12.4917 49.3573 12.6117 49.8213 12.7557C50.2853 12.8997 50.7093 13.0997 51.0933 13.3557C51.4933 13.6117 51.8133 13.9557 52.0533 14.3877C52.2933 14.8037 52.4133 15.3477 52.4133 16.0197C52.4133 17.1877 51.9813 18.0917 51.1173 18.7317C50.2693 19.3717 49.0933 19.6917 47.5893 19.6917ZM60.5729 19.3797C59.7889 19.3797 59.0849 19.2357 58.4609 18.9477C57.8529 18.6437 57.3329 18.2277 56.9009 17.6997C56.4849 17.1557 56.1649 16.5317 55.9409 15.8277C55.7329 15.1237 55.6289 14.3637 55.6289 13.5477C55.6449 12.7317 55.7649 11.9717 55.9889 11.2677C56.2129 10.5477 56.5329 9.92371 56.9489 9.39571C57.3809 8.86771 57.9009 8.45171 58.5089 8.14771C59.1169 7.84371 59.8049 7.69171 60.5729 7.69171C61.3089 7.69171 61.9969 7.84371 62.6369 8.14771C63.2929 8.45171 63.8689 8.87571 64.3649 9.41971C64.8769 9.96371 65.2769 10.5957 65.5649 11.3157C65.8529 12.0197 65.9969 12.7797 65.9969 13.5957C65.9969 14.4277 65.8529 15.1957 65.5649 15.8997C65.2769 16.6037 64.8849 17.2197 64.3889 17.7477C63.8929 18.2597 63.3169 18.6597 62.6609 18.9477C62.0049 19.2357 61.3089 19.3797 60.5729 19.3797ZM55.7729 24.3717C55.3409 24.3717 55.0209 24.3077 54.8129 24.1797C54.6049 24.0517 54.4769 23.8837 54.4289 23.6757C54.3809 23.4677 54.3569 23.2277 54.3569 22.9557V9.15571C54.3569 8.88371 54.3809 8.64371 54.4289 8.43571C54.4769 8.22771 54.5969 8.05971 54.7889 7.93171C54.9969 7.78771 55.3169 7.71571 55.7489 7.71571C56.1649 7.71571 56.4929 7.77971 56.7329 7.90771C56.9729 8.03571 57.1329 8.25171 57.2129 8.55571V22.9317C57.2289 23.2037 57.2049 23.4437 57.1409 23.6517C57.0929 23.8757 56.9649 24.0517 56.7569 24.1797C56.5489 24.3077 56.2209 24.3717 55.7729 24.3717ZM60.1889 16.6917C60.7489 16.6917 61.2529 16.5637 61.7009 16.3077C62.1489 16.0357 62.5009 15.6677 62.7569 15.2037C63.0289 14.7237 63.1649 14.1877 63.1649 13.5957C63.1649 12.9877 63.0289 12.4517 62.7569 11.9877C62.5009 11.5237 62.1489 11.1637 61.7009 10.9077C61.2529 10.6357 60.7489 10.4997 60.1889 10.4997C59.6449 10.4997 59.1489 10.6357 58.7009 10.9077C58.2529 11.1797 57.8929 11.5477 57.6209 12.0117C57.3649 12.4597 57.2369 12.9877 57.2369 13.5957C57.2369 14.1877 57.3649 14.7237 57.6209 15.2037C57.8929 15.6677 58.2529 16.0357 58.7009 16.3077C59.1489 16.5637 59.6449 16.6917 60.1889 16.6917ZM69.5604 19.5477C69.1284 19.5477 68.8084 19.4757 68.6004 19.3317C68.3924 19.2037 68.2644 19.0357 68.2164 18.8277C68.1684 18.6037 68.1444 18.3557 68.1444 18.0837V9.15571C68.1444 8.89971 68.1684 8.66771 68.2164 8.45971C68.2804 8.23571 68.4084 8.05971 68.6004 7.93171C68.8084 7.80371 69.1364 7.73971 69.5844 7.73971C70.0324 7.73971 70.3524 7.80371 70.5444 7.93171C70.7524 8.05971 70.8804 8.23571 70.9284 8.45971C70.9764 8.68371 71.0004 8.93171 71.0004 9.20371V18.1077C71.0004 18.3797 70.9764 18.6277 70.9284 18.8517C70.8804 19.0597 70.7524 19.2277 70.5444 19.3557C70.3524 19.4837 70.0244 19.5477 69.5604 19.5477ZM69.5604 5.41171C69.0964 5.41171 68.7524 5.34771 68.5284 5.21971C68.3204 5.07571 68.1844 4.88371 68.1204 4.64371C68.0724 4.40371 68.0484 4.13971 68.0484 3.85171C68.0484 3.54771 68.0724 3.28371 68.1204 3.05971C68.1844 2.83571 68.3284 2.65971 68.5524 2.53171C68.7764 2.38771 69.1204 2.31571 69.5844 2.31571C70.0644 2.31571 70.4084 2.38771 70.6164 2.53171C70.8244 2.67571 70.9604 2.86771 71.0244 3.10771C71.0884 3.33171 71.1204 3.59571 71.1204 3.89971C71.1204 4.17171 71.0884 4.42771 71.0244 4.66771C70.9604 4.90771 70.8244 5.09171 70.6164 5.21971C70.4084 5.34771 70.0564 5.41171 69.5604 5.41171ZM75.0419 19.5477C74.6099 19.5477 74.2899 19.4757 74.0819 19.3317C73.8899 19.2037 73.7699 19.0277 73.7219 18.8037C73.6739 18.5797 73.6499 18.3317 73.6499 18.0597V9.15571C73.6499 8.86771 73.6739 8.61971 73.7219 8.41171C73.7699 8.18771 73.8899 8.01971 74.0819 7.90771C74.2899 7.77971 74.6179 7.71571 75.0659 7.71571C75.4979 7.71571 75.8099 7.77171 76.0019 7.88371C76.2099 7.99571 76.3379 8.13971 76.3859 8.31571C76.4499 8.47571 76.4819 8.63571 76.4819 8.79571L76.2899 9.22771C76.3699 9.09971 76.4819 8.94771 76.6259 8.77171C76.7699 8.57971 76.9619 8.39571 77.2019 8.21971C77.4419 8.02771 77.7299 7.87571 78.0659 7.76371C78.4019 7.63571 78.8019 7.57171 79.2659 7.57171C79.4579 7.57171 79.6579 7.59571 79.8659 7.64371C80.0899 7.67571 80.3059 7.73171 80.5139 7.81171C80.7379 7.87571 80.9379 7.96371 81.1139 8.07571C81.2899 8.18771 81.4259 8.32371 81.5219 8.48371C81.6179 8.62771 81.6659 8.79571 81.6659 8.98771C81.6659 9.49971 81.5379 9.93171 81.2819 10.2837C81.0259 10.6357 80.7219 10.8117 80.3699 10.8117C80.1299 10.8117 79.9539 10.7877 79.8419 10.7397C79.7299 10.6917 79.6339 10.6357 79.5539 10.5717C79.4899 10.5077 79.3859 10.4517 79.2419 10.4037C79.1139 10.3557 78.9059 10.3317 78.6179 10.3317C78.3779 10.3317 78.1299 10.3717 77.8739 10.4517C77.6339 10.5317 77.4099 10.6517 77.2019 10.8117C76.9939 10.9717 76.8259 11.1797 76.6979 11.4357C76.5699 11.6757 76.5059 11.9557 76.5059 12.2757V18.1077C76.5059 18.3797 76.4819 18.6277 76.4339 18.8517C76.3859 19.0597 76.2579 19.2277 76.0499 19.3557C75.8419 19.4837 75.5059 19.5477 75.0419 19.5477ZM85.1229 19.5477C84.6909 19.5477 84.3709 19.4757 84.1629 19.3317C83.9549 19.2037 83.8269 19.0357 83.7789 18.8277C83.7309 18.6037 83.7069 18.3557 83.7069 18.0837V9.15571C83.7069 8.89971 83.7309 8.66771 83.7789 8.45971C83.8429 8.23571 83.9709 8.05971 84.1629 7.93171C84.3709 7.80371 84.6989 7.73971 85.1469 7.73971C85.5949 7.73971 85.9149 7.80371 86.1069 7.93171C86.3149 8.05971 86.4429 8.23571 86.4909 8.45971C86.5389 8.68371 86.5629 8.93171 86.5629 9.20371V18.1077C86.5629 18.3797 86.5389 18.6277 86.4909 18.8517C86.4429 19.0597 86.3149 19.2277 86.1069 19.3557C85.9149 19.4837 85.5869 19.5477 85.1229 19.5477ZM85.1229 5.41171C84.6589 5.41171 84.3149 5.34771 84.0909 5.21971C83.8829 5.07571 83.7469 4.88371 83.6829 4.64371C83.6349 4.40371 83.6109 4.13971 83.6109 3.85171C83.6109 3.54771 83.6349 3.28371 83.6829 3.05971C83.7469 2.83571 83.8909 2.65971 84.1149 2.53171C84.3389 2.38771 84.6829 2.31571 85.1469 2.31571C85.6269 2.31571 85.9709 2.38771 86.1789 2.53171C86.3869 2.67571 86.5229 2.86771 86.5869 3.10771C86.6509 3.33171 86.6829 3.59571 86.6829 3.89971C86.6829 4.17171 86.6509 4.42771 86.5869 4.66771C86.5229 4.90771 86.3869 5.09171 86.1789 5.21971C85.9709 5.34771 85.6189 5.41171 85.1229 5.41171ZM94.7157 19.5477C93.9317 19.5477 93.2597 19.4677 92.6997 19.3077C92.1397 19.1477 91.6837 18.8997 91.3317 18.5637C90.9797 18.2277 90.7157 17.7957 90.5397 17.2677C90.3797 16.7237 90.2997 16.0837 90.2997 15.3477V5.17171C90.2997 4.88371 90.3237 4.63571 90.3717 4.42771C90.4357 4.21971 90.5637 4.05971 90.7557 3.94771C90.9637 3.81971 91.2837 3.75571 91.7157 3.75571C92.1637 3.75571 92.4837 3.81971 92.6757 3.94771C92.8837 4.07571 93.0117 4.25171 93.0597 4.47571C93.1237 4.68371 93.1557 4.91571 93.1557 5.17171V15.2517C93.1557 15.5877 93.1797 15.8597 93.2277 16.0677C93.2917 16.2757 93.3797 16.4357 93.4917 16.5477C93.6197 16.6437 93.7797 16.7157 93.9717 16.7637C94.1797 16.7957 94.4277 16.8117 94.7157 16.8117C95.0197 16.8117 95.2757 16.8357 95.4837 16.8837C95.7077 16.9317 95.8757 17.0517 95.9877 17.2437C96.0997 17.4197 96.1557 17.7157 96.1557 18.1317C96.1557 18.5797 96.0837 18.9077 95.9397 19.1157C95.8117 19.3077 95.6357 19.4277 95.4117 19.4757C95.2037 19.5237 94.9717 19.5477 94.7157 19.5477ZM89.3157 7.95571L91.7877 7.97971L95.0997 7.88371C95.3717 7.88371 95.6117 7.91571 95.8197 7.97971C96.0437 8.02771 96.2197 8.15571 96.3477 8.36371C96.4757 8.55571 96.5397 8.87571 96.5397 9.32371C96.5397 9.73971 96.4757 10.0517 96.3477 10.2597C96.2197 10.4677 96.0517 10.6037 95.8437 10.6677C95.6357 10.7157 95.3957 10.7397 95.1237 10.7397L91.9077 10.6917L89.2437 10.7157C88.8437 10.6997 88.5637 10.5877 88.4037 10.3797C88.2597 10.1557 88.1877 9.79571 88.1877 9.29971C88.1877 8.83571 88.2757 8.49971 88.4517 8.29171C88.6437 8.06771 88.9317 7.95571 89.3157 7.95571ZM103.225 19.5237C102.489 19.5237 101.809 19.3957 101.185 19.1397C100.577 18.8677 100.041 18.4837 99.5771 17.9877C99.1131 17.4917 98.7531 16.8997 98.4971 16.2117C98.2411 15.5237 98.1131 14.7637 98.1131 13.9317V9.15571C98.1131 8.88371 98.1371 8.64371 98.1851 8.43571C98.2331 8.21171 98.3611 8.03571 98.5691 7.90771C98.7771 7.77971 99.0971 7.71571 99.5291 7.71571C99.9931 7.71571 100.321 7.77971 100.513 7.90771C100.721 8.03571 100.849 8.21171 100.897 8.43571C100.945 8.65971 100.969 8.90771 100.969 9.17971V13.9317C100.969 14.5077 101.065 15.0037 101.257 15.4197C101.465 15.8357 101.761 16.1637 102.145 16.4037C102.529 16.6277 103.001 16.7397 103.561 16.7397C104.137 16.7397 104.625 16.6277 105.025 16.4037C105.441 16.1637 105.761 15.8357 105.985 15.4197C106.209 14.9877 106.321 14.4917 106.321 13.9317V9.13171C106.321 8.85971 106.345 8.61971 106.393 8.41171C106.441 8.18771 106.569 8.01971 106.777 7.90771C106.985 7.77971 107.313 7.71571 107.761 7.71571C108.209 7.71571 108.529 7.77971 108.721 7.90771C108.913 8.03571 109.033 8.21171 109.081 8.43571C109.145 8.65971 109.177 8.89971 109.177 9.15571V18.1557C109.177 18.3957 109.145 18.6197 109.081 18.8277C109.033 19.0357 108.905 19.2037 108.697 19.3317C108.505 19.4597 108.185 19.5237 107.737 19.5237C107.417 19.5237 107.161 19.4837 106.969 19.4037C106.793 19.3397 106.657 19.2517 106.561 19.1397C106.481 19.0117 106.425 18.8837 106.393 18.7557C106.377 18.6277 106.369 18.4997 106.369 18.3717L106.561 17.7237C106.465 17.8677 106.321 18.0437 106.129 18.2517C105.937 18.4437 105.697 18.6437 105.409 18.8517C105.137 19.0437 104.817 19.2037 104.449 19.3317C104.081 19.4597 103.673 19.5237 103.225 19.5237ZM121.388 19.4997C120.924 19.4997 120.58 19.4117 120.356 19.2357C120.132 19.0597 120.02 18.8197 120.02 18.5157L120.188 17.7237C120.06 17.9317 119.844 18.1797 119.54 18.4677C119.236 18.7397 118.836 18.9877 118.34 19.2117C117.844 19.4197 117.244 19.5237 116.54 19.5237C115.788 19.5237 115.076 19.3717 114.404 19.0677C113.748 18.7477 113.164 18.3157 112.652 17.7717C112.156 17.2117 111.756 16.5797 111.452 15.8757C111.164 15.1557 111.02 14.3877 111.02 13.5717C111.02 12.7877 111.164 12.0517 111.452 11.3637C111.756 10.6597 112.164 10.0357 112.676 9.49171C113.188 8.94771 113.772 8.52371 114.428 8.21971C115.1 7.89971 115.804 7.73971 116.54 7.73971C117.196 7.73971 117.748 7.82771 118.196 8.00371C118.66 8.17971 119.052 8.40371 119.372 8.67571C119.692 8.93171 119.956 9.20371 120.164 9.49171L120.02 8.79571C120.02 8.44371 120.132 8.17971 120.356 8.00371C120.58 7.81171 120.932 7.71571 121.412 7.71571C121.86 7.71571 122.18 7.78771 122.372 7.93171C122.564 8.05971 122.684 8.24371 122.732 8.48371C122.78 8.70771 122.804 8.96371 122.804 9.25171V18.0357C122.804 18.3077 122.78 18.5557 122.732 18.7797C122.684 19.0037 122.556 19.1797 122.348 19.3077C122.156 19.4357 121.836 19.4997 121.388 19.4997ZM116.972 16.7157C117.516 16.7157 118.004 16.5797 118.436 16.3077C118.868 16.0357 119.212 15.6677 119.468 15.2037C119.74 14.7237 119.876 14.1957 119.876 13.6197C119.876 12.9957 119.74 12.4517 119.468 11.9877C119.196 11.5237 118.836 11.1637 118.388 10.9077C117.956 10.6357 117.468 10.4997 116.924 10.4997C116.332 10.4997 115.804 10.6437 115.34 10.9317C114.876 11.2037 114.508 11.5797 114.236 12.0597C113.98 12.5237 113.852 13.0517 113.852 13.6437C113.852 14.2197 113.988 14.7397 114.26 15.2037C114.532 15.6677 114.9 16.0357 115.364 16.3077C115.844 16.5797 116.38 16.7157 116.972 16.7157ZM129.34 19.5477C128.748 19.5477 128.22 19.5077 127.756 19.4277C127.308 19.3477 126.916 19.2117 126.58 19.0197C126.26 18.8277 125.996 18.5717 125.788 18.2517C125.58 17.9157 125.42 17.5077 125.308 17.0277C125.212 16.5477 125.164 15.9717 125.164 15.2997V3.73171C125.164 3.45971 125.188 3.21971 125.236 3.01171C125.3 2.78771 125.428 2.61171 125.62 2.48371C125.828 2.33971 126.156 2.26771 126.604 2.26771C127.052 2.26771 127.372 2.33171 127.564 2.45971C127.772 2.58771 127.9 2.76371 127.948 2.98771C128.012 3.19571 128.044 3.43571 128.044 3.70771V15.1797C128.044 15.4837 128.06 15.7397 128.092 15.9477C128.14 16.1397 128.212 16.2997 128.308 16.4277C128.42 16.5397 128.556 16.6197 128.716 16.6677C128.892 16.7157 129.1 16.7397 129.34 16.7397C129.548 16.7397 129.732 16.7637 129.892 16.8117C130.068 16.8597 130.204 16.9797 130.3 17.1717C130.412 17.3637 130.468 17.6757 130.468 18.1077C130.468 18.5557 130.412 18.8837 130.3 19.0917C130.204 19.2997 130.068 19.4277 129.892 19.4757C129.716 19.5237 129.532 19.5477 129.34 19.5477ZM47.8053 39.5237C47.4853 39.5237 47.2293 39.4597 47.0373 39.3317C46.8613 39.2197 46.7253 39.0757 46.6293 38.8997C46.5493 38.7237 46.4773 38.5637 46.4133 38.4197L42.8853 29.4917C42.7893 29.1877 42.7413 28.9317 42.7413 28.7237C42.7573 28.5157 42.8373 28.3397 42.9813 28.1957C43.1413 28.0357 43.3733 27.8997 43.6773 27.7877C44.1893 27.5797 44.5893 27.5237 44.8773 27.6197C45.1813 27.7157 45.4053 27.9877 45.5493 28.4357L47.8293 34.4837L49.8933 28.6997C49.9413 28.5557 50.0133 28.4037 50.1093 28.2437C50.2053 28.0837 50.3413 27.9477 50.5173 27.8357C50.7093 27.7077 50.9653 27.6437 51.2853 27.6437C51.6213 27.6437 51.8853 27.7077 52.0773 27.8357C52.2693 27.9477 52.4133 28.0837 52.5093 28.2437C52.6213 28.4037 52.6933 28.5557 52.7253 28.6997L54.7893 34.5317L56.9733 28.6517C57.1653 28.1557 57.4053 27.8277 57.6933 27.6677C57.9813 27.5077 58.3733 27.5237 58.8693 27.7157C59.3173 27.9077 59.6213 28.1477 59.7813 28.4357C59.9413 28.7077 59.9253 29.0677 59.7333 29.5157L56.1813 38.4197C56.1173 38.5797 56.0373 38.7477 55.9413 38.9237C55.8613 39.0837 55.7253 39.2197 55.5333 39.3317C55.3573 39.4597 55.1173 39.5237 54.8133 39.5237C54.4933 39.5237 54.2373 39.4677 54.0453 39.3557C53.8693 39.2597 53.7333 39.1237 53.6373 38.9477C53.5413 38.7717 53.4613 38.5877 53.3973 38.3957L51.3093 32.4677L49.2213 38.3957C49.1253 38.6197 49.0373 38.8197 48.9573 38.9957C48.8773 39.1717 48.7493 39.2997 48.5733 39.3797C48.3973 39.4757 48.1413 39.5237 47.8053 39.5237ZM66.5366 39.6917C65.7686 39.6917 65.0166 39.5477 64.2806 39.2597C63.5606 38.9557 62.9046 38.5317 62.3126 37.9877C61.7366 37.4437 61.2726 36.8037 60.9206 36.0677C60.5846 35.3317 60.4166 34.5237 60.4166 33.6437C60.4166 32.7957 60.5766 32.0037 60.8966 31.2677C61.2166 30.5317 61.6566 29.8837 62.2166 29.3237C62.7766 28.7637 63.4166 28.3317 64.1366 28.0277C64.8726 27.7077 65.6566 27.5477 66.4886 27.5477C67.6086 27.5477 68.6246 27.8197 69.5366 28.3637C70.4486 28.8917 71.1766 29.6117 71.7206 30.5237C72.2646 31.4357 72.5366 32.4677 72.5366 33.6197C72.5366 34.5317 72.3686 35.3637 72.0326 36.1157C71.6966 36.8517 71.2406 37.4917 70.6646 38.0357C70.0886 38.5637 69.4406 38.9717 68.7206 39.2597C68.0166 39.5477 67.2886 39.6917 66.5366 39.6917ZM66.4886 36.8597C67.0166 36.8597 67.5206 36.7317 68.0006 36.4757C68.4966 36.2037 68.8966 35.8197 69.2006 35.3237C69.5206 34.8277 69.6806 34.2437 69.6806 33.5717C69.6806 32.9477 69.5366 32.3957 69.2486 31.9157C68.9766 31.4357 68.6006 31.0597 68.1206 30.7877C67.6406 30.5157 67.0886 30.3797 66.4646 30.3797C65.8726 30.3797 65.3366 30.5237 64.8566 30.8117C64.3766 31.0837 63.9926 31.4677 63.7046 31.9637C63.4326 32.4437 63.2966 32.9877 63.2966 33.5957C63.2966 34.2677 63.4486 34.8517 63.7526 35.3477C64.0566 35.8277 64.4486 36.2037 64.9286 36.4757C65.4246 36.7317 65.9446 36.8597 66.4886 36.8597ZM75.8388 39.5477C75.4068 39.5477 75.0868 39.4757 74.8788 39.3317C74.6868 39.2037 74.5668 39.0277 74.5188 38.8037C74.4708 38.5797 74.4468 38.3317 74.4468 38.0597V29.1557C74.4468 28.8677 74.4708 28.6197 74.5188 28.4117C74.5668 28.1877 74.6868 28.0197 74.8788 27.9077C75.0868 27.7797 75.4148 27.7157 75.8628 27.7157C76.2948 27.7157 76.6068 27.7717 76.7988 27.8837C77.0068 27.9957 77.1348 28.1397 77.1828 28.3157C77.2468 28.4757 77.2788 28.6357 77.2788 28.7957L77.0868 29.2277C77.1668 29.0997 77.2788 28.9477 77.4228 28.7717C77.5668 28.5797 77.7588 28.3957 77.9988 28.2197C78.2388 28.0277 78.5268 27.8757 78.8628 27.7637C79.1988 27.6357 79.5988 27.5717 80.0628 27.5717C80.2548 27.5717 80.4548 27.5957 80.6628 27.6437C80.8868 27.6757 81.1028 27.7317 81.3108 27.8117C81.5348 27.8757 81.7348 27.9637 81.9108 28.0757C82.0868 28.1877 82.2228 28.3237 82.3188 28.4837C82.4148 28.6277 82.4628 28.7957 82.4628 28.9877C82.4628 29.4997 82.3348 29.9317 82.0788 30.2837C81.8228 30.6357 81.5188 30.8117 81.1668 30.8117C80.9268 30.8117 80.7508 30.7877 80.6388 30.7397C80.5268 30.6917 80.4308 30.6357 80.3508 30.5717C80.2868 30.5077 80.1828 30.4517 80.0388 30.4037C79.9108 30.3557 79.7028 30.3317 79.4148 30.3317C79.1748 30.3317 78.9268 30.3717 78.6708 30.4517C78.4308 30.5317 78.2068 30.6517 77.9988 30.8117C77.7908 30.9717 77.6228 31.1797 77.4948 31.4357C77.3668 31.6757 77.3028 31.9557 77.3028 32.2757V38.1077C77.3028 38.3797 77.2788 38.6277 77.2308 38.8517C77.1828 39.0597 77.0548 39.2277 76.8468 39.3557C76.6388 39.4837 76.3028 39.5477 75.8388 39.5477ZM88.5117 39.5477C87.9197 39.5477 87.3917 39.5077 86.9277 39.4277C86.4797 39.3477 86.0877 39.2117 85.7517 39.0197C85.4317 38.8277 85.1677 38.5717 84.9597 38.2517C84.7517 37.9157 84.5917 37.5077 84.4797 37.0277C84.3837 36.5477 84.3357 35.9717 84.3357 35.2997V23.7317C84.3357 23.4597 84.3597 23.2197 84.4077 23.0117C84.4717 22.7877 84.5997 22.6117 84.7917 22.4837C84.9997 22.3397 85.3277 22.2677 85.7757 22.2677C86.2237 22.2677 86.5437 22.3317 86.7357 22.4597C86.9437 22.5877 87.0717 22.7637 87.1197 22.9877C87.1837 23.1957 87.2157 23.4357 87.2157 23.7077V35.1797C87.2157 35.4837 87.2317 35.7397 87.2637 35.9477C87.3117 36.1397 87.3837 36.2997 87.4797 36.4277C87.5917 36.5397 87.7277 36.6197 87.8877 36.6677C88.0637 36.7157 88.2717 36.7397 88.5117 36.7397C88.7197 36.7397 88.9037 36.7637 89.0637 36.8117C89.2397 36.8597 89.3757 36.9797 89.4717 37.1717C89.5837 37.3637 89.6397 37.6757 89.6397 38.1077C89.6397 38.5557 89.5837 38.8837 89.4717 39.0917C89.3757 39.2997 89.2397 39.4277 89.0637 39.4757C88.8877 39.5237 88.7037 39.5477 88.5117 39.5477ZM96.4561 39.5237C95.7201 39.5237 95.0241 39.3717 94.3681 39.0677C93.7121 38.7637 93.1361 38.3477 92.6401 37.8197C92.1441 37.2757 91.7521 36.6437 91.4641 35.9237C91.1761 35.1877 91.0321 34.4037 91.0321 33.5717C91.0321 32.7717 91.1761 32.0197 91.4641 31.3157C91.7521 30.5957 92.1441 29.9717 92.6401 29.4437C93.1521 28.8997 93.7361 28.4757 94.3921 28.1717C95.0481 27.8677 95.7361 27.7157 96.4561 27.7157C97.2241 27.7157 97.9121 27.8677 98.5201 28.1717C99.1281 28.4757 99.6401 28.8997 100.056 29.4437C100.488 29.9717 100.816 30.5957 101.04 31.3157C101.264 32.0197 101.384 32.7797 101.4 33.5957C101.4 34.4117 101.288 35.1797 101.064 35.8997C100.856 36.6037 100.536 37.2277 100.104 37.7717C99.6881 38.3157 99.1681 38.7477 98.5441 39.0677C97.9361 39.3717 97.2401 39.5237 96.4561 39.5237ZM96.8401 36.7157C97.4001 36.7157 97.8961 36.5877 98.3281 36.3317C98.7761 36.0597 99.1281 35.6917 99.3841 35.2277C99.6561 34.7637 99.7921 34.2357 99.7921 33.6437C99.7921 33.0357 99.6561 32.4997 99.3841 32.0357C99.1281 31.5717 98.7761 31.2037 98.3281 30.9317C97.8961 30.6597 97.4001 30.5237 96.8401 30.5237C96.2801 30.5237 95.7761 30.6597 95.3281 30.9317C94.8801 31.1877 94.5201 31.5557 94.2481 32.0357C93.9921 32.4997 93.8641 33.0357 93.8641 33.6437C93.8641 34.2357 93.9921 34.7637 94.2481 35.2277C94.5201 35.6917 94.8801 36.0597 95.3281 36.3317C95.7921 36.5877 96.2961 36.7157 96.8401 36.7157ZM101.28 39.5237C100.832 39.5237 100.504 39.4517 100.296 39.3077C100.088 39.1477 99.9521 38.8997 99.8881 38.5637V23.7797C99.8881 23.5077 99.9041 23.2677 99.9361 23.0597C99.9841 22.8357 100.104 22.6597 100.296 22.5317C100.504 22.3877 100.824 22.3157 101.256 22.3157C101.72 22.3157 102.048 22.3797 102.24 22.5077C102.432 22.6357 102.552 22.8117 102.6 23.0357C102.664 23.2437 102.696 23.4837 102.696 23.7557V38.0597C102.696 38.3317 102.672 38.5797 102.624 38.8037C102.576 39.0277 102.448 39.2037 102.24 39.3317C102.048 39.4597 101.728 39.5237 101.28 39.5237Z" fill="white"/>
<path d="M11.3846 29.2664C10.7486 29.2664 10.1906 29.1884 9.71059 29.0324C9.24259 28.8764 8.84059 28.6904 8.50459 28.4744C8.18059 28.2464 7.92259 28.0244 7.73059 27.8084C7.53859 27.5924 7.40659 27.4304 7.33459 27.3224C7.13059 27.0584 7.00459 26.8304 6.95659 26.6384C6.90859 26.4344 6.93259 26.2304 7.02859 26.0264C7.13659 25.8224 7.31659 25.6004 7.56859 25.3604C7.82059 25.1444 8.05459 25.0304 8.27059 25.0184C8.49859 24.9944 8.72059 25.0484 8.93659 25.1804C9.15259 25.3124 9.36259 25.4984 9.56659 25.7384C9.85459 26.0864 10.1366 26.3324 10.4126 26.4764C10.7006 26.6084 11.0006 26.6744 11.3126 26.6744C11.7086 26.6744 12.0446 26.6264 12.3206 26.5304C12.5966 26.4344 12.8066 26.2844 12.9506 26.0804C13.0946 25.8644 13.1666 25.5944 13.1666 25.2704C13.1666 25.0064 13.0646 24.7964 12.8606 24.6404C12.6686 24.4724 12.4046 24.3284 12.0686 24.2084C11.7446 24.0884 11.3786 23.9744 10.9706 23.8664C10.5746 23.7464 10.1786 23.6084 9.78259 23.4524C9.50659 23.3564 9.24259 23.2364 8.99059 23.0924C8.73859 22.9484 8.49859 22.7864 8.27059 22.6064C8.04259 22.4264 7.84459 22.2104 7.67659 21.9584C7.52059 21.7064 7.39459 21.4184 7.29859 21.0944C7.21459 20.7704 7.17259 20.3984 7.17259 19.9784C7.17259 19.2704 7.34659 18.6404 7.69459 18.0884C8.04259 17.5364 8.52259 17.1044 9.13459 16.7924C9.75859 16.4684 10.4726 16.3064 11.2766 16.3064C11.8166 16.3064 12.2846 16.3544 12.6806 16.4504C13.0886 16.5464 13.4306 16.6604 13.7066 16.7924C13.9826 16.9244 14.1986 17.0564 14.3546 17.1884C14.5226 17.3084 14.6366 17.4044 14.6966 17.4764C15.0326 17.7884 15.2186 18.0584 15.2546 18.2864C15.2906 18.5024 15.1646 18.8084 14.8766 19.2044C14.5766 19.6244 14.2766 19.8584 13.9766 19.9064C13.6886 19.9544 13.3586 19.8524 12.9866 19.6004C12.8426 19.4684 12.6986 19.3484 12.5546 19.2404C12.4106 19.1324 12.2366 19.0484 12.0326 18.9884C11.8406 18.9164 11.5826 18.8804 11.2586 18.8804C11.0666 18.8804 10.8866 18.9104 10.7186 18.9704C10.5506 19.0184 10.4066 19.0904 10.2866 19.1864C10.1666 19.2824 10.0706 19.4024 9.99859 19.5464C9.92659 19.6784 9.89059 19.8284 9.89059 19.9964C9.89059 20.2724 9.98059 20.4944 10.1606 20.6624C10.3526 20.8304 10.5986 20.9684 10.8986 21.0764C11.2106 21.1724 11.5526 21.2684 11.9246 21.3644C12.3086 21.4484 12.6986 21.5504 13.0946 21.6704C13.4546 21.7904 13.8026 21.9404 14.1386 22.1204C14.4746 22.2884 14.7746 22.5044 15.0386 22.7684C15.3026 23.0324 15.5126 23.3624 15.6686 23.7584C15.8366 24.1544 15.9206 24.6404 15.9206 25.2164C15.9206 25.9364 15.7826 26.5544 15.5066 27.0704C15.2306 27.5864 14.8646 28.0064 14.4086 28.3304C13.9526 28.6544 13.4606 28.8884 12.9326 29.0324C12.4046 29.1884 11.8886 29.2664 11.3846 29.2664ZM20.9538 29.0504C20.6418 29.0504 20.3958 28.9904 20.2158 28.8704C20.0358 28.7504 19.9038 28.6124 19.8198 28.4564C19.7478 28.3004 19.6998 28.1924 19.6758 28.1324L16.2918 18.3224C16.1358 17.8184 16.1118 17.4464 16.2198 17.2064C16.3278 16.9544 16.6398 16.7444 17.1558 16.5764C17.4918 16.4684 17.7618 16.4204 17.9658 16.4324C18.1818 16.4444 18.3558 16.5284 18.4878 16.6844C18.6318 16.8404 18.7578 17.0864 18.8658 17.4224L21.1158 24.1004L23.0058 17.5124C23.0418 17.3924 23.0958 17.2544 23.1678 17.0984C23.2518 16.9424 23.3838 16.8044 23.5638 16.6844C23.7438 16.5644 23.9958 16.5044 24.3198 16.5044C24.6918 16.5044 24.9678 16.5704 25.1478 16.7024C25.3398 16.8344 25.4718 16.9784 25.5438 17.1344C25.6158 17.2904 25.6698 17.4104 25.7058 17.4944L27.6138 24.1364L29.8458 17.4404C29.9538 17.1044 30.0738 16.8584 30.2058 16.7024C30.3498 16.5344 30.5298 16.4384 30.7458 16.4144C30.9738 16.3904 31.2558 16.4384 31.5918 16.5584C31.9518 16.6904 32.2038 16.8284 32.3478 16.9724C32.4918 17.1164 32.5638 17.2964 32.5638 17.5124C32.5758 17.7164 32.5338 17.9864 32.4378 18.3224L29.0538 28.1324C29.0298 28.2044 28.9758 28.3184 28.8918 28.4744C28.8198 28.6184 28.6938 28.7504 28.5138 28.8704C28.3458 28.9904 28.0938 29.0504 27.7578 29.0504C27.4338 29.0504 27.1758 28.9784 26.9838 28.8344C26.7918 28.6904 26.6538 28.5404 26.5698 28.3844C26.4978 28.2164 26.4498 28.1024 26.4258 28.0424L24.3558 21.3284L22.2858 28.0424C22.2738 28.1024 22.2258 28.2164 22.1418 28.3844C22.0578 28.5524 21.9198 28.7084 21.7278 28.8524C21.5478 28.9844 21.2898 29.0504 20.9538 29.0504Z" fill="white"/>
<circle cx="20.0066" cy="22.8228" r="18.2234" stroke="white" stroke-width="3"/>
</svg>
