<svg width="138" height="43" viewBox="0 0 138 43" fill="none" xmlns="http://www.w3.org/2000/svg">
<path d="M48.1582 19.4854C47.7422 19.4854 47.3022 19.4374 46.8382 19.3414C46.3742 19.2614 45.9262 19.1414 45.4942 18.9814C45.0622 18.8054 44.6862 18.6054 44.3662 18.3814C44.0622 18.1414 43.8702 17.8774 43.7902 17.5894C43.7262 17.4294 43.7022 17.2774 43.7182 17.1334C43.7342 16.9734 43.7822 16.8134 43.8622 16.6534C43.9422 16.4774 44.0622 16.3014 44.2222 16.1254C44.3662 15.9494 44.5102 15.8534 44.6542 15.8374C44.8142 15.8054 45.0142 15.8534 45.2542 15.9814C45.4622 16.0614 45.6862 16.1654 45.9262 16.2934C46.1822 16.4214 46.4382 16.5494 46.6942 16.6774C46.9662 16.8054 47.2382 16.9094 47.5102 16.9894C47.7982 17.0694 48.0782 17.1094 48.3502 17.1094C48.9422 17.1094 49.4142 17.0134 49.7662 16.8214C50.1182 16.6134 50.2942 16.3254 50.2942 15.9574C50.2942 15.7494 50.2382 15.5654 50.1262 15.4054C50.0142 15.2454 49.8622 15.1174 49.6702 15.0214C49.4942 14.9094 49.2782 14.8134 49.0222 14.7334C48.7822 14.6374 48.5182 14.5574 48.2302 14.4934C47.9582 14.4134 47.6702 14.3254 47.3662 14.2294C46.9662 14.1174 46.5662 13.9814 46.1662 13.8214C45.7662 13.6614 45.4062 13.4534 45.0862 13.1974C44.7822 12.9414 44.5342 12.6214 44.3422 12.2374C44.1502 11.8534 44.0542 11.3734 44.0542 10.7974C44.0542 10.0774 44.2222 9.46938 44.5582 8.97338C44.9102 8.46138 45.4142 8.06938 46.0702 7.79738C46.7262 7.52538 47.5182 7.38938 48.4462 7.38938C48.7662 7.38938 49.0702 7.41338 49.3582 7.46138C49.6622 7.50938 49.9502 7.58138 50.2222 7.67738C50.5102 7.75738 50.7822 7.86138 51.0382 7.98938C51.3102 8.11738 51.5662 8.26138 51.8062 8.42138C52.2062 8.64538 52.4142 8.90938 52.4302 9.21338C52.4462 9.50138 52.3342 9.81338 52.0942 10.1494C51.9182 10.3734 51.7422 10.5334 51.5662 10.6294C51.3902 10.7094 51.2062 10.7094 51.0142 10.6294C50.7582 10.5014 50.4782 10.3654 50.1742 10.2214C49.8862 10.0614 49.5822 9.92538 49.2622 9.81338C48.9582 9.70138 48.6382 9.64538 48.3022 9.64538C47.9822 9.64538 47.6942 9.69338 47.4382 9.78938C47.1822 9.88538 46.9902 10.0214 46.8622 10.1974C46.7342 10.3734 46.6702 10.5814 46.6702 10.8214C46.6702 11.0454 46.7342 11.2294 46.8622 11.3734C46.9902 11.5174 47.1582 11.6374 47.3662 11.7334C47.5742 11.8294 47.8222 11.9174 48.1102 11.9974C48.3982 12.0614 48.7022 12.1254 49.0222 12.1894C49.4702 12.2854 49.9262 12.4054 50.3902 12.5494C50.8542 12.6934 51.2782 12.8934 51.6622 13.1494C52.0622 13.4054 52.3822 13.7494 52.6222 14.1814C52.8622 14.5974 52.9822 15.1414 52.9822 15.8134C52.9822 16.9814 52.5502 17.8854 51.6862 18.5254C50.8382 19.1654 49.6622 19.4854 48.1582 19.4854ZM61.1418 19.1734C60.3578 19.1734 59.6538 19.0294 59.0298 18.7414C58.4218 18.4374 57.9018 18.0214 57.4698 17.4934C57.0538 16.9494 56.7338 16.3254 56.5098 15.6214C56.3018 14.9174 56.1978 14.1574 56.1978 13.3414C56.2138 12.5254 56.3338 11.7654 56.5578 11.0614C56.7818 10.3414 57.1018 9.71738 57.5178 9.18938C57.9498 8.66138 58.4698 8.24538 59.0778 7.94138C59.6858 7.63738 60.3738 7.48538 61.1418 7.48538C61.8778 7.48538 62.5658 7.63738 63.2058 7.94138C63.8618 8.24538 64.4378 8.66938 64.9338 9.21338C65.4458 9.75738 65.8458 10.3894 66.1338 11.1094C66.4218 11.8134 66.5658 12.5734 66.5658 13.3894C66.5658 14.2214 66.4218 14.9894 66.1338 15.6934C65.8458 16.3974 65.4538 17.0134 64.9578 17.5414C64.4618 18.0534 63.8858 18.4534 63.2298 18.7414C62.5738 19.0294 61.8778 19.1734 61.1418 19.1734ZM56.3418 24.1654C55.9098 24.1654 55.5898 24.1014 55.3818 23.9734C55.1738 23.8454 55.0458 23.6774 54.9978 23.4694C54.9498 23.2614 54.9258 23.0214 54.9258 22.7494V8.94938C54.9258 8.67738 54.9498 8.43738 54.9978 8.22938C55.0458 8.02138 55.1658 7.85338 55.3578 7.72538C55.5658 7.58138 55.8858 7.50938 56.3178 7.50938C56.7338 7.50938 57.0618 7.57338 57.3018 7.70138C57.5418 7.82938 57.7018 8.04538 57.7818 8.34938V22.7254C57.7978 22.9974 57.7738 23.2374 57.7098 23.4454C57.6618 23.6694 57.5338 23.8454 57.3258 23.9734C57.1178 24.1014 56.7898 24.1654 56.3418 24.1654ZM60.7578 16.4854C61.3178 16.4854 61.8218 16.3574 62.2698 16.1014C62.7178 15.8294 63.0698 15.4614 63.3258 14.9974C63.5978 14.5174 63.7338 13.9814 63.7338 13.3894C63.7338 12.7814 63.5978 12.2454 63.3258 11.7814C63.0698 11.3174 62.7178 10.9574 62.2698 10.7014C61.8218 10.4294 61.3178 10.2934 60.7578 10.2934C60.2138 10.2934 59.7178 10.4294 59.2698 10.7014C58.8218 10.9734 58.4618 11.3414 58.1898 11.8054C57.9338 12.2534 57.8058 12.7814 57.8058 13.3894C57.8058 13.9814 57.9338 14.5174 58.1898 14.9974C58.4618 15.4614 58.8218 15.8294 59.2698 16.1014C59.7178 16.3574 60.2138 16.4854 60.7578 16.4854ZM70.1292 19.3414C69.6972 19.3414 69.3772 19.2694 69.1692 19.1254C68.9612 18.9974 68.8332 18.8294 68.7852 18.6214C68.7372 18.3974 68.7132 18.1494 68.7132 17.8774V8.94938C68.7132 8.69338 68.7372 8.46138 68.7852 8.25338C68.8492 8.02938 68.9772 7.85338 69.1692 7.72538C69.3772 7.59738 69.7052 7.53338 70.1532 7.53338C70.6012 7.53338 70.9212 7.59738 71.1132 7.72538C71.3212 7.85338 71.4492 8.02938 71.4972 8.25338C71.5452 8.47738 71.5692 8.72538 71.5692 8.99738V17.9014C71.5692 18.1734 71.5452 18.4214 71.4972 18.6454C71.4492 18.8534 71.3212 19.0214 71.1132 19.1494C70.9212 19.2774 70.5932 19.3414 70.1292 19.3414ZM70.1292 5.20538C69.6652 5.20538 69.3212 5.14138 69.0972 5.01338C68.8892 4.86938 68.7532 4.67738 68.6892 4.43738C68.6412 4.19738 68.6172 3.93338 68.6172 3.64538C68.6172 3.34138 68.6412 3.07738 68.6892 2.85338C68.7532 2.62938 68.8972 2.45338 69.1212 2.32538C69.3452 2.18138 69.6892 2.10938 70.1532 2.10938C70.6332 2.10938 70.9772 2.18138 71.1852 2.32538C71.3932 2.46938 71.5292 2.66138 71.5932 2.90138C71.6572 3.12538 71.6892 3.38938 71.6892 3.69338C71.6892 3.96538 71.6572 4.22138 71.5932 4.46138C71.5292 4.70138 71.3932 4.88538 71.1852 5.01338C70.9772 5.14138 70.6252 5.20538 70.1292 5.20538ZM75.6108 19.3414C75.1788 19.3414 74.8588 19.2694 74.6508 19.1254C74.4588 18.9974 74.3388 18.8214 74.2908 18.5974C74.2428 18.3734 74.2188 18.1254 74.2188 17.8534V8.94938C74.2188 8.66138 74.2428 8.41338 74.2908 8.20538C74.3388 7.98138 74.4588 7.81338 74.6508 7.70138C74.8588 7.57338 75.1868 7.50938 75.6348 7.50938C76.0668 7.50938 76.3788 7.56538 76.5708 7.67738C76.7788 7.78938 76.9068 7.93338 76.9548 8.10938C77.0188 8.26938 77.0508 8.42938 77.0508 8.58938L76.8588 9.02138C76.9388 8.89338 77.0508 8.74138 77.1948 8.56538C77.3388 8.37338 77.5308 8.18938 77.7708 8.01338C78.0108 7.82138 78.2988 7.66938 78.6348 7.55738C78.9708 7.42938 79.3708 7.36538 79.8348 7.36538C80.0268 7.36538 80.2268 7.38938 80.4348 7.43738C80.6588 7.46938 80.8748 7.52538 81.0828 7.60538C81.3068 7.66938 81.5068 7.75738 81.6828 7.86938C81.8588 7.98138 81.9948 8.11738 82.0908 8.27738C82.1868 8.42138 82.2348 8.58938 82.2348 8.78138C82.2348 9.29338 82.1068 9.72538 81.8508 10.0774C81.5948 10.4294 81.2908 10.6054 80.9388 10.6054C80.6988 10.6054 80.5228 10.5814 80.4108 10.5334C80.2988 10.4854 80.2028 10.4294 80.1228 10.3654C80.0588 10.3014 79.9548 10.2454 79.8108 10.1974C79.6828 10.1494 79.4748 10.1254 79.1868 10.1254C78.9468 10.1254 78.6988 10.1654 78.4428 10.2454C78.2028 10.3254 77.9788 10.4454 77.7708 10.6054C77.5628 10.7654 77.3948 10.9734 77.2668 11.2294C77.1388 11.4694 77.0748 11.7494 77.0748 12.0694V17.9014C77.0748 18.1734 77.0508 18.4214 77.0028 18.6454C76.9548 18.8534 76.8268 19.0214 76.6188 19.1494C76.4108 19.2774 76.0748 19.3414 75.6108 19.3414ZM85.6917 19.3414C85.2597 19.3414 84.9397 19.2694 84.7317 19.1254C84.5237 18.9974 84.3957 18.8294 84.3477 18.6214C84.2997 18.3974 84.2757 18.1494 84.2757 17.8774V8.94938C84.2757 8.69338 84.2997 8.46138 84.3477 8.25338C84.4117 8.02938 84.5397 7.85338 84.7317 7.72538C84.9397 7.59738 85.2677 7.53338 85.7157 7.53338C86.1637 7.53338 86.4837 7.59738 86.6757 7.72538C86.8837 7.85338 87.0117 8.02938 87.0597 8.25338C87.1077 8.47738 87.1317 8.72538 87.1317 8.99738V17.9014C87.1317 18.1734 87.1077 18.4214 87.0597 18.6454C87.0117 18.8534 86.8837 19.0214 86.6757 19.1494C86.4837 19.2774 86.1557 19.3414 85.6917 19.3414ZM85.6917 5.20538C85.2277 5.20538 84.8837 5.14138 84.6597 5.01338C84.4517 4.86938 84.3157 4.67738 84.2517 4.43738C84.2037 4.19738 84.1797 3.93338 84.1797 3.64538C84.1797 3.34138 84.2037 3.07738 84.2517 2.85338C84.3157 2.62938 84.4597 2.45338 84.6837 2.32538C84.9077 2.18138 85.2517 2.10938 85.7157 2.10938C86.1957 2.10938 86.5397 2.18138 86.7477 2.32538C86.9557 2.46938 87.0917 2.66138 87.1557 2.90138C87.2197 3.12538 87.2517 3.38938 87.2517 3.69338C87.2517 3.96538 87.2197 4.22138 87.1557 4.46138C87.0917 4.70138 86.9557 4.88538 86.7477 5.01338C86.5397 5.14138 86.1877 5.20538 85.6917 5.20538ZM95.2846 19.3414C94.5006 19.3414 93.8286 19.2614 93.2686 19.1014C92.7086 18.9414 92.2526 18.6934 91.9006 18.3574C91.5486 18.0214 91.2846 17.5894 91.1086 17.0614C90.9486 16.5174 90.8686 15.8774 90.8686 15.1414V4.96538C90.8686 4.67738 90.8926 4.42938 90.9406 4.22138C91.0046 4.01338 91.1326 3.85338 91.3246 3.74138C91.5326 3.61338 91.8526 3.54938 92.2846 3.54938C92.7326 3.54938 93.0526 3.61338 93.2446 3.74138C93.4526 3.86938 93.5806 4.04538 93.6286 4.26938C93.6926 4.47738 93.7246 4.70938 93.7246 4.96538V15.0454C93.7246 15.3814 93.7486 15.6534 93.7966 15.8614C93.8606 16.0694 93.9486 16.2294 94.0606 16.3414C94.1886 16.4374 94.3486 16.5094 94.5406 16.5574C94.7486 16.5894 94.9966 16.6054 95.2846 16.6054C95.5886 16.6054 95.8446 16.6294 96.0526 16.6774C96.2766 16.7254 96.4446 16.8454 96.5566 17.0374C96.6686 17.2134 96.7246 17.5094 96.7246 17.9254C96.7246 18.3734 96.6526 18.7014 96.5086 18.9094C96.3806 19.1014 96.2046 19.2214 95.9806 19.2694C95.7726 19.3174 95.5406 19.3414 95.2846 19.3414ZM89.8846 7.74938L92.3566 7.77338L95.6686 7.67738C95.9406 7.67738 96.1806 7.70938 96.3886 7.77338C96.6126 7.82138 96.7886 7.94938 96.9166 8.15738C97.0446 8.34938 97.1086 8.66938 97.1086 9.11738C97.1086 9.53338 97.0446 9.84538 96.9166 10.0534C96.7886 10.2614 96.6206 10.3974 96.4126 10.4614C96.2046 10.5094 95.9646 10.5334 95.6926 10.5334L92.4766 10.4854L89.8126 10.5094C89.4126 10.4934 89.1326 10.3814 88.9726 10.1734C88.8286 9.94938 88.7566 9.58938 88.7566 9.09338C88.7566 8.62938 88.8446 8.29338 89.0206 8.08538C89.2126 7.86138 89.5006 7.74938 89.8846 7.74938ZM103.794 19.3174C103.058 19.3174 102.378 19.1894 101.754 18.9334C101.146 18.6614 100.61 18.2774 100.146 17.7814C99.6819 17.2854 99.3219 16.6934 99.0659 16.0054C98.8099 15.3174 98.6819 14.5574 98.6819 13.7254V8.94938C98.6819 8.67738 98.7059 8.43738 98.7539 8.22938C98.8019 8.00538 98.9299 7.82938 99.1379 7.70138C99.3459 7.57338 99.6659 7.50938 100.098 7.50938C100.562 7.50938 100.89 7.57338 101.082 7.70138C101.29 7.82938 101.418 8.00538 101.466 8.22938C101.514 8.45338 101.538 8.70138 101.538 8.97338V13.7254C101.538 14.3014 101.634 14.7974 101.826 15.2134C102.034 15.6294 102.33 15.9574 102.714 16.1974C103.098 16.4214 103.57 16.5334 104.13 16.5334C104.706 16.5334 105.194 16.4214 105.594 16.1974C106.01 15.9574 106.33 15.6294 106.554 15.2134C106.778 14.7814 106.89 14.2854 106.89 13.7254V8.92538C106.89 8.65338 106.914 8.41338 106.962 8.20538C107.01 7.98138 107.138 7.81338 107.346 7.70138C107.554 7.57338 107.882 7.50938 108.33 7.50938C108.778 7.50938 109.098 7.57338 109.29 7.70138C109.482 7.82938 109.602 8.00538 109.65 8.22938C109.714 8.45338 109.746 8.69338 109.746 8.94938V17.9494C109.746 18.1894 109.714 18.4134 109.65 18.6214C109.602 18.8294 109.474 18.9974 109.266 19.1254C109.074 19.2534 108.754 19.3174 108.306 19.3174C107.986 19.3174 107.73 19.2774 107.538 19.1974C107.362 19.1334 107.226 19.0454 107.13 18.9334C107.05 18.8054 106.994 18.6774 106.962 18.5494C106.946 18.4214 106.938 18.2934 106.938 18.1654L107.13 17.5174C107.034 17.6614 106.89 17.8374 106.698 18.0454C106.506 18.2374 106.266 18.4374 105.978 18.6454C105.706 18.8374 105.386 18.9974 105.018 19.1254C104.65 19.2534 104.242 19.3174 103.794 19.3174ZM121.957 19.2934C121.493 19.2934 121.149 19.2054 120.925 19.0294C120.701 18.8534 120.589 18.6134 120.589 18.3094L120.757 17.5174C120.629 17.7254 120.413 17.9734 120.109 18.2614C119.805 18.5334 119.405 18.7814 118.909 19.0054C118.413 19.2134 117.813 19.3174 117.109 19.3174C116.357 19.3174 115.645 19.1654 114.973 18.8614C114.317 18.5414 113.733 18.1094 113.221 17.5654C112.725 17.0054 112.325 16.3734 112.021 15.6694C111.733 14.9494 111.589 14.1814 111.589 13.3654C111.589 12.5814 111.733 11.8454 112.021 11.1574C112.325 10.4534 112.733 9.82938 113.245 9.28538C113.757 8.74138 114.341 8.31738 114.997 8.01338C115.669 7.69338 116.373 7.53338 117.109 7.53338C117.765 7.53338 118.317 7.62138 118.765 7.79738C119.229 7.97338 119.621 8.19738 119.941 8.46938C120.261 8.72538 120.525 8.99738 120.733 9.28538L120.589 8.58938C120.589 8.23738 120.701 7.97338 120.925 7.79738C121.149 7.60538 121.501 7.50938 121.981 7.50938C122.429 7.50938 122.749 7.58138 122.941 7.72538C123.133 7.85338 123.253 8.03738 123.301 8.27738C123.349 8.50138 123.373 8.75738 123.373 9.04538V17.8294C123.373 18.1014 123.349 18.3494 123.301 18.5734C123.253 18.7974 123.125 18.9734 122.917 19.1014C122.725 19.2294 122.405 19.2934 121.957 19.2934ZM117.541 16.5094C118.085 16.5094 118.573 16.3734 119.005 16.1014C119.437 15.8294 119.781 15.4614 120.037 14.9974C120.309 14.5174 120.445 13.9894 120.445 13.4134C120.445 12.7894 120.309 12.2454 120.037 11.7814C119.765 11.3174 119.405 10.9574 118.957 10.7014C118.525 10.4294 118.037 10.2934 117.493 10.2934C116.901 10.2934 116.373 10.4374 115.909 10.7254C115.445 10.9974 115.077 11.3734 114.805 11.8534C114.549 12.3174 114.421 12.8454 114.421 13.4374C114.421 14.0134 114.557 14.5334 114.829 14.9974C115.101 15.4614 115.469 15.8294 115.933 16.1014C116.413 16.3734 116.949 16.5094 117.541 16.5094ZM129.909 19.3414C129.317 19.3414 128.789 19.3014 128.325 19.2214C127.877 19.1414 127.485 19.0054 127.149 18.8134C126.829 18.6214 126.565 18.3654 126.357 18.0454C126.149 17.7094 125.989 17.3014 125.877 16.8214C125.781 16.3414 125.733 15.7654 125.733 15.0934V3.52538C125.733 3.25338 125.757 3.01338 125.805 2.80538C125.869 2.58138 125.997 2.40538 126.189 2.27738C126.397 2.13338 126.725 2.06138 127.173 2.06138C127.621 2.06138 127.941 2.12538 128.133 2.25338C128.341 2.38138 128.469 2.55738 128.517 2.78138C128.581 2.98938 128.613 3.22938 128.613 3.50138V14.9734C128.613 15.2774 128.629 15.5334 128.661 15.7414C128.709 15.9334 128.781 16.0934 128.877 16.2214C128.989 16.3334 129.125 16.4134 129.285 16.4614C129.461 16.5094 129.669 16.5334 129.909 16.5334C130.117 16.5334 130.301 16.5574 130.461 16.6054C130.637 16.6534 130.773 16.7734 130.869 16.9654C130.981 17.1574 131.037 17.4694 131.037 17.9014C131.037 18.3494 130.981 18.6774 130.869 18.8854C130.773 19.0934 130.637 19.2214 130.461 19.2694C130.285 19.3174 130.101 19.3414 129.909 19.3414ZM48.3742 39.3174C48.0542 39.3174 47.7982 39.2534 47.6062 39.1254C47.4302 39.0134 47.2942 38.8694 47.1982 38.6934C47.1182 38.5174 47.0462 38.3574 46.9822 38.2134L43.4542 29.2854C43.3582 28.9814 43.3102 28.7254 43.3102 28.5174C43.3262 28.3094 43.4062 28.1334 43.5502 27.9894C43.7102 27.8294 43.9422 27.6934 44.2462 27.5814C44.7582 27.3734 45.1582 27.3174 45.4462 27.4134C45.7502 27.5094 45.9742 27.7814 46.1182 28.2294L48.3982 34.2774L50.4622 28.4934C50.5102 28.3494 50.5822 28.1974 50.6782 28.0374C50.7742 27.8774 50.9102 27.7414 51.0862 27.6294C51.2782 27.5014 51.5342 27.4374 51.8542 27.4374C52.1902 27.4374 52.4542 27.5014 52.6462 27.6294C52.8382 27.7414 52.9822 27.8774 53.0782 28.0374C53.1902 28.1974 53.2622 28.3494 53.2942 28.4934L55.3582 34.3254L57.5422 28.4454C57.7342 27.9494 57.9742 27.6214 58.2622 27.4614C58.5502 27.3014 58.9422 27.3174 59.4382 27.5094C59.8862 27.7014 60.1902 27.9414 60.3502 28.2294C60.5102 28.5014 60.4942 28.8614 60.3022 29.3094L56.7502 38.2134C56.6862 38.3734 56.6062 38.5414 56.5102 38.7174C56.4302 38.8774 56.2942 39.0134 56.1022 39.1254C55.9262 39.2534 55.6862 39.3174 55.3822 39.3174C55.0622 39.3174 54.8062 39.2614 54.6142 39.1494C54.4382 39.0534 54.3022 38.9174 54.2062 38.7414C54.1102 38.5654 54.0302 38.3814 53.9662 38.1894L51.8782 32.2614L49.7902 38.1894C49.6942 38.4134 49.6062 38.6134 49.5262 38.7894C49.4462 38.9654 49.3182 39.0934 49.1422 39.1734C48.9662 39.2694 48.7102 39.3174 48.3742 39.3174ZM67.1054 39.4854C66.3374 39.4854 65.5854 39.3414 64.8494 39.0534C64.1294 38.7494 63.4734 38.3254 62.8814 37.7814C62.3054 37.2374 61.8414 36.5974 61.4894 35.8614C61.1534 35.1254 60.9854 34.3174 60.9854 33.4374C60.9854 32.5894 61.1454 31.7974 61.4654 31.0614C61.7854 30.3254 62.2254 29.6774 62.7854 29.1174C63.3454 28.5574 63.9854 28.1254 64.7054 27.8214C65.4414 27.5014 66.2254 27.3414 67.0574 27.3414C68.1774 27.3414 69.1934 27.6134 70.1054 28.1574C71.0174 28.6854 71.7454 29.4054 72.2894 30.3174C72.8334 31.2294 73.1054 32.2614 73.1054 33.4134C73.1054 34.3254 72.9374 35.1574 72.6014 35.9094C72.2654 36.6454 71.8094 37.2854 71.2334 37.8294C70.6574 38.3574 70.0094 38.7654 69.2894 39.0534C68.5854 39.3414 67.8574 39.4854 67.1054 39.4854ZM67.0574 36.6534C67.5854 36.6534 68.0894 36.5254 68.5694 36.2694C69.0654 35.9974 69.4654 35.6134 69.7694 35.1174C70.0894 34.6214 70.2494 34.0374 70.2494 33.3654C70.2494 32.7414 70.1054 32.1894 69.8174 31.7094C69.5454 31.2294 69.1694 30.8534 68.6894 30.5814C68.2094 30.3094 67.6574 30.1734 67.0334 30.1734C66.4414 30.1734 65.9054 30.3174 65.4254 30.6054C64.9454 30.8774 64.5614 31.2614 64.2734 31.7574C64.0014 32.2374 63.8654 32.7814 63.8654 33.3894C63.8654 34.0614 64.0174 34.6454 64.3214 35.1414C64.6254 35.6214 65.0174 35.9974 65.4974 36.2694C65.9934 36.5254 66.5134 36.6534 67.0574 36.6534ZM76.4077 39.3414C75.9757 39.3414 75.6557 39.2694 75.4477 39.1254C75.2557 38.9974 75.1357 38.8214 75.0877 38.5974C75.0397 38.3734 75.0157 38.1254 75.0157 37.8534V28.9494C75.0157 28.6614 75.0397 28.4134 75.0877 28.2054C75.1357 27.9814 75.2557 27.8134 75.4477 27.7014C75.6557 27.5734 75.9837 27.5094 76.4317 27.5094C76.8637 27.5094 77.1757 27.5654 77.3677 27.6774C77.5757 27.7894 77.7037 27.9334 77.7517 28.1094C77.8157 28.2694 77.8477 28.4294 77.8477 28.5894L77.6557 29.0214C77.7357 28.8934 77.8477 28.7414 77.9917 28.5654C78.1357 28.3734 78.3277 28.1894 78.5677 28.0134C78.8077 27.8214 79.0957 27.6694 79.4317 27.5574C79.7677 27.4294 80.1677 27.3654 80.6317 27.3654C80.8237 27.3654 81.0237 27.3894 81.2317 27.4374C81.4557 27.4694 81.6717 27.5254 81.8797 27.6054C82.1037 27.6694 82.3037 27.7574 82.4797 27.8694C82.6557 27.9814 82.7917 28.1174 82.8877 28.2774C82.9837 28.4214 83.0317 28.5894 83.0317 28.7814C83.0317 29.2934 82.9037 29.7254 82.6477 30.0774C82.3917 30.4294 82.0877 30.6054 81.7357 30.6054C81.4957 30.6054 81.3197 30.5814 81.2077 30.5334C81.0957 30.4854 80.9997 30.4294 80.9197 30.3654C80.8557 30.3014 80.7517 30.2454 80.6077 30.1974C80.4797 30.1494 80.2717 30.1254 79.9837 30.1254C79.7437 30.1254 79.4957 30.1654 79.2397 30.2454C78.9997 30.3254 78.7757 30.4454 78.5677 30.6054C78.3597 30.7654 78.1917 30.9734 78.0637 31.2294C77.9357 31.4694 77.8717 31.7494 77.8717 32.0694V37.9014C77.8717 38.1734 77.8477 38.4214 77.7997 38.6454C77.7517 38.8534 77.6237 39.0214 77.4157 39.1494C77.2077 39.2774 76.8717 39.3414 76.4077 39.3414ZM89.0806 39.3414C88.4886 39.3414 87.9606 39.3014 87.4966 39.2214C87.0486 39.1414 86.6566 39.0054 86.3206 38.8134C86.0006 38.6214 85.7366 38.3654 85.5286 38.0454C85.3206 37.7094 85.1606 37.3014 85.0486 36.8214C84.9526 36.3414 84.9046 35.7654 84.9046 35.0934V23.5254C84.9046 23.2534 84.9286 23.0134 84.9766 22.8054C85.0406 22.5814 85.1686 22.4054 85.3606 22.2774C85.5686 22.1334 85.8966 22.0614 86.3446 22.0614C86.7926 22.0614 87.1126 22.1254 87.3046 22.2534C87.5126 22.3814 87.6406 22.5574 87.6886 22.7814C87.7526 22.9894 87.7846 23.2294 87.7846 23.5014V34.9734C87.7846 35.2774 87.8006 35.5334 87.8326 35.7414C87.8806 35.9334 87.9526 36.0934 88.0486 36.2214C88.1606 36.3334 88.2966 36.4134 88.4566 36.4614C88.6326 36.5094 88.8406 36.5334 89.0806 36.5334C89.2886 36.5334 89.4726 36.5574 89.6326 36.6054C89.8086 36.6534 89.9446 36.7734 90.0406 36.9654C90.1526 37.1574 90.2086 37.4694 90.2086 37.9014C90.2086 38.3494 90.1526 38.6774 90.0406 38.8854C89.9446 39.0934 89.8086 39.2214 89.6326 39.2694C89.4566 39.3174 89.2726 39.3414 89.0806 39.3414ZM97.025 39.3174C96.289 39.3174 95.593 39.1654 94.937 38.8614C94.281 38.5574 93.705 38.1414 93.209 37.6134C92.713 37.0694 92.321 36.4374 92.033 35.7174C91.745 34.9814 91.601 34.1974 91.601 33.3654C91.601 32.5654 91.745 31.8134 92.033 31.1094C92.321 30.3894 92.713 29.7654 93.209 29.2374C93.721 28.6934 94.305 28.2694 94.961 27.9654C95.617 27.6614 96.305 27.5094 97.025 27.5094C97.793 27.5094 98.481 27.6614 99.089 27.9654C99.697 28.2694 100.209 28.6934 100.625 29.2374C101.057 29.7654 101.385 30.3894 101.609 31.1094C101.833 31.8134 101.953 32.5734 101.969 33.3894C101.969 34.2054 101.857 34.9734 101.633 35.6934C101.425 36.3974 101.105 37.0214 100.673 37.5654C100.257 38.1094 99.737 38.5414 99.113 38.8614C98.505 39.1654 97.809 39.3174 97.025 39.3174ZM97.409 36.5094C97.969 36.5094 98.465 36.3814 98.897 36.1254C99.345 35.8534 99.697 35.4854 99.953 35.0214C100.225 34.5574 100.361 34.0294 100.361 33.4374C100.361 32.8294 100.225 32.2934 99.953 31.8294C99.697 31.3654 99.345 30.9974 98.897 30.7254C98.465 30.4534 97.969 30.3174 97.409 30.3174C96.849 30.3174 96.345 30.4534 95.897 30.7254C95.449 30.9814 95.089 31.3494 94.817 31.8294C94.561 32.2934 94.433 32.8294 94.433 33.4374C94.433 34.0294 94.561 34.5574 94.817 35.0214C95.089 35.4854 95.449 35.8534 95.897 36.1254C96.361 36.3814 96.865 36.5094 97.409 36.5094ZM101.849 39.3174C101.401 39.3174 101.073 39.2454 100.865 39.1014C100.657 38.9414 100.521 38.6934 100.457 38.3574V23.5734C100.457 23.3014 100.473 23.0614 100.505 22.8534C100.553 22.6294 100.673 22.4534 100.865 22.3254C101.073 22.1814 101.393 22.1094 101.825 22.1094C102.289 22.1094 102.617 22.1734 102.809 22.3014C103.001 22.4294 103.121 22.6054 103.169 22.8294C103.233 23.0374 103.265 23.2774 103.265 23.5494V37.8534C103.265 38.1254 103.241 38.3734 103.193 38.5974C103.145 38.8214 103.017 38.9974 102.809 39.1254C102.617 39.2534 102.297 39.3174 101.849 39.3174Z" fill="#272A31"/>
<path d="M11.9534 29.0601C11.3174 29.0601 10.7594 28.9821 10.2794 28.8261C9.81144 28.6701 9.40944 28.4841 9.07344 28.2681C8.74944 28.0401 8.49144 27.8181 8.29944 27.6021C8.10744 27.3861 7.97544 27.2241 7.90344 27.1161C7.69944 26.8521 7.57344 26.6241 7.52544 26.4321C7.47744 26.2281 7.50144 26.0241 7.59744 25.8201C7.70544 25.6161 7.88544 25.3941 8.13744 25.1541C8.38944 24.9381 8.62344 24.8241 8.83944 24.8121C9.06744 24.7881 9.28944 24.8421 9.50544 24.9741C9.72144 25.1061 9.93144 25.2921 10.1354 25.5321C10.4234 25.8801 10.7054 26.1261 10.9814 26.2701C11.2694 26.4021 11.5694 26.4681 11.8814 26.4681C12.2774 26.4681 12.6134 26.4201 12.8894 26.3241C13.1654 26.2281 13.3754 26.0781 13.5194 25.8741C13.6634 25.6581 13.7354 25.3881 13.7354 25.0641C13.7354 24.8001 13.6334 24.5901 13.4294 24.4341C13.2374 24.2661 12.9734 24.1221 12.6374 24.0021C12.3134 23.8821 11.9474 23.7681 11.5394 23.6601C11.1434 23.5401 10.7474 23.4021 10.3514 23.2461C10.0754 23.1501 9.81144 23.0301 9.55944 22.8861C9.30744 22.7421 9.06744 22.5801 8.83944 22.4001C8.61144 22.2201 8.41344 22.0041 8.24544 21.7521C8.08944 21.5001 7.96344 21.2121 7.86744 20.8881C7.78344 20.5641 7.74144 20.1921 7.74144 19.7721C7.74144 19.0641 7.91544 18.4341 8.26344 17.8821C8.61144 17.3301 9.09144 16.8981 9.70344 16.5861C10.3274 16.2621 11.0414 16.1001 11.8454 16.1001C12.3854 16.1001 12.8534 16.1481 13.2494 16.2441C13.6574 16.3401 13.9994 16.4541 14.2754 16.5861C14.5514 16.7181 14.7674 16.8501 14.9234 16.9821C15.0914 17.1021 15.2054 17.1981 15.2654 17.2701C15.6014 17.5821 15.7874 17.8521 15.8234 18.0801C15.8594 18.2961 15.7334 18.6021 15.4454 18.9981C15.1454 19.4181 14.8454 19.6521 14.5454 19.7001C14.2574 19.7481 13.9274 19.6461 13.5554 19.3941C13.4114 19.2621 13.2674 19.1421 13.1234 19.0341C12.9794 18.9261 12.8054 18.8421 12.6014 18.7821C12.4094 18.7101 12.1514 18.6741 11.8274 18.6741C11.6354 18.6741 11.4554 18.7041 11.2874 18.7641C11.1194 18.8121 10.9754 18.8841 10.8554 18.9801C10.7354 19.0761 10.6394 19.1961 10.5674 19.3401C10.4954 19.4721 10.4594 19.6221 10.4594 19.7901C10.4594 20.0661 10.5494 20.2881 10.7294 20.4561C10.9214 20.6241 11.1674 20.7621 11.4674 20.8701C11.7794 20.9661 12.1214 21.0621 12.4934 21.1581C12.8774 21.2421 13.2674 21.3441 13.6634 21.4641C14.0234 21.5841 14.3714 21.7341 14.7074 21.9141C15.0434 22.0821 15.3434 22.2981 15.6074 22.5621C15.8714 22.8261 16.0814 23.1561 16.2374 23.5521C16.4054 23.9481 16.4894 24.4341 16.4894 25.0101C16.4894 25.7301 16.3514 26.3481 16.0754 26.8641C15.7994 27.3801 15.4334 27.8001 14.9774 28.1241C14.5214 28.4481 14.0294 28.6821 13.5014 28.8261C12.9734 28.9821 12.4574 29.0601 11.9534 29.0601ZM21.5227 28.8441C21.2107 28.8441 20.9647 28.7841 20.7847 28.6641C20.6047 28.5441 20.4727 28.4061 20.3887 28.2501C20.3167 28.0941 20.2687 27.9861 20.2447 27.9261L16.8607 18.1161C16.7047 17.6121 16.6807 17.2401 16.7887 17.0001C16.8967 16.7481 17.2087 16.5381 17.7247 16.3701C18.0607 16.2621 18.3307 16.2141 18.5347 16.2261C18.7507 16.2381 18.9247 16.3221 19.0567 16.4781C19.2007 16.6341 19.3267 16.8801 19.4347 17.2161L21.6847 23.8941L23.5747 17.3061C23.6107 17.1861 23.6647 17.0481 23.7367 16.8921C23.8207 16.7361 23.9527 16.5981 24.1327 16.4781C24.3127 16.3581 24.5647 16.2981 24.8887 16.2981C25.2607 16.2981 25.5367 16.3641 25.7167 16.4961C25.9087 16.6281 26.0407 16.7721 26.1127 16.9281C26.1847 17.0841 26.2387 17.2041 26.2747 17.2881L28.1827 23.9301L30.4147 17.2341C30.5227 16.8981 30.6427 16.6521 30.7747 16.4961C30.9187 16.3281 31.0987 16.2321 31.3147 16.2081C31.5427 16.1841 31.8247 16.2321 32.1607 16.3521C32.5207 16.4841 32.7727 16.6221 32.9167 16.7661C33.0607 16.9101 33.1327 17.0901 33.1327 17.3061C33.1447 17.5101 33.1027 17.7801 33.0067 18.1161L29.6227 27.9261C29.5987 27.9981 29.5447 28.1121 29.4607 28.2681C29.3887 28.4121 29.2627 28.5441 29.0827 28.6641C28.9147 28.7841 28.6627 28.8441 28.3267 28.8441C28.0027 28.8441 27.7447 28.7721 27.5527 28.6281C27.3607 28.4841 27.2227 28.3341 27.1387 28.1781C27.0667 28.0101 27.0187 27.8961 26.9947 27.8361L24.9247 21.1221L22.8547 27.8361C22.8427 27.8961 22.7947 28.0101 22.7107 28.1781C22.6267 28.3461 22.4887 28.5021 22.2967 28.6461C22.1167 28.7781 21.8587 28.8441 21.5227 28.8441Z" fill="#272A31"/>
<circle cx="20.5754" cy="22.6164" r="18.2234" stroke="#272A31" stroke-width="3"/>
</svg>
