<svg width="53" height="53" viewBox="0 0 53 53" fill="none" xmlns="http://www.w3.org/2000/svg">
<path d="M34.2116 26.6315V24.2654L31.3443 24.2185C30.422 23.9738 30.7701 23.2317 31.0595 22.8913L32.746 21.229L31.8454 18.8127C31.4085 17.8309 32.364 17.7152 32.8964 17.7801L35.1187 18.1385L36.6204 16.3133C37.4336 15.1952 37.9989 15.8474 38.1799 16.3133L38.8614 19.181H41.5448C42.1549 19.3374 42.0207 20.1327 41.8773 20.5107L40.3128 22.388L41.1537 24.4218C41.5448 25.3448 40.7561 25.6929 40.3128 25.7516L37.6729 25.5169L36.3431 27.2378C35.1072 28.4111 34.4072 27.3225 34.2116 26.6315Z" stroke="#F4F3F3"/>
<path d="M25.5 6.31976V3.46262C25.7745 2.74833 26.7353 1.31976 28.3824 1.31976C30.0294 1.31976 31.8137 1.55786 32.5 1.67691C32.0882 3.22453 30.1118 6.31976 25.5 6.31976Z" fill="#EC5242" fill-opacity="0.8"/>
<path d="M47.0467 36.6449L47.0284 39.9004C46.7542 40.7127 45.8014 42.335 44.1838 42.3257C42.5661 42.3163 40.8152 42.0349 40.142 41.8954C40.5563 40.1343 42.5173 36.6187 47.0467 36.6449Z" fill="#EC5242" fill-opacity="0.8"/>
<path d="M26.1752 38.9792L23.3952 38.8787C22.709 38.6041 21.3497 37.6808 21.4024 36.184C21.4551 34.6872 21.7438 33.0741 21.8816 32.4546C23.3743 32.8832 26.3227 34.7882 26.1752 38.9792Z" fill="#EC5242" fill-opacity="0.8"/>
<path d="M13.6902 48.1938L11.1993 48.4728C10.5568 48.361 9.24208 47.865 9.12329 46.7756C9.0045 45.6863 9.08338 44.4829 9.13767 44.0173C10.5166 44.1386 13.3576 45.1436 13.6902 48.1938Z" fill="#EC5242" fill-opacity="0.7"/>
<path d="M29.5268 41.7761L29.8883 44.1499C29.7932 44.7724 29.325 46.0608 28.2123 46.2348C27.0997 46.4089 25.8642 46.3996 25.3856 46.3732C25.4679 45.0439 26.4114 42.2634 29.5268 41.7761Z" fill="#EC5242" fill-opacity="0.7"/>
<path d="M5.69926 22.2198L5.31175 19.8746C5.39088 19.2584 5.81317 17.9812 6.86924 17.802C7.92531 17.6228 9.10168 17.6241 9.55785 17.6471C9.50374 18.9623 8.65625 21.718 5.69926 22.2198Z" fill="#EC5242" fill-opacity="0.7"/>
<path d="M20.9548 14.9496L22.7253 14.9005C23.1718 15.0301 24.0704 15.5019 24.0934 16.3528C24.1163 17.2038 23.9937 18.1297 23.9295 18.4863C22.9647 18.3001 21.0191 17.3322 20.9548 14.9496Z" fill="#EC5242" fill-opacity="0.7"/>
<path d="M46.5 4.31976L50 4.81976C50.6667 4.98643 52 5.11976 52 6.31976L51 10.8198C49 10.3198 45.3 8.71976 46.5 4.31976Z" fill="#EC5242" fill-opacity="0.8"/>
<path d="M20.8214 36.6317C18.8125 38.353 13.343 38.0398 12.4211 34.5632C14.8927 34.3529 19.3852 32.3333 18.0189 26.3871C18.8062 26.3372 20.6995 26.5542 21.9738 27.8214" stroke="#D3D3D3"/>
<path d="M8.4964 43.6443L9.23011 47.328C9.6292 48.5942 10.8488 48.8478 11.4086 48.8163L28.6088 46.44C29.9525 46.3645 30.3079 44.5995 30.3177 43.7264C30.1797 42.8703 30.0466 42.0439 29.9175 41.2426C28.1633 41.5055 24.7739 42.9508 25.2494 46.6288M8.4964 43.6443C10.1296 43.8545 13.4651 45.0362 13.7411 48.0812M8.4964 43.6443L5.36317 22.7335M24 14.8198L20.7091 15.4579M20.7091 15.4579C21 16.8198 21 17.3198 23.5 18.8198M20.7091 15.4579L9.99014 17.198M5.36317 22.7335L5.32219 22.46L5.01099 20.3831C4.93271 19.6828 5.08714 18.1841 6.33112 17.792L9.99014 17.198M5.36317 22.7335C6.81477 22.4084 9.7724 20.8461 9.99014 17.198" stroke="#F4F3F3"/>
<path d="M21.4999 31.8198L20.9999 36.3198C20.9999 37.9198 22.3332 38.6531 22.9999 38.8198L43.9999 42.3198C45.5999 42.7198 46.6665 40.8198 46.9999 39.8198C47.1542 38.7857 47.3032 37.7876 47.4476 36.8198M21.4999 31.8198C23.3332 32.6531 26.7999 35.2198 25.9999 38.8198M21.4999 31.8198L25.5452 6.64903M47.4476 36.8198C45.2984 36.4864 40.7999 36.9198 39.9999 41.3198M47.4476 36.8198C48.8963 27.1139 49.8912 20.4479 51.2867 11.0984M46.1825 3.84585L49.4999 4.31976C50.3332 4.48643 51.9999 5.11976 51.9999 6.31976C51.7492 7.99925 51.5127 9.58401 51.2867 11.0984M46.1825 3.84585C45.8128 5.5229 46.3161 9.32126 51.2867 11.0984M46.1825 3.84585L32.9999 1.96262M25.5452 6.64903L25.5981 6.31976L25.9999 3.81976C26.1665 2.98643 26.8999 1.31976 28.4999 1.31976L32.9999 1.96262M25.5452 6.64903C27.3634 6.80118 31.3999 6.07691 32.9999 1.96262" stroke="#F4F3F3"/>
<circle cx="34.3574" cy="8.56976" r="0.75293" fill="#F4F3F3"/>
<circle cx="38.6338" cy="9.46069" r="0.75293" fill="#F4F3F3"/>
<circle cx="42.9993" cy="10.2136" r="0.75293" fill="#F4F3F3"/>
<circle cx="12.1976" cy="21.971" r="0.564026" fill="#D3D3D3"/>
<circle cx="15.8391" cy="21.407" r="0.564026" fill="#D3D3D3"/>
<circle cx="19.2156" cy="20.843" r="0.564026" fill="#D3D3D3"/>
<circle cx="19.2156" cy="20.843" r="0.564026" fill="#D3D3D3"/>
<circle cx="15.4748" cy="42.9383" r="0.564026" fill="#D3D3D3"/>
<circle cx="19.1163" cy="42.3743" r="0.564026" fill="#D3D3D3"/>
<circle cx="22.4929" cy="41.8102" r="0.564026" fill="#D3D3D3"/>
<ellipse cx="27.288" cy="30.4345" rx="0.820709" ry="1.41952" transform="rotate(8.05976 27.288 30.4345)" fill="#F4F3F3"/>
<ellipse cx="42.2749" cy="32.8299" rx="0.820709" ry="1.20394" transform="rotate(8.05976 42.2749 32.8299)" fill="#F4F3F3"/>
<path d="M36.2592 33.1272C36.2592 34.1397 35.4841 34.9177 34.5795 34.9177C33.675 34.9177 32.8999 34.1397 32.8999 33.1272C32.8999 32.1147 33.675 31.3368 34.5795 31.3368C35.4841 31.3368 36.2592 32.1147 36.2592 33.1272Z" stroke="#F4F3F3"/>
</svg>
