<svg width="38" height="55" viewBox="0 0 38 55" fill="none" xmlns="http://www.w3.org/2000/svg">
<path d="M26.2815 9.87451C29.8991 10.9904 30.8824 13.4367 30.9218 14.5204C30.9218 11.9784 33.7985 10.364 35.2369 9.87451C32.5651 9.02549 31.2469 6.89274 30.9218 5.9325C30.4016 8.26131 27.6115 9.53085 26.2815 9.87451Z" stroke="#F4F3F3" stroke-width="1.5"/>
<path d="M4.38562 29.2827V36.7902C4.80655 37.3902 5.85727 38.2302 6.69272 36.7902V32.7187C7.06867 31.6616 8.17982 30.1816 9.61679 32.7187V34.8616" stroke="white" stroke-width="1.5"/>
<path d="M22.7117 38.6212C21.1478 41.0478 22.6815 43.0117 23.6439 43.6903C25.5679 44.0801 29.15 43.9487 28.0862 40.3047C27.7241 39.0645 27.142 38.3626 26.4786 38.014L26.4636 38.044L26.477 38.0131C25.1914 37.3389 23.6007 37.9901 22.7117 38.6212Z" fill="#EC5242"/>
<path d="M22.7117 38.6212C22.7498 38.2297 22.6353 36.3503 21.605 34.706M22.7117 38.6212C21.1478 41.0478 22.6815 43.0117 23.6439 43.6903M22.7117 38.6212C23.6007 37.9901 25.1914 37.3389 26.477 38.0131M21.605 34.706C20.5747 33.0616 15.7282 30.9474 14.3926 34.0012C13.324 36.4443 14.3544 38.0991 15.0031 38.6212C15.919 39.5739 18.6055 41.2444 22.0247 40.3047C20.8036 40.3178 17.8652 40.6414 15.8808 41.8317C13.8964 43.0219 13.7056 45.2509 13.8583 46.2167C13.8583 46.543 14.1254 47.4226 15.1939 48.3309C15.6976 48.7591 16.3466 48.8967 16.9681 48.8898M21.605 34.706C20.9717 34.706 21.1363 32.463 21.2977 31.3416C21.632 29.9178 22.9794 27.1952 25.695 27.6946C29.0895 28.3189 28.6473 31.6372 28.6473 32.6558C28.6473 33.465 27.2113 36.545 26.4786 38.014M23.6439 43.6903C22.506 45.7177 19.981 47.8884 18.7122 48.527C18.3623 48.6776 17.7822 48.8481 17.1555 48.8834M23.6439 43.6903C22.9492 44.6004 21.3169 46.6414 21.2977 48.3309C21.2738 50.4428 20.9865 52.5796 24.0508 53.6849C26.5023 54.5691 28.1366 52.5141 28.6473 51.3761C29.198 49.5306 28.6473 46.376 27.1152 43.8357C28.1784 45.0052 27.3594 47.1319 31.7835 48.9199C36.2076 50.708 36.9147 46.4228 36.7152 44.0567C36.4569 42.2965 35.1071 39.694 28.7644 39.9881M23.6439 43.6903C25.5679 44.0801 29.15 43.9487 28.0862 40.3047M28.7644 39.9881C31.2827 39.8713 36.2667 39.0981 36.4748 36.4171C36.683 33.7361 35.7731 33.1705 35.3021 32.8858C34.5763 32.4039 32.6186 31.7293 30.5947 32.8858C28.5874 34.0328 27.0233 36.7611 26.477 38.0131M28.7644 39.9881L28.0862 40.3047M26.4636 38.044C26.468 38.0338 26.4725 38.0235 26.477 38.0131M26.4636 38.044C26.4686 38.0341 26.4736 38.0241 26.4786 38.014M26.4636 38.044L26.4786 38.014M26.4636 38.044L26.477 38.0131M28.0862 40.3047C27.7241 39.0645 27.142 38.3626 26.4786 38.014M17.1555 48.8834C17.0934 48.8869 17.0309 48.8891 16.9681 48.8898M17.1555 48.8834L16.9681 48.8898M16.9681 48.8898V52.3439M26.477 38.0131L26.4786 38.014" stroke="#F4F3F3" stroke-width="1.5"/>
<path d="M5.50905 9.86273C5.15064 12.7636 7.915 13.5909 9.34198 13.642C12.2789 14.0506 13.6229 11.9566 13.5234 9.55631C13.4437 7.63605 10.7026 3.78531 9.34198 2.09998C8.21367 3.47888 5.86745 6.96191 5.50905 9.86273Z" fill="#EC5242"/>
<path d="M17.2792 51.848C16.9067 52.2038 16.0621 52.8848 15.6638 52.7622C15.2656 52.6397 7.33425 52.7112 3.41835 52.7622C2.68827 52.5409 1.23807 51.8021 1.27789 50.6172V26.2565V16.6041M1.27789 16.6041C1.14514 15.787 1.52677 14.1629 4.11524 14.2038C7.35083 14.2548 12.8265 16.0423 13.0256 16.1955C13.2247 16.3488 17.6052 18.2384 17.4558 20.4344M1.27789 16.6041C5.02121 23.4272 12.0964 23.8051 15.166 23.1412C15.8795 22.9709 17.3364 22.1913 17.4558 20.4344M17.4558 20.4344V32.6838M9.34198 18.5959V13.642M9.34198 13.642C7.915 13.5909 5.15064 12.7636 5.50905 9.86273C5.86745 6.96191 8.21367 3.47888 9.34198 2.09998C10.7026 3.78531 13.4437 7.63605 13.5234 9.55631C13.6229 11.9566 12.2789 14.0506 9.34198 13.642Z" stroke="#F4F3F3" stroke-width="1.5"/>
<ellipse cx="30.7591" cy="17.3922" rx="0.740944" ry="0.760183" fill="#F4F3F3"/>
<ellipse cx="30.7591" cy="20.6863" rx="0.740944" ry="0.760183" fill="#F4F3F3"/>
<ellipse cx="30.7591" cy="23.9808" rx="0.740944" ry="0.760183" fill="#F4F3F3"/>
</svg>
